Ubuntu.ufo
<glyph name="exclam" format="1">
  <advance width="276"/>
  <unicode hex="0021"/>
  <outline>
    <contour>
      <point x="109" y="216" type="line"/>
      <point x="96.384" y="311.321"/>
      <point x="88" y="394.993"/>
      <point x="88" y="505" type="curve" smooth="yes"/>
      <point x="88" y="693" type="line"/>
      <point x="188" y="693" type="line"/>
      <point x="188" y="505" type="line" smooth="yes"/>
      <point x="188" y="394.962"/>
      <point x="179.622" y="311.366"/>
      <point x="167" y="216" type="curve"/>
    </contour>
    <contour>
      <point x="138" y="121" type="curve" smooth="yes"/>
      <point x="177.13" y="121"/>
      <point x="205" y="91.8126"/>
      <point x="205" y="54" type="curve" smooth="yes"/>
      <point x="205" y="16.1958"/>
      <point x="177.12" y="-13"/>
      <point x="138" y="-13" type="curve" smooth="yes"/>
      <point x="98.8699" y="-13"/>
      <point x="71" y="16.1874"/>
      <point x="71" y="54" type="curve" smooth="yes"/>
      <point x="71" y="91.8042"/>
      <point x="98.8796" y="121"/>
    </contour>
  </outline>
</glyph>
<glyph name="dollar" format="1">
  <advance width="564"/>
  <unicode hex="0024"/>
  <outline>
    <contour>
      <point x="86" y="133" type="line"/>
      <point x="133.247" y="110.951"/>
      <point x="187.242" y="95"/>
      <point x="262" y="95" type="curve" smooth="yes"/>
      <point x="313.333" y="95"/>
      <point x="349.333" y="103.167"/>
      <point x="370" y="119.5" type="curve" smooth="yes"/>
      <point x="390.667" y="135.833"/>
      <point x="401" y="156.667"/>
      <point x="401" y="182" type="curve" smooth="yes"/>
      <point x="401" y="223.275"/>
      <point x="377.955" y="247.363"/>
      <point x="351.5" y="265" type="curve" smooth="yes"/>
      <point x="285.833" y="308.778"/>
      <point x="186.255" y="322.262"/>
      <point x="127" y="372.5" type="curve" smooth="yes"/>
      <point x="97.1071" y="397.844"/>
      <point x="75" y="432.418"/>
      <point x="75" y="487" type="curve" smooth="yes"/>
      <point x="75" y="591.73"/>
      <point x="144.109" y="646.646"/>
      <point x="241" y="661" type="curve"/>
      <point x="241" y="776" type="line"/>
      <point x="324" y="776" type="line"/>
      <point x="324" y="664" type="line"/>
      <point x="374.123" y="661.722"/>
      <point x="430.727" y="648.827"/>
      <point x="466" y="636" type="curve"/>
      <point x="447" y="558" type="line"/>
      <point x="406.176" y="573.309"/>
      <point x="359.604" y="586"/>
      <point x="297" y="586" type="curve" smooth="yes"/>
      <point x="227.858" y="586"/>
      <point x="172" y="561.745"/>
      <point x="172" y="498" type="curve" smooth="yes"/>
      <point x="172" y="445.105"/>
      <point x="212.308" y="423.997"/>
      <point x="251.5" y="408" type="curve" smooth="yes"/>
      <point x="340.775" y="371.561"/>
      <point x="441.547" y="346.252"/>
      <point x="484" y="264" type="curve" smooth="yes"/>
      <point x="494.667" y="243.333"/>
      <point x="500" y="218.333"/>
      <point x="500" y="189" type="curve" smooth="yes"/>
      <point x="500" y="80.8691"/>
      <point x="428.752" y="32.803"/>
      <point x="324" y="20" type="curve"/>
      <point x="324" y="-109" type="line"/>
      <point x="241" y="-109" type="line"/>
      <point x="241" y="17" type="line"/>
      <point x="165.307" y="19.1627"/>
      <point x="104.678" y="34.1757"/>
      <point x="61" y="58" type="curve"/>
    </contour>
  </outline>
</glyph>
<glyph name="percent" format="1">
  <advance width="858"/>
  <unicode hex="0025"/>
  <outline>
    <contour>
      <point x="50" y="524" type="curve" smooth="yes"/>
      <point x="50" y="610.705"/>
      <point x="85.1597" y="670.825"/>
      <point x="146" y="696" type="curve" smooth="yes"/>
      <point x="165.333" y="704"/>
      <point x="186.333" y="708"/>
      <point x="209" y="708" type="curve" smooth="yes"/>
      <point x="287.71" y="708"/>
      <point x="334.905" y="662.769"/>
      <point x="356" y="603" type="curve" smooth="yes"/>
      <point x="364" y="580.333"/>
      <point x="368" y="554"/>
      <point x="368" y="524" type="curve" smooth="yes"/>
      <point x="368" y="437.295"/>
      <point x="332.84" y="377.175"/>
      <point x="272" y="352" type="curve" smooth="yes"/>
      <point x="252.667" y="344"/>
      <point x="231.667" y="340"/>
      <point x="209" y="340" type="curve" smooth="yes"/>
      <point x="130.29" y="340"/>
      <point x="83.0949" y="385.231"/>
      <point x="62" y="445" type="curve" smooth="yes"/>
      <point x="54" y="467.667"/>
      <point x="50" y="494"/>
    </contour>
    <contour>
      <point x="209" y="409" type="curve" smooth="yes"/>
      <point x="267.422" y="409"/>
      <point x="290" y="461.223"/>
      <point x="290" y="524" type="curve" smooth="yes"/>
      <point x="290" y="586.815"/>
      <point x="267.444" y="639"/>
      <point x="209" y="639" type="curve" smooth="yes"/>
      <point x="150.578" y="639"/>
      <point x="128" y="586.777"/>
      <point x="128" y="524" type="curve" smooth="yes"/>
      <point x="128" y="461.185"/>
      <point x="150.556" y="409"/>
    </contour>
    <contour>
      <point x="490" y="169" type="curve" smooth="yes"/>
      <point x="490" y="255.705"/>
      <point x="525.16" y="315.825"/>
      <point x="586" y="341" type="curve" smooth="yes"/>
      <point x="605.333" y="349"/>
      <point x="626.333" y="353"/>
      <point x="649" y="353" type="curve" smooth="yes"/>
      <point x="727.71" y="353"/>
      <point x="774.905" y="307.769"/>
      <point x="796" y="248" type="curve" smooth="yes"/>
      <point x="804" y="225.333"/>
      <point x="808" y="199"/>
      <point x="808" y="169" type="curve" smooth="yes"/>
      <point x="808" y="82.2951"/>
      <point x="772.84" y="22.1753"/>
      <point x="712" y="-3" type="curve" smooth="yes"/>
      <point x="692.667" y="-11"/>
      <point x="671.667" y="-15"/>
      <point x="649" y="-15" type="curve" smooth="yes"/>
      <point x="570.29" y="-15"/>
      <point x="523.095" y="30.2312"/>
      <point x="502" y="90" type="curve" smooth="yes"/>
      <point x="494" y="112.667"/>
      <point x="490" y="139"/>
    </contour>
    <contour>
      <point x="649" y="54" type="curve" smooth="yes"/>
      <point x="707.422" y="54"/>
      <point x="730" y="106.223"/>
      <point x="730" y="169" type="curve" smooth="yes"/>
      <point x="730" y="231.815"/>
      <point x="707.444" y="284"/>
      <point x="649" y="284" type="curve" smooth="yes"/>
      <point x="590.578" y="284"/>
      <point x="568" y="231.777"/>
      <point x="568" y="169" type="curve" smooth="yes"/>
      <point x="568" y="106.185"/>
      <point x="590.556" y="54"/>
    </contour>
    <contour>
      <point x="670" y="693" type="line"/>
      <point x="279" y="0" type="line"/>
      <point x="188" y="0" type="line"/>
      <point x="579" y="693" type="line"/>
    </contour>
  </outline>
</glyph>
<glyph name="ampersand" format="1">
  <advance width="666"/>
  <unicode hex="0026"/>
  <outline>
    <contour>
      <point x="491" y="83" type="curve"/>
      <point x="439.934" y="31.9342"/>
      <point x="370.722" y="-9"/>
      <point x="272" y="-9" type="curve" smooth="yes"/>
      <point x="190.062" y="-9"/>
      <point x="132.507" y="15.6249"/>
      <point x="94.5" y="56.5" type="curve" smooth="yes"/>
      <point x="65.6622" y="87.5142"/>
      <point x="46" y="131.14"/>
      <point x="46" y="184" type="curve" smooth="yes"/>
      <point x="46" y="294.071"/>
      <point x="119.337" y="347.956"/>
      <point x="194" y="384" type="curve"/>
      <point x="144.667" y="433.333"/>
      <point x="120" y="484.333"/>
      <point x="120" y="537" type="curve" smooth="yes"/>
      <point x="120" y="621.16"/>
      <point x="164.447" y="674.088"/>
      <point x="226.5" y="697" type="curve" smooth="yes"/>
      <point x="248.167" y="705"/>
      <point x="272" y="709"/>
      <point x="298" y="709" type="curve" smooth="yes"/>
      <point x="376.732" y="709"/>
      <point x="432.865" y="673.344"/>
      <point x="455" y="617" type="curve" smooth="yes"/>
      <point x="462.333" y="598.333"/>
      <point x="466" y="578.667"/>
      <point x="466" y="558" type="curve" smooth="yes"/>
      <point x="466" y="481.569"/>
      <point x="423.506" y="435.825"/>
      <point x="379" y="402" type="curve" smooth="yes"/>
      <point x="362.333" y="389.333"/>
      <point x="344.667" y="378"/>
      <point x="326" y="368" type="curve"/>
      <point x="488" y="203" type="line"/>
      <point x="510.667" y="245"/>
      <point x="525.333" y="291.667"/>
      <point x="532" y="343" type="curve"/>
      <point x="609" y="333" type="line"/>
      <point x="602.266" y="263.98"/>
      <point x="574.811" y="199.497"/>
      <point x="542" y="147" type="curve"/>
      <point x="583.623" y="101.809"/>
      <point x="626.352" y="52.7725"/>
      <point x="655" y="0" type="curve"/>
      <point x="557" y="0" type="line"/>
      <point x="539.6" y="29.0003"/>
      <point x="514.092" y="57.4778"/>
    </contour>
    <contour>
      <point x="243" y="334" type="line"/>
      <point x="188.392" y="306.696"/>
      <point x="139" y="268.439"/>
      <point x="139" y="186" type="curve" smooth="yes"/>
      <point x="139" y="132.353"/>
      <point x="171.21" y="97.2189"/>
      <point x="210.5" y="79.5" type="curve" smooth="yes"/>
      <point x="227.5" y="71.8333"/>
      <point x="248.667" y="68"/>
      <point x="274" y="68" type="curve" smooth="yes"/>
      <point x="346.59" y="68"/>
      <point x="399.967" y="97.7789"/>
      <point x="438" y="137" type="curve"/>
    </contour>
    <contour>
      <point x="298" y="636" type="curve" smooth="yes"/>
      <point x="241.965" y="636"/>
      <point x="207" y="598.314"/>
      <point x="207" y="544" type="curve" smooth="yes"/>
      <point x="207" y="500.667"/>
      <point x="229.667" y="458.333"/>
      <point x="275" y="417" type="curve"/>
      <point x="317.407" y="438.204"/>
      <point x="355.031" y="463.957"/>
      <point x="373.5" y="508.5" type="curve" smooth="yes"/>
      <point x="379.167" y="522.167"/>
      <point x="382" y="537.667"/>
      <point x="382" y="555" type="curve" smooth="yes"/>
      <point x="382" y="602.606"/>
      <point x="347.195" y="636"/>
    </contour>
  </outline>
</glyph>
<glyph name="quotesingle" format="1">
  <advance width="241"/>
  <unicode hex="0027"/>
  <outline>
    <contour>
      <point x="93" y="501" type="line"/>
      <point x="81.9682" y="565.965"/>
      <point x="72" y="638.508"/>
      <point x="72" y="711" type="curve" smooth="yes"/>
      <point x="72" y="760" type="line"/>
      <point x="169" y="760" type="line"/>
      <point x="169" y="710" type="line" smooth="yes"/>
      <point x="169" y="638.503"/>
      <point x="158.924" y="565.329"/>
      <point x="148" y="501" type="curve"/>
    </contour>
  </outline>
</glyph>
<glyph name="parenleft" format="1">
  <advance width="324"/>
  <unicode hex="0028"/>
  <outline>
    <contour>
      <point x="317" y="738" type="line"/>
      <point x="229.753" y="625.306"/>
      <point x="171" y="487.525"/>
      <point x="171" y="299" type="curve" smooth="yes"/>
      <point x="171" y="110.62"/>
      <point x="229.832" y="-27.4081"/>
      <point x="317" y="-140" type="curve"/>
      <point x="251" y="-185" type="line"/>
      <point x="155.667" y="-68.8887"/>
      <point x="78" y="96.049"/>
      <point x="78" y="299" type="curve" smooth="yes"/>
      <point x="78" y="501.839"/>
      <point x="155.752" y="666.992"/>
      <point x="251" y="783" type="curve"/>
    </contour>
  </outline>
</glyph>
<glyph name="parenright" format="1">
  <advance width="324"/>
  <unicode hex="0029"/>
  <outline>
    <contour>
      <point x="7" y="-140" type="line"/>
      <point x="94.2473" y="-27.3055"/>
      <point x="153" y="110.475"/>
      <point x="153" y="299" type="curve" smooth="yes"/>
      <point x="153" y="487.38"/>
      <point x="94.1679" y="625.408"/>
      <point x="7" y="738" type="curve"/>
      <point x="73" y="783" type="line"/>
      <point x="168.333" y="666.889"/>
      <point x="246" y="501.951"/>
      <point x="246" y="299" type="curve" smooth="yes"/>
      <point x="246" y="96.1609"/>
      <point x="168.248" y="-68.9924"/>
      <point x="73" y="-185" type="curve"/>
    </contour>
  </outline>
</glyph>
<glyph name="asterisk" format="1">
  <advance width="480"/>
  <unicode hex="002A"/>
  <outline>
    <contour>
      <point x="218" y="525" type="curve"/>
      <point x="207.829" y="577.127"/>
      <point x="195" y="625.171"/>
      <point x="195" y="685" type="curve" smooth="yes"/>
      <point x="195" y="693" type="line"/>
      <point x="285" y="693" type="line"/>
      <point x="285" y="685" type="line" smooth="yes"/>
      <point x="285" y="625.211"/>
      <point x="272.164" y="577.091"/>
      <point x="262" y="525" type="curve"/>
      <point x="311.858" y="552.699"/>
      <point x="356.882" y="579.627"/>
      <point x="415" y="599" type="curve"/>
      <point x="443" y="515" type="line"/>
      <point x="390.641" y="495.366"/>
      <point x="338.375" y="489.67"/>
      <point x="273" y="485" type="curve"/>
      <point x="319.656" y="445.413"/>
      <point x="358.06" y="412.317"/>
      <point x="394" y="362" type="curve"/>
      <point x="321" y="311" type="line"/>
      <point x="288.191" y="360.214"/>
      <point x="266" y="407.111"/>
      <point x="240" y="462" type="curve"/>
      <point x="214.012" y="407.136"/>
      <point x="191.788" y="360.181"/>
      <point x="159" y="311" type="curve"/>
      <point x="86" y="362" type="line"/>
      <point x="121.889" y="412.244"/>
      <point x="160.391" y="445.453"/>
      <point x="207" y="485" type="curve"/>
      <point x="141.637" y="489.669"/>
      <point x="89.3486" y="495.369"/>
      <point x="37" y="515" type="curve"/>
      <point x="65" y="599" type="line"/>
      <point x="123.086" y="579.638"/>
      <point x="168.158" y="552.69"/>
    </contour>
  </outline>
</glyph>
<glyph name="comma" format="1">
  <advance width="246"/>
  <unicode hex="002C"/>
  <outline>
    <contour>
      <point x="79" y="66" type="curve" smooth="yes"/>
      <point x="79" y="82.8172"/>
      <point x="78.3776" y="98.8465"/>
      <point x="77" y="114" type="curve"/>
      <point x="178" y="114" type="line"/>
      <point x="178.667" y="108.667"/>
      <point x="179" y="103.5"/>
      <point x="179" y="98.5" type="curve" smooth="yes"/>
      <point x="179" y="83" type="line" smooth="yes"/>
      <point x="179" y="-12.3568"/>
      <point x="147.374" y="-93.5948"/>
      <point x="110" y="-159" type="curve"/>
      <point x="38" y="-136" type="line"/>
      <point x="66.1478" y="-78.5784"/>
      <point x="79" y="-11.006"/>
    </contour>
  </outline>
</glyph>
<glyph name="period" format="1">
  <advance width="246"/>
  <unicode hex="002E"/>
  <outline>
    <contour>
      <point x="123" y="121" type="curve" smooth="yes"/>
      <point x="162.13" y="121"/>
      <point x="190" y="91.8126"/>
      <point x="190" y="54" type="curve" smooth="yes"/>
      <point x="190" y="16.1958"/>
      <point x="162.12" y="-13"/>
      <point x="123" y="-13" type="curve" smooth="yes"/>
      <point x="83.8699" y="-13"/>
      <point x="56" y="16.1874"/>
      <point x="56" y="54" type="curve" smooth="yes"/>
      <point x="56" y="91.8042"/>
      <point x="83.8796" y="121"/>
    </contour>
  </outline>
</glyph>
<glyph name="zero" format="1">
  <advance width="564"/>
  <unicode hex="0030"/>
  <outline>
    <contour>
      <point x="50" y="347" type="curve" smooth="yes"/>
      <point x="50" y="463"/>
      <point x="70.5" y="552.333"/>
      <point x="111.5" y="615" type="curve" smooth="yes"/>
      <point x="152.5" y="677.667"/>
      <point x="209.333" y="709"/>
      <point x="282" y="709" type="curve" smooth="yes"/>
      <point x="354.667" y="709"/>
      <point x="411.5" y="677.667"/>
      <point x="452.5" y="615" type="curve" smooth="yes"/>
      <point x="493.5" y="552.333"/>
      <point x="514" y="463"/>
      <point x="514" y="347" type="curve" smooth="yes"/>
      <point x="514" y="231"/>
      <point x="493.5" y="141.667"/>
      <point x="452.5" y="79" type="curve" smooth="yes"/>
      <point x="411.5" y="16.3333"/>
      <point x="354.667" y="-15"/>
      <point x="282" y="-15" type="curve" smooth="yes"/>
      <point x="209.333" y="-15"/>
      <point x="152.5" y="16.3333"/>
      <point x="111.5" y="79" type="curve" smooth="yes"/>
      <point x="70.5" y="141.667"/>
      <point x="50" y="231"/>
    </contour>
    <contour>
      <point x="416" y="347" type="curve" smooth="yes"/>
      <point x="416" y="453.825"/>
      <point x="402.542" y="555.569"/>
      <point x="346" y="604.5" type="curve" smooth="yes"/>
      <point x="328.667" y="619.5"/>
      <point x="307.333" y="627"/>
      <point x="282" y="627" type="curve" smooth="yes"/>
      <point x="225.035" y="627"/>
      <point x="194.282" y="587.594"/>
      <point x="176.5" y="544" type="curve" smooth="yes"/>
      <point x="155.499" y="492.513"/>
      <point x="148" y="420.533"/>
      <point x="148" y="347" type="curve" smooth="yes"/>
      <point x="148" y="240.175"/>
      <point x="161.458" y="138.431"/>
      <point x="218" y="89.5" type="curve" smooth="yes"/>
      <point x="235.333" y="74.5"/>
      <point x="256.667" y="67"/>
      <point x="282" y="67" type="curve" smooth="yes"/>
      <point x="338.965" y="67"/>
      <point x="369.718" y="106.406"/>
      <point x="387.5" y="150" type="curve" smooth="yes"/>
      <point x="408.501" y="201.487"/>
      <point x="416" y="273.467"/>
    </contour>
  </outline>
</glyph>
<glyph name="one" format="1">
  <advance width="564"/>
  <unicode hex="0031"/>
  <outline>
    <contour>
      <point x="93" y="550" type="line"/>
      <point x="175.852" y="581.978"/>
      <point x="247.31" y="628.648"/>
      <point x="303" y="693" type="curve"/>
      <point x="369" y="693" type="line"/>
      <point x="369" y="0" type="line"/>
      <point x="276" y="0" type="line"/>
      <point x="276" y="564" type="line"/>
      <point x="236.721" y="527.994"/>
      <point x="178.297" y="498.766"/>
      <point x="122" y="480" type="curve"/>
    </contour>
  </outline>
</glyph>
<glyph name="two" format="1">
  <advance width="564"/>
  <unicode hex="0032"/>
  <outline>
    <contour>
      <point x="249" y="709" type="curve" smooth="yes"/>
      <point x="385.161" y="709"/>
      <point x="467" y="646.754"/>
      <point x="467" y="516" type="curve" smooth="yes"/>
      <point x="467" y="459.398"/>
      <point x="440.797" y="416.788"/>
      <point x="414" y="380.5" type="curve" smooth="yes"/>
      <point x="369.179" y="319.805"/>
      <point x="313.34" y="269.014"/>
      <point x="260.5" y="215" type="curve" smooth="yes"/>
      <point x="233.208" y="187.102"/>
      <point x="204.026" y="152.267"/>
      <point x="184.5" y="119" type="curve" smooth="yes"/>
      <point x="175.5" y="103.667"/>
      <point x="171" y="90.3333"/>
      <point x="171" y="79" type="curve"/>
      <point x="490" y="79" type="line"/>
      <point x="490" y="0" type="line"/>
      <point x="70" y="0" type="line"/>
      <point x="69.3333" y="4"/>
      <point x="69" y="8"/>
      <point x="69" y="12" type="curve" smooth="yes"/>
      <point x="69" y="23" type="line" smooth="yes"/>
      <point x="69" y="91.9157"/>
      <point x="94.9904" y="143.786"/>
      <point x="125" y="187" type="curve" smooth="yes"/>
      <point x="171.161" y="253.471"/>
      <point x="234.78" y="307.348"/>
      <point x="289.5" y="364.5" type="curve" smooth="yes"/>
      <point x="316.751" y="392.962"/>
      <point x="341.944" y="422.962"/>
      <point x="357.5" y="460" type="curve" smooth="yes"/>
      <point x="364.5" y="476.667"/>
      <point x="368" y="494.333"/>
      <point x="368" y="513" type="curve" smooth="yes"/>
      <point x="368" y="586.161"/>
      <point x="322.395" y="626"/>
      <point x="250" y="626" type="curve" smooth="yes"/>
      <point x="195.748" y="626"/>
      <point x="150.758" y="602.939"/>
      <point x="122" y="577.5" type="curve" smooth="yes"/>
      <point x="113.333" y="569.833"/>
      <point x="106.667" y="564"/>
      <point x="102" y="560" type="curve"/>
      <point x="56" y="626" type="line"/>
      <point x="85.4037" y="658.671"/>
      <point x="131.607" y="685.37"/>
      <point x="182" y="700" type="curve" smooth="yes"/>
      <point x="202.667" y="706"/>
      <point x="225" y="709"/>
    </contour>
  </outline>
</glyph>
<glyph name="three" format="1">
  <advance width="564"/>
  <unicode hex="0033"/>
  <outline>
    <contour>
      <point x="458" y="527" type="curve" smooth="yes"/>
      <point x="458" y="450.977"/>
      <point x="405.835" y="400.471"/>
      <point x="352" y="376" type="curve"/>
      <point x="412.621" y="358.038"/>
      <point x="455.434" y="319.563"/>
      <point x="477.5" y="262" type="curve" smooth="yes"/>
      <point x="485.167" y="242"/>
      <point x="489" y="219.667"/>
      <point x="489" y="195" type="curve" smooth="yes"/>
      <point x="489" y="87.1774"/>
      <point x="427.99" y="28.4254"/>
      <point x="344" y="1" type="curve" smooth="yes"/>
      <point x="311.333" y="-9.66667"/>
      <point x="272.667" y="-15"/>
      <point x="228" y="-15" type="curve" smooth="yes"/>
      <point x="174.178" y="-15"/>
      <point x="121.341" y="-2.44688"/>
      <point x="81" y="11" type="curve" smooth="yes"/>
      <point x="69" y="15"/>
      <point x="60.3333" y="18.3333"/>
      <point x="55" y="21" type="curve"/>
      <point x="73" y="102" type="line"/>
      <point x="84.3333" y="96.6667"/>
      <point x="103.167" y="89.6667"/>
      <point x="129.5" y="81" type="curve" smooth="yes"/>
      <point x="155.833" y="72.3333"/>
      <point x="188" y="68"/>
      <point x="226" y="68" type="curve" smooth="yes"/>
      <point x="285.333" y="68"/>
      <point x="327.833" y="79.6667"/>
      <point x="353.5" y="103" type="curve" smooth="yes"/>
      <point x="379.167" y="126.333"/>
      <point x="392" y="157.667"/>
      <point x="392" y="197" type="curve" smooth="yes"/>
      <point x="392" y="298.986"/>
      <point x="304.643" y="331"/>
      <point x="203" y="331" type="curve" smooth="yes"/>
      <point x="179" y="331" type="line"/>
      <point x="179" y="407" type="line"/>
      <point x="212" y="407" type="line" smooth="yes"/>
      <point x="294.451" y="407"/>
      <point x="362" y="438.424"/>
      <point x="362" y="522" type="curve" smooth="yes"/>
      <point x="362" y="593.077"/>
      <point x="312.779" y="627"/>
      <point x="242" y="627" type="curve" smooth="yes"/>
      <point x="182.217" y="627"/>
      <point x="138.334" y="606.392"/>
      <point x="104" y="584" type="curve"/>
      <point x="68" y="655" type="line"/>
      <point x="111.391" y="683.927"/>
      <point x="172.864" y="709"/>
      <point x="245" y="709" type="curve" smooth="yes"/>
      <point x="347.573" y="709"/>
      <point x="416.759" y="672.274"/>
      <point x="445" y="599.5" type="curve" smooth="yes"/>
      <point x="453.667" y="577.167"/>
      <point x="458" y="553"/>
    </contour>
  </outline>
</glyph>
<glyph name="four" format="1">
  <advance width="564"/>
  <unicode hex="0034"/>
  <outline>
    <contour>
      <point x="40" y="240" type="line"/>
      <point x="71.3769" y="312.662"/>
      <point x="120.365" y="394.076"/>
      <point x="166.5" y="463" type="curve" smooth="yes"/>
      <point x="219.618" y="542.357"/>
      <point x="285.793" y="627.793"/>
      <point x="351" y="693" type="curve"/>
      <point x="440" y="693" type="line"/>
      <point x="440" y="253" type="line"/>
      <point x="522" y="253" type="line"/>
      <point x="522" y="177" type="line"/>
      <point x="440" y="177" type="line"/>
      <point x="440" y="0" type="line"/>
      <point x="350" y="0" type="line"/>
      <point x="350" y="177" type="line"/>
      <point x="40" y="177" type="line"/>
    </contour>
    <contour>
      <point x="350" y="583" type="line"/>
      <point x="263.639" y="490.882"/>
      <point x="186.431" y="374.327"/>
      <point x="130" y="253" type="curve"/>
      <point x="350" y="253" type="line"/>
    </contour>
  </outline>
</glyph>
<glyph name="five" format="1">
  <advance width="564"/>
  <unicode hex="0035"/>
  <outline>
    <contour>
      <point x="214" y="614" type="line"/>
      <point x="210.137" y="556.055"/>
      <point x="206.521" y="482.404"/>
      <point x="199" y="426" type="curve"/>
      <point x="299.667" y="422"/>
      <point x="373.5" y="400"/>
      <point x="420.5" y="360" type="curve" smooth="yes"/>
      <point x="467.5" y="320"/>
      <point x="491" y="265.667"/>
      <point x="491" y="197" type="curve" smooth="yes"/>
      <point x="491" y="89.1599"/>
      <point x="432.313" y="28.7711"/>
      <point x="349" y="1" type="curve" smooth="yes"/>
      <point x="317" y="-9.66667"/>
      <point x="279" y="-15"/>
      <point x="235" y="-15" type="curve" smooth="yes"/>
      <point x="181.494" y="-15"/>
      <point x="130.901" y="-2.30028"/>
      <point x="91" y="11" type="curve" smooth="yes"/>
      <point x="79" y="15"/>
      <point x="70.3333" y="18.3333"/>
      <point x="65" y="21" type="curve"/>
      <point x="83" y="102" type="line"/>
      <point x="94.3333" y="96.6667"/>
      <point x="112.833" y="89.6667"/>
      <point x="138.5" y="81" type="curve" smooth="yes"/>
      <point x="164.167" y="72.3333"/>
      <point x="195.667" y="68"/>
      <point x="233" y="68" type="curve" smooth="yes"/>
      <point x="325.643" y="68"/>
      <point x="394" y="102.702"/>
      <point x="394" y="192" type="curve" smooth="yes"/>
      <point x="394" y="289.567"/>
      <point x="333.46" y="322.994"/>
      <point x="247" y="339.5" type="curve" smooth="yes"/>
      <point x="210.333" y="346.5"/>
      <point x="164" y="350"/>
      <point x="108" y="350" type="curve"/>
      <point x="121.838" y="463.006"/>
      <point x="127.668" y="573.032"/>
      <point x="133" y="693" type="curve"/>
      <point x="467" y="693" type="line"/>
      <point x="467" y="614" type="line"/>
    </contour>
  </outline>
</glyph>
<glyph name="six" format="1">
  <advance width="564"/>
  <unicode hex="0036"/>
  <outline>
    <contour>
      <point x="296" y="-15" type="curve" smooth="yes"/>
      <point x="133.597" y="-15"/>
      <point x="63" y="109.119"/>
      <point x="63" y="278" type="curve" smooth="yes"/>
      <point x="63" y="480.029"/>
      <point x="148.442" y="612.478"/>
      <point x="295.5" y="667.5" type="curve" smooth="yes"/>
      <point x="344.5" y="685.833"/>
      <point x="399.667" y="695.333"/>
      <point x="461" y="696" type="curve"/>
      <point x="468" y="618" type="line"/>
      <point x="295.849" y="615.082"/>
      <point x="202.101" y="542.937"/>
      <point x="171" y="397" type="curve"/>
      <point x="204.167" y="412.308"/>
      <point x="249.24" y="425"/>
      <point x="297" y="425" type="curve" smooth="yes"/>
      <point x="435.032" y="425"/>
      <point x="513" y="346.524"/>
      <point x="513" y="211" type="curve" smooth="yes"/>
      <point x="513" y="112.579"/>
      <point x="460.775" y="40.7142"/>
      <point x="393" y="6" type="curve" smooth="yes"/>
      <point x="365.667" y="-8"/>
      <point x="333.333" y="-15"/>
    </contour>
    <contour>
      <point x="417" y="209" type="curve" smooth="yes"/>
      <point x="417" y="297.963"/>
      <point x="375.151" y="349"/>
      <point x="287" y="349" type="curve" smooth="yes"/>
      <point x="236.036" y="349"/>
      <point x="199.446" y="339.227"/>
      <point x="162" y="323" type="curve"/>
      <point x="160.72" y="308.919"/>
      <point x="160" y="293.09"/>
      <point x="160" y="278" type="curve" smooth="yes"/>
      <point x="160" y="188.951"/>
      <point x="175.898" y="115.242"/>
      <point x="229" y="79.5" type="curve" smooth="yes"/>
      <point x="246.333" y="67.8333"/>
      <point x="268.333" y="62"/>
      <point x="295" y="62" type="curve" smooth="yes"/>
      <point x="375.631" y="62"/>
      <point x="417" y="129.882"/>
    </contour>
  </outline>
</glyph>
<glyph name="seven" format="1">
  <advance width="564"/>
  <unicode hex="0037"/>
  <outline>
    <contour>
      <point x="163" y="0" type="line"/>
      <point x="171.981" y="119.753"/>
      <point x="208.139" y="242.169"/>
      <point x="247" y="340.5" type="curve" smooth="yes"/>
      <point x="285.433" y="437.748"/>
      <point x="338.881" y="543.174"/>
      <point x="397" y="612" type="curve"/>
      <point x="60" y="612" type="line"/>
      <point x="60" y="693" type="line"/>
      <point x="501" y="693" type="line"/>
      <point x="501" y="616" type="line"/>
      <point x="446.082" y="552.761"/>
      <point x="391.731" y="453.671"/>
      <point x="352.5" y="362.5" type="curve" smooth="yes"/>
      <point x="308.77" y="260.875"/>
      <point x="268.496" y="131.687"/>
      <point x="260" y="0" type="curve"/>
    </contour>
  </outline>
</glyph>
<glyph name="eight" format="1">
  <advance width="564"/>
  <unicode hex="0038"/>
  <outline>
    <contour>
      <point x="509" y="180" type="curve"/>
      <point x="509" y="83.0312"/>
      <point x="454.647" y="24.6718"/>
      <point x="380" y="-0.5" type="curve" smooth="yes"/>
      <point x="351.333" y="-10.1667"/>
      <point x="318.333" y="-15"/>
      <point x="281" y="-15" type="curve" smooth="yes"/>
      <point x="199.674" y="-15"/>
      <point x="140.551" y="9.56048"/>
      <point x="103" y="50" type="curve" smooth="yes"/>
      <point x="74.8932" y="80.2688"/>
      <point x="55" y="123.558"/>
      <point x="55" y="175" type="curve" smooth="yes"/>
      <point x="55" y="263.065"/>
      <point x="113.418" y="320.167"/>
      <point x="169" y="354" type="curve"/>
      <point x="103.667" y="391.333"/>
      <point x="71" y="446.333"/>
      <point x="71" y="519" type="curve" smooth="yes"/>
      <point x="71" y="609.488"/>
      <point x="128.184" y="666.945"/>
      <point x="195" y="693.5" type="curve" smooth="yes"/>
      <point x="221" y="703.833"/>
      <point x="250" y="709"/>
      <point x="282" y="709" type="curve" smooth="yes"/>
      <point x="354.709" y="709"/>
      <point x="408.485" y="684.888"/>
      <point x="443.5" y="648.5" type="curve" smooth="yes"/>
      <point x="471.292" y="619.618"/>
      <point x="492" y="578.281"/>
      <point x="492" y="528" type="curve" smooth="yes"/>
      <point x="492" y="443.321"/>
      <point x="440.838" y="390.695"/>
      <point x="389" y="357" type="curve"/>
      <point x="467.667" y="319.667"/>
      <point x="507.667" y="260.667"/>
    </contour>
    <contour>
      <point x="243" y="324" type="curve"/>
      <point x="190.312" y="294.729"/>
      <point x="149" y="250.271"/>
      <point x="149" y="174" type="curve" smooth="yes"/>
      <point x="149" y="121.502"/>
      <point x="180.295" y="90.0303"/>
      <point x="219" y="73" type="curve" smooth="yes"/>
      <point x="235.667" y="65.6667"/>
      <point x="256.667" y="62"/>
      <point x="282" y="62" type="curve" smooth="yes"/>
      <point x="344.742" y="62"/>
      <point x="389.398" y="88.9948"/>
      <point x="407" y="133" type="curve" smooth="yes"/>
      <point x="412.333" y="146.333"/>
      <point x="415" y="160"/>
      <point x="415" y="174" type="curve" smooth="yes"/>
      <point x="415" y="274.25"/>
      <point x="326.562" y="305.198"/>
    </contour>
    <contour>
      <point x="399" y="529" type="curve" smooth="yes"/>
      <point x="399" y="574.548"/>
      <point x="368.97" y="605.764"/>
      <point x="336" y="621.5" type="curve" smooth="yes"/>
      <point x="321.333" y="628.5"/>
      <point x="303.333" y="632"/>
      <point x="282" y="632" type="curve" smooth="yes"/>
      <point x="223.842" y="632"/>
      <point x="185.282" y="604.571"/>
      <point x="170.5" y="562.5" type="curve" smooth="yes"/>
      <point x="166.167" y="550.167"/>
      <point x="164" y="538"/>
      <point x="164" y="526" type="curve" smooth="yes"/>
      <point x="164" y="465.845"/>
      <point x="200.01" y="429.631"/>
      <point x="241.5" y="407" type="curve" smooth="yes"/>
      <point x="259.833" y="397"/>
      <point x="281.667" y="389"/>
      <point x="307" y="383" type="curve"/>
      <point x="335" y="399.667"/>
      <point x="357.333" y="419.167"/>
      <point x="374" y="441.5" type="curve" smooth="yes"/>
      <point x="390.667" y="463.833"/>
      <point x="399" y="493"/>
    </contour>
  </outline>
</glyph>
<glyph name="nine" format="1">
  <advance width="564"/>
  <unicode hex="0039"/>
  <outline>
    <contour>
      <point x="394" y="298" type="curve"/>
      <point x="360.877" y="282.712"/>
      <point x="314.726" y="271"/>
      <point x="267" y="271" type="curve" smooth="yes"/>
      <point x="128.571" y="271"/>
      <point x="51" y="348.079"/>
      <point x="51" y="484" type="curve" smooth="yes"/>
      <point x="51" y="543.702"/>
      <point x="74.1379" y="597.436"/>
      <point x="103.5" y="634" type="curve" smooth="yes"/>
      <point x="137.794" y="676.705"/>
      <point x="191.8" y="709"/>
      <point x="268" y="709" type="curve" smooth="yes"/>
      <point x="434.571" y="709"/>
      <point x="501" y="583.702"/>
      <point x="501" y="416" type="curve" smooth="yes"/>
      <point x="501" y="142.988"/>
      <point x="364.776" y="-0.659523"/>
      <point x="94" y="-2" type="curve"/>
      <point x="91" y="76" type="line"/>
      <point x="268.944" y="76"/>
      <point x="364.525" y="148.17"/>
    </contour>
    <contour>
      <point x="147" y="486" type="curve" smooth="yes"/>
      <point x="147" y="397.002"/>
      <point x="188.844" y="347"/>
      <point x="277" y="347" type="curve" smooth="yes"/>
      <point x="327.26" y="347"/>
      <point x="366.79" y="356.768"/>
      <point x="403" y="373" type="curve"/>
      <point x="403.667" y="380.333"/>
      <point x="404" y="387.5"/>
      <point x="404" y="394.5" type="curve" smooth="yes"/>
      <point x="404" y="416" type="line" smooth="yes"/>
      <point x="404" y="504.627"/>
      <point x="387.887" y="578.903"/>
      <point x="335" y="614.5" type="curve" smooth="yes"/>
      <point x="317.667" y="626.167"/>
      <point x="295.667" y="632"/>
      <point x="269" y="632" type="curve" smooth="yes"/>
      <point x="188.554" y="632"/>
      <point x="147" y="564.97"/>
    </contour>
  </outline>
</glyph>
<glyph name="equal" format="1">
  <advance width="564"/>
  <unicode hex="003D"/>
  <outline>
    <contour>
      <point x="53" y="232" type="line"/>
      <point x="511" y="232" type="line"/>
      <point x="511" y="153" type="line"/>
      <point x="53" y="153" type="line"/>
    </contour>
    <contour>
      <point x="53" y="445" type="line"/>
      <point x="511" y="445" type="line"/>
      <point x="511" y="366" type="line"/>
      <point x="53" y="366" type="line"/>
    </contour>
  </outline>
</glyph>
<glyph name="question" format="1">
  <advance width="404"/>
  <unicode hex="003F"/>
  <outline>
    <contour>
      <point x="280" y="536" type="curve" smooth="yes"/>
      <point x="280" y="596.705"/>
      <point x="237.875" y="631"/>
      <point x="174" y="631" type="curve" smooth="yes"/>
      <point x="130" y="631"/>
      <point x="87" y="619.667"/>
      <point x="45" y="597" type="curve"/>
      <point x="19" y="669" type="line"/>
      <point x="62.6205" y="692.093"/>
      <point x="120.316" y="709"/>
      <point x="186" y="709" type="curve" smooth="yes"/>
      <point x="256.859" y="709"/>
      <point x="305.678" y="689.261"/>
      <point x="338" y="654" type="curve" smooth="yes"/>
      <point x="362.351" y="627.436"/>
      <point x="377" y="589.457"/>
      <point x="377" y="544" type="curve" smooth="yes"/>
      <point x="377" y="495.249"/>
      <point x="355.17" y="462.047"/>
      <point x="332" y="434" type="curve" smooth="yes"/>
      <point x="293.977" y="387.972"/>
      <point x="243.61" y="353.782"/>
      <point x="216" y="297.5" type="curve" smooth="yes"/>
      <point x="207.333" y="279.833"/>
      <point x="203" y="260"/>
      <point x="203" y="238" type="curve" smooth="yes"/>
      <point x="203" y="227" type="line" smooth="yes"/>
      <point x="203" y="223"/>
      <point x="203.333" y="219.333"/>
      <point x="204" y="216" type="curve"/>
      <point x="126" y="216" type="line"/>
      <point x="123.333" y="229.333"/>
      <point x="122" y="243.333"/>
      <point x="122" y="258" type="curve" smooth="yes"/>
      <point x="122" y="304.391"/>
      <point x="141.221" y="337.277"/>
      <point x="163" y="364.5" type="curve" smooth="yes"/>
      <point x="196.65" y="406.563"/>
      <point x="242.996" y="439.21"/>
      <point x="268.5" y="488" type="curve" smooth="yes"/>
      <point x="276.167" y="502.667"/>
      <point x="280" y="518.667"/>
    </contour>
    <contour>
      <point x="170" y="121" type="curve" smooth="yes"/>
      <point x="209.13" y="121"/>
      <point x="237" y="91.8126"/>
      <point x="237" y="54" type="curve" smooth="yes"/>
      <point x="237" y="16.1958"/>
      <point x="209.12" y="-13"/>
      <point x="170" y="-13" type="curve" smooth="yes"/>
      <point x="130.87" y="-13"/>
      <point x="103" y="16.1874"/>
      <point x="103" y="54" type="curve" smooth="yes"/>
      <point x="103" y="91.8042"/>
      <point x="130.88" y="121"/>
    </contour>
  </outline>
</glyph>
<glyph name="at" format="1">
  <advance width="950"/>
  <unicode hex="0040"/>
  <outline>
    <contour>
      <point x="656" y="-133" type="line"/>
      <point x="622.245" y="-144.913"/>
      <point x="550.609" y="-153"/>
      <point x="499" y="-153" type="curve" smooth="yes"/>
      <point x="295.332" y="-153"/>
      <point x="161.503" y="-61.9699"/>
      <point x="99.5" y="84.5" type="curve" smooth="yes"/>
      <point x="76.5" y="138.833"/>
      <point x="65" y="203.333"/>
      <point x="65" y="278" type="curve" smooth="yes"/>
      <point x="65" y="423.286"/>
      <point x="114.922" y="531.18"/>
      <point x="190.5" y="601.5" type="curve" smooth="yes"/>
      <point x="259.146" y="665.371"/>
      <point x="358.178" y="709"/>
      <point x="483" y="709" type="curve" smooth="yes"/>
      <point x="603.28" y="709"/>
      <point x="699.867" y="666.223"/>
      <point x="766" y="605.5" type="curve" smooth="yes"/>
      <point x="834.455" y="542.646"/>
      <point x="885" y="449.026"/>
      <point x="885" y="322" type="curve" smooth="yes"/>
      <point x="885" y="234.712"/>
      <point x="864.078" y="163.76"/>
      <point x="828" y="114.5" type="curve" smooth="yes"/>
      <point x="798.715" y="74.5148"/>
      <point x="753.004" y="43"/>
      <point x="690" y="43" type="curve" smooth="yes"/>
      <point x="648.629" y="43"/>
      <point x="621.527" y="55.0787"/>
      <point x="602" y="76" type="curve"/>
      <point x="574.44" y="60.9672"/>
      <point x="529.08" y="47"/>
      <point x="487" y="47" type="curve" smooth="yes"/>
      <point x="381.006" y="47"/>
      <point x="315.288" y="100.288"/>
      <point x="286" y="179" type="curve" smooth="yes"/>
      <point x="275.333" y="207.667"/>
      <point x="270" y="241"/>
      <point x="270" y="279" type="curve" smooth="yes"/>
      <point x="270" y="387.775"/>
      <point x="323.554" y="459.987"/>
      <point x="401.5" y="493" type="curve" smooth="yes"/>
      <point x="429.833" y="505"/>
      <point x="462" y="511"/>
      <point x="498" y="511" type="curve" smooth="yes"/>
      <point x="554.99" y="511"/>
      <point x="618.601" y="500.356"/>
      <point x="657" y="487" type="curve"/>
      <point x="657" y="181" type="line" smooth="yes"/>
      <point x="657" y="146.21"/>
      <point x="666.949" y="123"/>
      <point x="697" y="123" type="curve" smooth="yes"/>
      <point x="737.523" y="123"/>
      <point x="760.99" y="156.658"/>
      <point x="774.5" y="188" type="curve" smooth="yes"/>
      <point x="790.415" y="224.923"/>
      <point x="799" y="275.97"/>
      <point x="799" y="328" type="curve" smooth="yes"/>
      <point x="799" y="421.176"/>
      <point x="762.825" y="493.984"/>
      <point x="714" y="544" type="curve" smooth="yes"/>
      <point x="662.318" y="596.943"/>
      <point x="584.903" y="634"/>
      <point x="483" y="634" type="curve" smooth="yes"/>
      <point x="378.084" y="634"/>
      <point x="297.849" y="595.184"/>
      <point x="244" y="539.5" type="curve" smooth="yes"/>
      <point x="186.99" y="480.547"/>
      <point x="151" y="392.521"/>
      <point x="151" y="278" type="curve" smooth="yes"/>
      <point x="151" y="103.021"/>
      <point x="230.579" y="-8.81949"/>
      <point x="359.5" y="-54.5" type="curve" smooth="yes"/>
      <point x="401.833" y="-69.5"/>
      <point x="448.333" y="-77"/>
      <point x="499" y="-77" type="curve" smooth="yes"/>
      <point x="555.556" y="-77"/>
      <point x="611.794" y="-71.4384"/>
      <point x="646" y="-59" type="curve"/>
    </contour>
    <contour>
      <point x="364" y="279" type="curve" smooth="yes"/>
      <point x="364" y="192.106"/>
      <point x="406.802" y="124"/>
      <point x="490" y="124" type="curve" smooth="yes"/>
      <point x="520.257" y="124"/>
      <point x="550.42" y="131.105"/>
      <point x="571" y="142" type="curve"/>
      <point x="567.401" y="157.595"/>
      <point x="566" y="174.909"/>
      <point x="566" y="193" type="curve" smooth="yes"/>
      <point x="566" y="428" type="line"/>
      <point x="552.642" y="432.453"/>
      <point x="525.455" y="434"/>
      <point x="505" y="434" type="curve" smooth="yes"/>
      <point x="412.249" y="434"/>
      <point x="364" y="370.006"/>
    </contour>
  </outline>
</glyph>
<glyph name="A" format="1">
  <advance width="663"/>
  <unicode hex="0041"/>
  <outline>
    <contour>
      <point x="8" y="0" type="line"/>
      <point x="96.6372" y="243.752"/>
      <point x="181.009" y="472.186"/>
      <point x="287" y="693" type="curve"/>
      <point x="376" y="693" type="line"/>
      <point x="481.888" y="472.4"/>
      <point x="566.553" y="243.23"/>
      <point x="655" y="0" type="curve"/>
      <point x="549" y="0" type="line"/>
      <point x="526.331" y="60.0055"/>
      <point x="507.607" y="116.229"/>
      <point x="486" y="177" type="curve"/>
      <point x="172" y="177" type="line"/>
      <point x="109" y="0" type="line"/>
    </contour>
    <contour>
      <point x="458" y="257" type="line"/>
      <point x="416.727" y="369.212"/>
      <point x="375.992" y="478.341"/>
      <point x="329" y="582" type="curve"/>
      <point x="280.997" y="479.137"/>
      <point x="240.229" y="369.902"/>
      <point x="200" y="257" type="curve"/>
    </contour>
  </outline>
</glyph>
<glyph name="B" format="1">
  <advance width="643"/>
  <unicode hex="0042"/>
  <outline>
    <contour>
      <point x="459" y="370" type="curve"/>
      <point x="536.539" y="347.12"/>
      <point x="592" y="301.422"/>
      <point x="592" y="203" type="curve" smooth="yes"/>
      <point x="592" y="133.667"/>
      <point x="566.5" y="81.5"/>
      <point x="515.5" y="46.5" type="curve" smooth="yes"/>
      <point x="464.5" y="11.5"/>
      <point x="383.667" y="-6"/>
      <point x="273" y="-6" type="curve" smooth="yes"/>
      <point x="208.075" y="-6"/>
      <point x="139.502" y="-2.37559"/>
      <point x="86" y="11" type="curve"/>
      <point x="86" y="683" type="line"/>
      <point x="139.274" y="696.318"/>
      <point x="207.464" y="700"/>
      <point x="272" y="700" type="curve" smooth="yes"/>
      <point x="391.048" y="700"/>
      <point x="490.287" y="676.725"/>
      <point x="536" y="604" type="curve" smooth="yes"/>
      <point x="550.667" y="580.667"/>
      <point x="558" y="552"/>
      <point x="558" y="518" type="curve" smooth="yes"/>
      <point x="558" y="439.264"/>
      <point x="516.306" y="392.922"/>
    </contour>
    <contour>
      <point x="492" y="202" type="curve" smooth="yes"/>
      <point x="492" y="301.328"/>
      <point x="407.437" y="323"/>
      <point x="307" y="323" type="curve" smooth="yes"/>
      <point x="182" y="323" type="line"/>
      <point x="182" y="79" type="line"/>
      <point x="212.192" y="76.2553"/>
      <point x="243.403" y="75"/>
      <point x="279" y="75" type="curve" smooth="yes"/>
      <point x="365.138" y="75"/>
      <point x="439.103" y="88.4331"/>
      <point x="474.5" y="139" type="curve" smooth="yes"/>
      <point x="486.167" y="155.667"/>
      <point x="492" y="176.667"/>
    </contour>
    <contour>
      <point x="278" y="619" type="curve" smooth="yes"/>
      <point x="236.155" y="619"/>
      <point x="214.227" y="618.791"/>
      <point x="182" y="615" type="curve"/>
      <point x="182" y="401" type="line"/>
      <point x="284" y="401" type="line" smooth="yes"/>
      <point x="356.488" y="401"/>
      <point x="416.298" y="414.129"/>
      <point x="444.5" y="458" type="curve" smooth="yes"/>
      <point x="453.5" y="472"/>
      <point x="458" y="489.667"/>
      <point x="458" y="511" type="curve" smooth="yes"/>
      <point x="458" y="598.679"/>
      <point x="366.138" y="619"/>
    </contour>
  </outline>
</glyph>
<glyph name="D" format="1">
  <advance width="713"/>
  <unicode hex="0044"/>
  <outline>
    <contour>
      <point x="86" y="683" type="line"/>
      <point x="135.105" y="694.977"/>
      <point x="210.711" y="700"/>
      <point x="270" y="700" type="curve" smooth="yes"/>
      <point x="449.779" y="700"/>
      <point x="573.218" y="631.233"/>
      <point x="627" y="503.5" type="curve" smooth="yes"/>
      <point x="645.667" y="459.167"/>
      <point x="655" y="407"/>
      <point x="655" y="347" type="curve" smooth="yes"/>
      <point x="655" y="164.513"/>
      <point x="566.354" y="58.0016"/>
      <point x="426" y="15.5" type="curve" smooth="yes"/>
      <point x="378.667" y="1.16667"/>
      <point x="326.667" y="-6"/>
      <point x="270" y="-6" type="curve" smooth="yes"/>
      <point x="210.778" y="-6"/>
      <point x="135.023" y="-0.956785"/>
      <point x="86" y="11" type="curve"/>
    </contour>
    <contour>
      <point x="183" y="82" type="line"/>
      <point x="210.976" y="78.8916"/>
      <point x="237.87" y="79"/>
      <point x="278" y="79" type="curve" smooth="yes"/>
      <point x="456.39" y="79"/>
      <point x="552" y="172.369"/>
      <point x="552" y="347" type="curve" smooth="yes"/>
      <point x="552" y="521.612"/>
      <point x="456.37" y="615"/>
      <point x="278" y="615" type="curve" smooth="yes"/>
      <point x="237.68" y="615"/>
      <point x="211.212" y="615.135"/>
      <point x="183" y="612" type="curve"/>
    </contour>
  </outline>
</glyph>
<glyph name="G" format="1">
  <advance width="672"/>
  <unicode hex="0047"/>
  <outline>
    <contour>
      <point x="395" y="70" type="curve" smooth="yes"/>
      <point x="438.214" y="70"/>
      <point x="480.702" y="74.2928"/>
      <point x="509" y="83" type="curve"/>
      <point x="509" y="341" type="line"/>
      <point x="606" y="341" type="line"/>
      <point x="606" y="17" type="line"/>
      <point x="563.876" y="2.95867"/>
      <point x="508.094" y="-5.19059"/>
      <point x="455" y="-10.5" type="curve" smooth="yes"/>
      <point x="431.667" y="-12.8333"/>
      <point x="408" y="-14"/>
      <point x="384" y="-14" type="curve" smooth="yes"/>
      <point x="222.343" y="-14"/>
      <point x="124.296" y="70.9857"/>
      <point x="81.5" y="193" type="curve" smooth="yes"/>
      <point x="65.8333" y="237.667"/>
      <point x="58" y="289"/>
      <point x="58" y="347" type="curve" smooth="yes"/>
      <point x="58" y="519.273"/>
      <point x="138.579" y="636.238"/>
      <point x="261.5" y="685" type="curve" smooth="yes"/>
      <point x="301.833" y="701"/>
      <point x="345" y="709"/>
      <point x="391" y="709" type="curve" smooth="yes"/>
      <point x="476.111" y="709"/>
      <point x="552.155" y="694.23"/>
      <point x="602" y="661" type="curve"/>
      <point x="571" y="580" type="line"/>
      <point x="532.676" y="605.109"/>
      <point x="460.398" y="624"/>
      <point x="396" y="624" type="curve" smooth="yes"/>
      <point x="276.141" y="624"/>
      <point x="208.426" y="554.674"/>
      <point x="178" y="462.5" type="curve" smooth="yes"/>
      <point x="166.667" y="428.167"/>
      <point x="161" y="389.667"/>
      <point x="161" y="347" type="curve" smooth="yes"/>
      <point x="161" y="220.11"/>
      <point x="205.387" y="130.052"/>
      <point x="292.5" y="90" type="curve" smooth="yes"/>
      <point x="321.5" y="76.6667"/>
      <point x="355.667" y="70"/>
    </contour>
  </outline>
</glyph>
<glyph name="J" format="1">
  <advance width="500"/>
  <unicode hex="004A"/>
  <outline>
    <contour>
      <point x="184" y="70" type="curve" smooth="yes"/>
      <point x="288.112" y="70"/>
      <point x="322" y="121.922"/>
      <point x="322" y="232" type="curve" smooth="yes"/>
      <point x="322" y="693" type="line"/>
      <point x="419" y="693" type="line"/>
      <point x="419" y="223" type="line" smooth="yes"/>
      <point x="419" y="67.0565"/>
      <point x="347.401" y="-15"/>
      <point x="189" y="-15" type="curve" smooth="yes"/>
      <point x="126.236" y="-15"/>
      <point x="74.6696" y="0.331713"/>
      <point x="35" y="22.5" type="curve" smooth="yes"/>
      <point x="23.6667" y="28.8333"/>
      <point x="14.6667" y="35"/>
      <point x="8" y="41" type="curve"/>
      <point x="46" y="118" type="line"/>
      <point x="78.9727" y="94.4481"/>
      <point x="123.168" y="70"/>
    </contour>
  </outline>
</glyph>
<glyph name="K" format="1">
  <advance width="629"/>
  <unicode hex="004B"/>
  <outline>
    <contour>
      <point x="599" y="693" type="line"/>
      <point x="500.731" y="585.221"/>
      <point x="388.682" y="470.853"/>
      <point x="284" y="369" type="curve"/>
      <point x="347.729" y="324.538"/>
      <point x="414.195" y="260.571"/>
      <point x="469" y="201" type="curve" smooth="yes"/>
      <point x="524.134" y="141.072"/>
      <point x="583.189" y="69.3007"/>
      <point x="623" y="0" type="curve"/>
      <point x="509" y="0" type="line"/>
      <point x="445.535" y="99.4288"/>
      <point x="358.741" y="191.799"/>
      <point x="269.5" y="266" type="curve" smooth="yes"/>
      <point x="239.833" y="290.667"/>
      <point x="211" y="311.667"/>
      <point x="183" y="329" type="curve"/>
      <point x="183" y="0" type="line"/>
      <point x="86" y="0" type="line"/>
      <point x="86" y="693" type="line"/>
      <point x="183" y="693" type="line"/>
      <point x="183" y="387" type="line"/>
      <point x="260.686" y="460.247"/>
      <point x="346.793" y="547.754"/>
      <point x="420.5" y="625.5" type="curve" smooth="yes"/>
      <point x="444.833" y="651.167"/>
      <point x="465.333" y="673.667"/>
      <point x="482" y="693" type="curve"/>
    </contour>
  </outline>
</glyph>
<glyph name="M" format="1">
  <advance width="871"/>
  <unicode hex="004D"/>
  <outline>
    <contour>
      <point x="436" y="213" type="curve"/>
      <point x="506.493" y="371.609"/>
      <point x="581.903" y="551.064"/>
      <point x="669" y="693" type="curve"/>
      <point x="754" y="693" type="line"/>
      <point x="776.667" y="469.667"/>
      <point x="793.667" y="238.667"/>
      <point x="805" y="0" type="curve"/>
      <point x="710" y="0" type="line"/>
      <point x="703.687" y="176.775"/>
      <point x="695.239" y="369.528"/>
      <point x="680" y="533" type="curve"/>
      <point x="644.128" y="472.017"/>
      <point x="610.326" y="394.969"/>
      <point x="577.5" y="325.5" type="curve" smooth="yes"/>
      <point x="542.099" y="250.582"/>
      <point x="505.86" y="170.065"/>
      <point x="475" y="96" type="curve"/>
      <point x="397" y="96" type="line"/>
      <point x="354.402" y="198.234"/>
      <point x="300.974" y="311.37"/>
      <point x="254" y="411.5" type="curve" smooth="yes"/>
      <point x="234.136" y="453.841"/>
      <point x="211.936" y="499.109"/>
      <point x="192" y="533" type="curve"/>
      <point x="176.772" y="369.643"/>
      <point x="168.309" y="176.638"/>
      <point x="162" y="0" type="curve"/>
      <point x="67" y="0" type="line"/>
      <point x="77.4773" y="235.738"/>
      <point x="91.6888" y="473.74"/>
      <point x="118" y="693" type="curve"/>
      <point x="203" y="693" type="line"/>
      <point x="290.146" y="550.985"/>
      <point x="365.647" y="371.294"/>
    </contour>
  </outline>
</glyph>
<glyph name="N" format="1">
  <advance width="728"/>
  <unicode hex="004E"/>
  <outline>
    <contour>
      <point x="561" y="0" type="line"/>
      <point x="465.529" y="160.564"/>
      <point x="355.087" y="323.072"/>
      <point x="242" y="467" type="curve" smooth="yes"/>
      <point x="220" y="495"/>
      <point x="199.667" y="519.667"/>
      <point x="181" y="541" type="curve"/>
      <point x="181" y="0" type="line"/>
      <point x="86" y="0" type="line"/>
      <point x="86" y="693" type="line"/>
      <point x="163" y="693" type="line"/>
      <point x="231.498" y="620.129"/>
      <point x="306.206" y="524.495"/>
      <point x="369.5" y="439.5" type="curve" smooth="yes"/>
      <point x="430.25" y="357.921"/>
      <point x="497.241" y="262.414"/>
      <point x="547" y="180" type="curve"/>
      <point x="547" y="693" type="line"/>
      <point x="642" y="693" type="line"/>
      <point x="642" y="0" type="line"/>
    </contour>
  </outline>
</glyph>
<glyph name="O" format="1">
  <advance width="778"/>
  <unicode hex="004F"/>
  <outline>
    <contour>
      <point x="58" y="347" type="curve" smooth="yes"/>
      <point x="58" y="521.123"/>
      <point x="137.143" y="638.344"/>
      <point x="262.5" y="686" type="curve" smooth="yes"/>
      <point x="302.833" y="701.333"/>
      <point x="345.667" y="709"/>
      <point x="391" y="709" type="curve" smooth="yes"/>
      <point x="549.405" y="709"/>
      <point x="647.702" y="621.519"/>
      <point x="693.5" y="504" type="curve" smooth="yes"/>
      <point x="711.167" y="458.667"/>
      <point x="720" y="406.333"/>
      <point x="720" y="347" type="curve" smooth="yes"/>
      <point x="720" y="173.843"/>
      <point x="641.462" y="55.9181"/>
      <point x="517.5" y="8" type="curve" smooth="yes"/>
      <point x="477.833" y="-7.33333"/>
      <point x="435.667" y="-15"/>
      <point x="391" y="-15" type="curve" smooth="yes"/>
      <point x="231.077" y="-15"/>
      <point x="130.67" y="71.5262"/>
      <point x="84.5" y="190" type="curve" smooth="yes"/>
      <point x="66.8333" y="235.333"/>
      <point x="58" y="287.667"/>
    </contour>
    <contour>
      <point x="160" y="347" type="curve" smooth="yes"/>
      <point x="160" y="221.082"/>
      <point x="207.268" y="129.065"/>
      <point x="293.5" y="89.5" type="curve" smooth="yes"/>
      <point x="321.833" y="76.5"/>
      <point x="353.667" y="70"/>
      <point x="389" y="70" type="curve" smooth="yes"/>
      <point x="506.853" y="70"/>
      <point x="572.445" y="140.59"/>
      <point x="601" y="232.5" type="curve" smooth="yes"/>
      <point x="611.667" y="266.833"/>
      <point x="617" y="305"/>
      <point x="617" y="347" type="curve" smooth="yes"/>
      <point x="617" y="472.72"/>
      <point x="569.71" y="564.706"/>
      <point x="484" y="604.5" type="curve" smooth="yes"/>
      <point x="456" y="617.5"/>
      <point x="424.333" y="624"/>
      <point x="389" y="624" type="curve" smooth="yes"/>
      <point x="270.717" y="624"/>
      <point x="204.651" y="553.72"/>
      <point x="176" y="461.5" type="curve" smooth="yes"/>
      <point x="165.333" y="427.167"/>
      <point x="160" y="389"/>
    </contour>
  </outline>
</glyph>
<glyph name="P" format="1">
  <advance width="608"/>
  <unicode hex="0050"/>
  <outline>
    <contour>
      <point x="86" y="683" type="line"/>
      <point x="135.105" y="694.977"/>
      <point x="210.711" y="700"/>
      <point x="270" y="700" type="curve" smooth="yes"/>
      <point x="443.199" y="700"/>
      <point x="573" y="641.429"/>
      <point x="573" y="479" type="curve" smooth="yes"/>
      <point x="573" y="304.746"/>
      <point x="436.241" y="257"/>
      <point x="260" y="257" type="curve" smooth="yes"/>
      <point x="183" y="257" type="line"/>
      <point x="183" y="0" type="line"/>
      <point x="86" y="0" type="line"/>
    </contour>
    <contour>
      <point x="471" y="480" type="curve" smooth="yes"/>
      <point x="471" y="586.359"/>
      <point x="384.402" y="615"/>
      <point x="278" y="615" type="curve" smooth="yes"/>
      <point x="236.667" y="615"/>
      <point x="205" y="614"/>
      <point x="183" y="612" type="curve"/>
      <point x="183" y="340" type="line"/>
      <point x="256" y="340" type="line" smooth="yes"/>
      <point x="375.377" y="340"/>
      <point x="471" y="361.579"/>
    </contour>
  </outline>
</glyph>
<glyph name="Q" format="1">
  <advance width="778"/>
  <unicode hex="0051"/>
  <outline>
    <contour>
      <point x="58" y="347" type="curve" smooth="yes"/>
      <point x="58" y="521.123"/>
      <point x="137.143" y="638.344"/>
      <point x="262.5" y="686" type="curve" smooth="yes"/>
      <point x="302.833" y="701.333"/>
      <point x="345.667" y="709"/>
      <point x="391" y="709" type="curve" smooth="yes"/>
      <point x="549.405" y="709"/>
      <point x="647.702" y="621.519"/>
      <point x="693.5" y="504" type="curve" smooth="yes"/>
      <point x="711.167" y="458.667"/>
      <point x="720" y="406.333"/>
      <point x="720" y="347" type="curve" smooth="yes"/>
      <point x="720" y="192.897"/>
      <point x="658.857" y="86.8645"/>
      <point x="561.5" y="30.5" type="curve" smooth="yes"/>
      <point x="529.833" y="12.1667"/>
      <point x="496" y="-0.333333"/>
      <point x="460" y="-7" type="curve"/>
      <point x="461.599" y="-43.7859"/>
      <point x="499.001" y="-64.6005"/>
      <point x="530" y="-77" type="curve" smooth="yes"/>
      <point x="569.029" y="-92.6118"/>
      <point x="621.823" y="-103.684"/>
      <point x="671" y="-109" type="curve"/>
      <point x="648" y="-185" type="line"/>
      <point x="518.025" y="-167.503"/>
      <point x="387.921" y="-135.835"/>
      <point x="363" y="-14" type="curve"/>
      <point x="217.185" y="-4.74192"/>
      <point x="124.838" y="80.9806"/>
      <point x="82" y="197" type="curve" smooth="yes"/>
      <point x="66" y="240.333"/>
      <point x="58" y="290.333"/>
    </contour>
    <contour>
      <point x="160" y="347" type="curve" smooth="yes"/>
      <point x="160" y="221.082"/>
      <point x="207.268" y="129.065"/>
      <point x="293.5" y="89.5" type="curve" smooth="yes"/>
      <point x="321.833" y="76.5"/>
      <point x="353.667" y="70"/>
      <point x="389" y="70" type="curve" smooth="yes"/>
      <point x="506.853" y="70"/>
      <point x="572.445" y="140.59"/>
      <point x="601" y="232.5" type="curve" smooth="yes"/>
      <point x="611.667" y="266.833"/>
      <point x="617" y="305"/>
      <point x="617" y="347" type="curve" smooth="yes"/>
      <point x="617" y="472.72"/>
      <point x="569.71" y="564.706"/>
      <point x="484" y="604.5" type="curve" smooth="yes"/>
      <point x="456" y="617.5"/>
      <point x="424.333" y="624"/>
      <point x="389" y="624" type="curve" smooth="yes"/>
      <point x="270.717" y="624"/>
      <point x="204.651" y="553.72"/>
      <point x="176" y="461.5" type="curve" smooth="yes"/>
      <point x="165.333" y="427.167"/>
      <point x="160" y="389"/>
    </contour>
  </outline>
</glyph>
<glyph name="R" format="1">
  <advance width="629"/>
  <unicode hex="0052"/>
  <outline>
    <contour>
      <point x="569" y="481" type="curve" smooth="yes"/>
      <point x="569" y="377.305"/>
      <point x="508.26" y="318.144"/>
      <point x="425" y="290" type="curve"/>
      <point x="473.54" y="229.325"/>
      <point x="525.061" y="154.564"/>
      <point x="567.5" y="83" type="curve" smooth="yes"/>
      <point x="584.5" y="54.3333"/>
      <point x="599" y="26.6667"/>
      <point x="611" y="0" type="curve"/>
      <point x="505" y="0" type="line"/>
      <point x="453.937" y="97.02"/>
      <point x="390.127" y="191.952"/>
      <point x="324" y="272" type="curve"/>
      <point x="315.333" y="271.333"/>
      <point x="306.5" y="271"/>
      <point x="297.5" y="271" type="curve" smooth="yes"/>
      <point x="183" y="271" type="line"/>
      <point x="183" y="0" type="line"/>
      <point x="86" y="0" type="line"/>
      <point x="86" y="683" type="line"/>
      <point x="135.105" y="694.977"/>
      <point x="210.711" y="700"/>
      <point x="270" y="700" type="curve" smooth="yes"/>
      <point x="442.844" y="700"/>
      <point x="569" y="642.578"/>
    </contour>
    <contour>
      <point x="467" y="482" type="curve" smooth="yes"/>
      <point x="467" y="587.099"/>
      <point x="383.238" y="615"/>
      <point x="278" y="615" type="curve" smooth="yes"/>
      <point x="236.667" y="615"/>
      <point x="205" y="614"/>
      <point x="183" y="612" type="curve"/>
      <point x="183" y="351" type="line"/>
      <point x="252" y="351" type="line" smooth="yes"/>
      <point x="370.358" y="351"/>
      <point x="467" y="364.469"/>
    </contour>
  </outline>
</glyph>
<glyph name="S" format="1">
  <advance width="532"/>
  <unicode hex="0053"/>
  <outline>
    <contour>
      <point x="501" y="174" type="curve" smooth="yes"/>
      <point x="501" y="39.4363"/>
      <point x="390.392" y="-15"/>
      <point x="247" y="-15" type="curve" smooth="yes"/>
      <point x="160.381" y="-15"/>
      <point x="87.9899" y="4.00552"/>
      <point x="33" y="34" type="curve"/>
      <point x="62" y="114" type="line"/>
      <point x="77.3333" y="105.333"/>
      <point x="100.667" y="95.6667"/>
      <point x="132" y="85" type="curve" smooth="yes"/>
      <point x="163.333" y="74.3333"/>
      <point x="201.667" y="69"/>
      <point x="247" y="69" type="curve" smooth="yes"/>
      <point x="348.333" y="69"/>
      <point x="399" y="103.667"/>
      <point x="399" y="173" type="curve" smooth="yes"/>
      <point x="399" y="242.922"/>
      <point x="347.41" y="274.291"/>
      <point x="296.5" y="295" type="curve" smooth="yes"/>
      <point x="206.492" y="331.613"/>
      <point x="103.664" y="355.132"/>
      <point x="63.5" y="441" type="curve" smooth="yes"/>
      <point x="53.8333" y="461.667"/>
      <point x="49" y="486.667"/>
      <point x="49" y="516" type="curve" smooth="yes"/>
      <point x="49" y="645.542"/>
      <point x="147.271" y="709"/>
      <point x="282" y="709" type="curve" smooth="yes"/>
      <point x="352.699" y="709"/>
      <point x="433.013" y="691.991"/>
      <point x="472" y="666" type="curve"/>
      <point x="441" y="587" type="line"/>
      <point x="406.044" y="608.639"/>
      <point x="344.213" y="625"/>
      <point x="282" y="625" type="curve" smooth="yes"/>
      <point x="224.818" y="625"/>
      <point x="180.287" y="607.124"/>
      <point x="159.5" y="570.5" type="curve" smooth="yes"/>
      <point x="152.5" y="558.167"/>
      <point x="149" y="543.667"/>
      <point x="149" y="527" type="curve" smooth="yes"/>
      <point x="149" y="464.844"/>
      <point x="193.377" y="439.98"/>
      <point x="237.5" y="420" type="curve" smooth="yes"/>
      <point x="355" y="366.792"/>
      <point x="501" y="342.692"/>
    </contour>
  </outline>
</glyph>
<glyph name="U" format="1">
  <advance width="688"/>
  <unicode hex="0055"/>
  <outline>
    <contour>
      <point x="344" y="71" type="curve" smooth="yes"/>
      <point x="460.723" y="71"/>
      <point x="510" y="149.85"/>
      <point x="510" y="269" type="curve" smooth="yes"/>
      <point x="510" y="693" type="line"/>
      <point x="607" y="693" type="line"/>
      <point x="607" y="258" type="line" smooth="yes"/>
      <point x="607" y="129.142"/>
      <point x="553.509" y="45.0342"/>
      <point x="461.5" y="6" type="curve" smooth="yes"/>
      <point x="428.5" y="-8"/>
      <point x="389.333" y="-15"/>
      <point x="344" y="-15" type="curve" smooth="yes"/>
      <point x="172.105" y="-15"/>
      <point x="81" y="87.7897"/>
      <point x="81" y="258" type="curve" smooth="yes"/>
      <point x="81" y="693" type="line"/>
      <point x="178" y="693" type="line"/>
      <point x="178" y="269" type="line" smooth="yes"/>
      <point x="178" y="199.667"/>
      <point x="193.333" y="149.333"/>
      <point x="224" y="118" type="curve" smooth="yes"/>
      <point x="254.667" y="86.6667"/>
      <point x="294.667" y="71"/>
    </contour>
  </outline>
</glyph>
<glyph name="V" format="1">
  <advance width="656"/>
  <unicode hex="0056"/>
  <outline>
    <contour>
      <point x="330" y="115" type="curve"/>
      <point x="407.68" y="294.37"/>
      <point x="475.406" y="494.475"/>
      <point x="542" y="693" type="curve"/>
      <point x="646" y="693" type="line"/>
      <point x="561.364" y="448.002"/>
      <point x="474.965" y="222.717"/>
      <point x="374" y="0" type="curve"/>
      <point x="283" y="0" type="line"/>
      <point x="182.083" y="222.611"/>
      <point x="92.6056" y="447.416"/>
      <point x="10" y="693" type="curve"/>
      <point x="117" y="693" type="line"/>
      <point x="185.008" y="494.013"/>
      <point x="252.193" y="296.079"/>
    </contour>
  </outline>
</glyph>
<glyph name="W" format="1">
  <advance width="929"/>
  <unicode hex="0057"/>
  <outline>
    <contour>
      <point x="901" y="693" type="line"/>
      <point x="855.187" y="438.486"/>
      <point x="805.938" y="217.548"/>
      <point x="732" y="0" type="curve"/>
      <point x="635" y="0" type="line"/>
      <point x="572.21" y="154.12"/>
      <point x="518.479" y="299.376"/>
      <point x="465" y="470" type="curve"/>
      <point x="411.626" y="299.711"/>
      <point x="355.546" y="154.58"/>
      <point x="294" y="0" type="curve"/>
      <point x="197" y="0" type="line"/>
      <point x="121.989" y="216.541"/>
      <point x="72.6553" y="437.827"/>
      <point x="28" y="693" type="curve"/>
      <point x="130" y="693" type="line"/>
      <point x="157.218" y="541.355"/>
      <point x="187.917" y="387.723"/>
      <point x="222" y="245" type="curve" smooth="yes"/>
      <point x="232.667" y="200.333"/>
      <point x="243.667" y="159"/>
      <point x="255" y="121" type="curve"/>
      <point x="311.857" y="270.25"/>
      <point x="375.747" y="445.209"/>
      <point x="424" y="611" type="curve"/>
      <point x="508" y="611" type="line"/>
      <point x="556.296" y="445.059"/>
      <point x="622.106" y="270.346"/>
      <point x="679" y="121" type="curve"/>
      <point x="729.629" y="298.201"/>
      <point x="767.066" y="498.369"/>
      <point x="802" y="693" type="curve"/>
    </contour>
  </outline>
</glyph>
<glyph name="X" format="1">
  <advance width="631"/>
  <unicode hex="0058"/>
  <outline>
    <contour>
      <point x="23" y="0" type="line"/>
      <point x="88.209" y="127.52"/>
      <point x="171.185" y="247.34"/>
      <point x="254" y="366" type="curve"/>
      <point x="32" y="693" type="line"/>
      <point x="144" y="693" type="line"/>
      <point x="315" y="435" type="line"/>
      <point x="484" y="693" type="line"/>
      <point x="595" y="693" type="line"/>
      <point x="377" y="370" type="line"/>
      <point x="461.115" y="250.012"/>
      <point x="544.438" y="128.782"/>
      <point x="611" y="0" type="curve"/>
      <point x="502" y="0" type="line"/>
      <point x="450.517" y="102.967"/>
      <point x="381.072" y="204.9"/>
      <point x="316" y="296" type="curve"/>
      <point x="264.842" y="224.379"/>
      <point x="211.887" y="143.553"/>
      <point x="166.5" y="66.5" type="curve" smooth="yes"/>
      <point x="152.167" y="42.1667"/>
      <point x="140" y="20"/>
      <point x="130" y="0" type="curve"/>
    </contour>
  </outline>
</glyph>
<glyph name="Y" format="1">
  <advance width="598"/>
  <unicode hex="0059"/>
  <outline>
    <contour>
      <point x="592" y="693" type="line"/>
      <point x="516.403" y="553.006"/>
      <point x="434.504" y="414.845"/>
      <point x="348" y="280" type="curve"/>
      <point x="348" y="0" type="line"/>
      <point x="251" y="0" type="line"/>
      <point x="251" y="278" type="line"/>
      <point x="163.49" y="413.704"/>
      <point x="82.0444" y="552.177"/>
      <point x="6" y="693" type="curve"/>
      <point x="120" y="693" type="line"/>
      <point x="171.524" y="581.817"/>
      <point x="237.604" y="464.457"/>
      <point x="302" y="364" type="curve"/>
      <point x="365.522" y="465.117"/>
      <point x="431.455" y="582.521"/>
      <point x="484" y="693" type="curve"/>
    </contour>
  </outline>
</glyph>
<glyph name="Z" format="1">
  <advance width="573"/>
  <unicode hex="005A"/>
  <outline>
    <contour>
      <point x="526" y="616" type="line"/>
      <point x="436.021" y="514.285"/>
      <point x="346.804" y="394.583"/>
      <point x="267.5" y="278.5" type="curve" smooth="yes"/>
      <point x="224.983" y="216.265"/>
      <point x="181.916" y="147.649"/>
      <point x="146" y="83" type="curve"/>
      <point x="536" y="83" type="line"/>
      <point x="536" y="0" type="line"/>
      <point x="33" y="0" type="line"/>
      <point x="33" y="65" type="line"/>
      <point x="103.232" y="198.776"/>
      <point x="193.137" y="330.984"/>
      <point x="280.5" y="450" type="curve" smooth="yes"/>
      <point x="321.116" y="505.332"/>
      <point x="365.348" y="562.177"/>
      <point x="407" y="610" type="curve"/>
      <point x="51" y="610" type="line"/>
      <point x="51" y="693" type="line"/>
      <point x="526" y="693" type="line"/>
    </contour>
  </outline>
</glyph>
<glyph name="backslash" format="1">
  <advance width="384"/>
  <unicode hex="005C"/>
  <outline>
    <contour>
      <point x="-24" y="783" type="line"/>
      <point x="69" y="783" type="line"/>
      <point x="408" y="-185" type="line"/>
      <point x="313" y="-185" type="line"/>
    </contour>
  </outline>
</glyph>
<glyph name="underscore" format="1">
  <advance width="492"/>
  <unicode hex="005F"/>
  <outline>
    <contour>
      <point x="-4" y="-106" type="line"/>
      <point x="496" y="-106" type="line"/>
      <point x="496" y="-185" type="line"/>
      <point x="-4" y="-185" type="line"/>
    </contour>
  </outline>
</glyph>
<glyph name="grave" format="1">
  <advance width="376"/>
  <unicode hex="0060"/>
  <outline>
    <contour>
      <point x="121" y="776" type="line"/>
      <point x="249" y="622" type="line"/>
      <point x="202" y="580" type="line"/>
      <point x="61" y="717" type="line"/>
    </contour>
  </outline>
</glyph>
<glyph name="a" format="1">
  <advance width="522"/>
  <unicode hex="0061"/>
  <outline>
    <contour>
      <point x="137" y="156" type="curve" smooth="yes"/>
      <point x="137" y="86.9126"/>
      <point x="185.883" y="67"/>
      <point x="256" y="67" type="curve" smooth="yes"/>
      <point x="293.592" y="67"/>
      <point x="329.02" y="67.4165"/>
      <point x="357" y="74" type="curve"/>
      <point x="357" y="229" type="line"/>
      <point x="337.579" y="238.711"/>
      <point x="303.117" y="241"/>
      <point x="270" y="241" type="curve" smooth="yes"/>
      <point x="216.962" y="241"/>
      <point x="173.793" y="229.698"/>
      <point x="150" y="199.5" type="curve" smooth="yes"/>
      <point x="141.333" y="188.5"/>
      <point x="137" y="174"/>
    </contour>
    <contour>
      <point x="97" y="510" type="line"/>
      <point x="128.997" y="524.221"/>
      <point x="196.49" y="533"/>
      <point x="248" y="533" type="curve" smooth="yes"/>
      <point x="382.997" y="533"/>
      <point x="448" y="467.244"/>
      <point x="448" y="334" type="curve" smooth="yes"/>
      <point x="448" y="9" type="line"/>
      <point x="387.978" y="-1.00373"/>
      <point x="316.77" y="-11"/>
      <point x="245" y="-11" type="curve" smooth="yes"/>
      <point x="125.037" y="-11"/>
      <point x="43" y="34.8067"/>
      <point x="43" y="155" type="curve" smooth="yes"/>
      <point x="43" y="273.785"/>
      <point x="143.389" y="316"/>
      <point x="262" y="316" type="curve" smooth="yes"/>
      <point x="295.908" y="316"/>
      <point x="329.986" y="309.753"/>
      <point x="357" y="303" type="curve"/>
      <point x="357" y="329" type="line" smooth="yes"/>
      <point x="357" y="408.205"/>
      <point x="321.138" y="453"/>
      <point x="240" y="453" type="curve" smooth="yes"/>
      <point x="190.491" y="453"/>
      <point x="139.118" y="445.813"/>
      <point x="108" y="433" type="curve"/>
    </contour>
  </outline>
</glyph>
<glyph name="b" format="1">
  <advance width="589"/>
  <unicode hex="0062"/>
  <outline>
    <contour>
      <point x="277" y="-12" type="curve" smooth="yes"/>
      <point x="202.321" y="-12"/>
      <point x="132.93" y="0.113518"/>
      <point x="80" y="15" type="curve"/>
      <point x="80" y="760" type="line"/>
      <point x="173" y="776" type="line"/>
      <point x="173" y="497" type="line"/>
      <point x="201.278" y="515.297"/>
      <point x="252.823" y="532"/>
      <point x="304" y="532" type="curve" smooth="yes"/>
      <point x="460.83" y="532"/>
      <point x="538" y="417.075"/>
      <point x="538" y="260" type="curve" smooth="yes"/>
      <point x="538" y="93.5733"/>
      <point x="442.585" y="-12"/>
    </contour>
    <contour>
      <point x="292" y="450" type="curve" smooth="yes"/>
      <point x="245.363" y="450"/>
      <point x="197.38" y="430.078"/>
      <point x="173" y="410" type="curve"/>
      <point x="173" y="81" type="line"/>
      <point x="200.485" y="73.1472"/>
      <point x="235.266" y="70"/>
      <point x="276" y="70" type="curve" smooth="yes"/>
      <point x="383.416" y="70"/>
      <point x="441" y="147.708"/>
      <point x="441" y="260" type="curve" smooth="yes"/>
      <point x="441" y="368.925"/>
      <point x="400.708" y="450"/>
    </contour>
  </outline>
</glyph>
<glyph name="c" format="1">
  <advance width="465"/>
  <unicode hex="0063"/>
  <outline>
    <contour>
      <point x="318" y="70" type="curve" smooth="yes"/>
      <point x="360.817" y="70"/>
      <point x="405.07" y="79.3272"/>
      <point x="432" y="92" type="curve"/>
      <point x="445" y="14" type="line"/>
      <point x="421.923" y="-0.423262"/>
      <point x="381.702" y="-5.52301"/>
      <point x="347.5" y="-9.5" type="curve" smooth="yes"/>
      <point x="333.167" y="-11.1667"/>
      <point x="319.333" y="-12"/>
      <point x="306" y="-12" type="curve" smooth="yes"/>
      <point x="177.82" y="-12"/>
      <point x="98.4243" y="52.281"/>
      <point x="67" y="149.5" type="curve" smooth="yes"/>
      <point x="56.3333" y="182.5"/>
      <point x="51" y="219"/>
      <point x="51" y="259" type="curve" smooth="yes"/>
      <point x="51" y="385.335"/>
      <point x="107.884" y="473.433"/>
      <point x="196.5" y="512.5" type="curve" smooth="yes"/>
      <point x="227.5" y="526.167"/>
      <point x="262" y="533"/>
      <point x="300" y="533" type="curve" smooth="yes"/>
      <point x="351.6" y="533"/>
      <point x="398.297" y="523.723"/>
      <point x="437" y="508" type="curve"/>
      <point x="416" y="429" type="line"/>
      <point x="388.245" y="442.216"/>
      <point x="350.069" y="451"/>
      <point x="309" y="451" type="curve" smooth="yes"/>
      <point x="197.568" y="451"/>
      <point x="148" y="375.299"/>
      <point x="148" y="259" type="curve" smooth="yes"/>
      <point x="148" y="141.262"/>
      <point x="199.59" y="70"/>
    </contour>
  </outline>
</glyph>
<glyph name="d" format="1">
  <advance width="589"/>
  <unicode hex="0064"/>
  <outline>
    <contour>
      <point x="313" y="70" type="curve" smooth="yes"/>
      <point x="353.858" y="70"/>
      <point x="388.376" y="73.1075"/>
      <point x="416" y="81" type="curve"/>
      <point x="416" y="410" type="line"/>
      <point x="391.643" y="430.058"/>
      <point x="343.599" y="450"/>
      <point x="297" y="450" type="curve" smooth="yes"/>
      <point x="188.292" y="450"/>
      <point x="148" y="368.925"/>
      <point x="148" y="260" type="curve" smooth="yes"/>
      <point x="148" y="147.669"/>
      <point x="205.558" y="70"/>
    </contour>
    <contour>
      <point x="285" y="532" type="curve" smooth="yes"/>
      <point x="336.266" y="532"/>
      <point x="387.643" y="515.349"/>
      <point x="416" y="497" type="curve"/>
      <point x="416" y="760" type="line"/>
      <point x="509" y="776" type="line"/>
      <point x="509" y="15" type="line"/>
      <point x="456.226" y="0.157421"/>
      <point x="386.526" y="-12"/>
      <point x="312" y="-12" type="curve" smooth="yes"/>
      <point x="184.274" y="-12"/>
      <point x="104.19" y="51.806"/>
      <point x="69.5" y="146.5" type="curve" smooth="yes"/>
      <point x="57.1667" y="180.167"/>
      <point x="51" y="218"/>
      <point x="51" y="260" type="curve" smooth="yes"/>
      <point x="51" y="384.477"/>
      <point x="99.7832" y="472.59"/>
      <point x="185.5" y="512" type="curve" smooth="yes"/>
      <point x="214.5" y="525.333"/>
      <point x="247.667" y="532"/>
    </contour>
  </outline>
</glyph>
<glyph name="e" format="1">
  <advance width="559"/>
  <unicode hex="0065"/>
  <outline>
    <contour>
      <point x="469" y="17" type="line"/>
      <point x="436.303" y="-0.310075"/>
      <point x="369.423" y="-12"/>
      <point x="313" y="-12" type="curve" smooth="yes"/>
      <point x="141.292" y="-12"/>
      <point x="51" y="88.7238"/>
      <point x="51" y="259" type="curve" smooth="yes"/>
      <point x="51" y="389.254"/>
      <point x="107.845" y="479.567"/>
      <point x="200" y="516" type="curve" smooth="yes"/>
      <point x="228.667" y="527.333"/>
      <point x="258" y="533"/>
      <point x="288" y="533" type="curve" smooth="yes"/>
      <point x="441.472" y="533"/>
      <point x="505" y="430.67"/>
      <point x="505" y="268" type="curve" smooth="yes"/>
      <point x="505" y="252.5" type="line" smooth="yes"/>
      <point x="505" y="246.167"/>
      <point x="504.667" y="240.333"/>
      <point x="504" y="235" type="curve"/>
      <point x="148" y="235" type="line"/>
      <point x="155.997" y="127.041"/>
      <point x="206.715" y="70"/>
      <point x="323" y="70" type="curve" smooth="yes"/>
      <point x="376.619" y="70"/>
      <point x="423.846" y="79.8686"/>
      <point x="456" y="95" type="curve"/>
    </contour>
    <contour>
      <point x="408" y="310" type="line"/>
      <point x="409.275" y="390.316"/>
      <point x="365.519" y="454"/>
      <point x="287" y="454" type="curve" smooth="yes"/>
      <point x="200.921" y="454"/>
      <point x="158.581" y="387.225"/>
      <point x="150" y="310" type="curve"/>
    </contour>
  </outline>
</glyph>
<glyph name="f" format="1">
  <advance width="386"/>
  <unicode hex="0066"/>
  <outline>
    <contour>
      <point x="80" y="567" type="line" smooth="yes"/>
      <point x="80" y="702.722"/>
      <point x="145.321" y="776"/>
      <point x="283" y="776" type="curve" smooth="yes"/>
      <point x="325.15" y="776"/>
      <point x="369.293" y="769.711"/>
      <point x="395" y="759" type="curve"/>
      <point x="378" y="679" type="line"/>
      <point x="356.846" y="689.577"/>
      <point x="325.593" y="696"/>
      <point x="290" y="696" type="curve" smooth="yes"/>
      <point x="205.339" y="696"/>
      <point x="173" y="647.483"/>
      <point x="173" y="565" type="curve" smooth="yes"/>
      <point x="173" y="520" type="line"/>
      <point x="373" y="520" type="line"/>
      <point x="373" y="442" type="line"/>
      <point x="173" y="442" type="line"/>
      <point x="173" y="0" type="line"/>
      <point x="80" y="0" type="line"/>
    </contour>
  </outline>
</glyph>
<glyph name="h" format="1">
  <advance width="571"/>
  <unicode hex="0068"/>
  <outline>
    <contour>
      <point x="287" y="531" type="curve" smooth="yes"/>
      <point x="441.388" y="531"/>
      <point x="500" y="445.118"/>
      <point x="500" y="292" type="curve" smooth="yes"/>
      <point x="500" y="0" type="line"/>
      <point x="407" y="0" type="line"/>
      <point x="407" y="272" type="line" smooth="yes"/>
      <point x="407" y="353.334"/>
      <point x="396.229" y="417.753"/>
      <point x="339" y="439.5" type="curve" smooth="yes"/>
      <point x="322.333" y="445.833"/>
      <point x="301.667" y="449"/>
      <point x="277" y="449" type="curve" smooth="yes"/>
      <point x="240.493" y="449"/>
      <point x="199.893" y="442.757"/>
      <point x="173" y="432" type="curve"/>
      <point x="173" y="0" type="line"/>
      <point x="80" y="0" type="line"/>
      <point x="80" y="760" type="line"/>
      <point x="173" y="776" type="line"/>
      <point x="173" y="510" type="line"/>
      <point x="204.65" y="522.173"/>
      <point x="245.077" y="531"/>
    </contour>
  </outline>
</glyph>
<glyph name="i" format="1">
  <advance width="253"/>
  <unicode hex="0069"/>
  <outline>
    <contour>
      <point x="173" y="0" type="line"/>
      <point x="80" y="0" type="line"/>
      <point x="80" y="520" type="line"/>
      <point x="173" y="520" type="line"/>
    </contour>
    <contour>
      <point x="186" y="675" type="curve" smooth="yes"/>
      <point x="186" y="639.368"/>
      <point x="160.662" y="614"/>
      <point x="126" y="614" type="curve" smooth="yes"/>
      <point x="91.3436" y="614"/>
      <point x="66" y="639.375"/>
      <point x="66" y="675" type="curve" smooth="yes"/>
      <point x="66" y="710.632"/>
      <point x="91.3376" y="736"/>
      <point x="126" y="736" type="curve" smooth="yes"/>
      <point x="160.656" y="736"/>
      <point x="186" y="710.625"/>
    </contour>
  </outline>
</glyph>
<glyph name="j" format="1">
  <advance width="253"/>
  <unicode hex="006A"/>
  <outline>
    <contour>
      <point x="173" y="10" type="line" smooth="yes"/>
      <point x="173" y="-116.483"/>
      <point x="117.288" y="-187"/>
      <point x="-5" y="-187" type="curve" smooth="yes"/>
      <point x="-23.2252" y="-187"/>
      <point x="-54.1849" y="-181.314"/>
      <point x="-68" y="-176" type="curve"/>
      <point x="-56" y="-100" type="line"/>
      <point x="-43.9768" y="-103.607"/>
      <point x="-24.2376" y="-107"/>
      <point x="-9" y="-107" type="curve" smooth="yes"/>
      <point x="59.133" y="-107"/>
      <point x="80" y="-61.726"/>
      <point x="80" y="9" type="curve" smooth="yes"/>
      <point x="80" y="520" type="line"/>
      <point x="173" y="520" type="line"/>
    </contour>
    <contour>
      <point x="186" y="675" type="curve" smooth="yes"/>
      <point x="186" y="639.368"/>
      <point x="160.662" y="614"/>
      <point x="126" y="614" type="curve" smooth="yes"/>
      <point x="91.3436" y="614"/>
      <point x="66" y="639.375"/>
      <point x="66" y="675" type="curve" smooth="yes"/>
      <point x="66" y="710.632"/>
      <point x="91.3376" y="736"/>
      <point x="126" y="736" type="curve" smooth="yes"/>
      <point x="160.656" y="736"/>
      <point x="186" y="710.625"/>
    </contour>
  </outline>
</glyph>
<glyph name="k" format="1">
  <advance width="522"/>
  <unicode hex="006B"/>
  <outline>
    <contour>
      <point x="268" y="286" type="curve"/>
      <point x="339.544" y="231.149"/>
      <point x="405.326" y="150.458"/>
      <point x="459" y="75.5" type="curve" smooth="yes"/>
      <point x="478.333" y="48.5"/>
      <point x="494.667" y="23.3333"/>
      <point x="508" y="0" type="curve"/>
      <point x="399" y="0" type="line"/>
      <point x="354.588" y="74.0205"/>
      <point x="294.41" y="146.629"/>
      <point x="232" y="203" type="curve" smooth="yes"/>
      <point x="211.333" y="221.667"/>
      <point x="191.667" y="237.333"/>
      <point x="173" y="250" type="curve"/>
      <point x="173" y="0" type="line"/>
      <point x="80" y="0" type="line"/>
      <point x="80" y="760" type="line"/>
      <point x="173" y="776" type="line"/>
      <point x="173" y="302" type="line"/>
      <point x="226" y="355" type="line" smooth="yes"/>
      <point x="277.816" y="406.816"/>
      <point x="332.54" y="465.796"/>
      <point x="379" y="520" type="curve"/>
      <point x="488" y="520" type="line"/>
      <point x="417.29" y="443.141"/>
      <point x="340.535" y="361.325"/>
    </contour>
  </outline>
</glyph>
<glyph name="l" format="1">
  <advance width="273"/>
  <unicode hex="006C"/>
  <outline>
    <contour>
      <point x="236" y="-10" type="line"/>
      <point x="128.206" y="-7.49316"/>
      <point x="78" y="30.4613"/>
      <point x="78" y="136" type="curve" smooth="yes"/>
      <point x="78" y="760" type="line"/>
      <point x="171" y="776" type="line"/>
      <point x="171" y="151" type="line" smooth="yes"/>
      <point x="171" y="109.052"/>
      <point x="180.226" y="85.0323"/>
      <point x="212" y="75.5" type="curve" smooth="yes"/>
      <point x="222" y="72.5"/>
      <point x="234.333" y="70"/>
      <point x="249" y="68" type="curve"/>
    </contour>
  </outline>
</glyph>
<glyph name="m" format="1">
  <advance width="861"/>
  <unicode hex="006D"/>
  <outline>
    <contour>
      <point x="276" y="449" type="curve" smooth="yes"/>
      <point x="240.972" y="449"/>
      <point x="201.389" y="446.097"/>
      <point x="173" y="439" type="curve"/>
      <point x="173" y="0" type="line"/>
      <point x="80" y="0" type="line"/>
      <point x="80" y="505" type="line"/>
      <point x="135.163" y="518.791"/>
      <point x="208.686" y="531"/>
      <point x="286" y="531" type="curve" smooth="yes"/>
      <point x="352.389" y="531"/>
      <point x="395.965" y="513.083"/>
      <point x="427" y="478" type="curve"/>
      <point x="466.231" y="506.022"/>
      <point x="524.597" y="531"/>
      <point x="593" y="531" type="curve" smooth="yes"/>
      <point x="704.837" y="531"/>
      <point x="763.474" y="482.019"/>
      <point x="779.5" y="388" type="curve" smooth="yes"/>
      <point x="784.5" y="358.667"/>
      <point x="787" y="326.667"/>
      <point x="787" y="292" type="curve" smooth="yes"/>
      <point x="787" y="0" type="line"/>
      <point x="694" y="0" type="line"/>
      <point x="694" y="272" type="line" smooth="yes"/>
      <point x="694" y="373.44"/>
      <point x="683.098" y="449"/>
      <point x="583" y="449" type="curve" smooth="yes"/>
      <point x="533.523" y="449"/>
      <point x="486.562" y="434.511"/>
      <point x="464" y="414" type="curve"/>
      <point x="474.613" y="379.507"/>
      <point x="480" y="337.15"/>
      <point x="480" y="292" type="curve" smooth="yes"/>
      <point x="480" y="0" type="line"/>
      <point x="387" y="0" type="line"/>
      <point x="387" y="272" type="line" smooth="yes"/>
      <point x="387" y="372.17"/>
      <point x="374.675" y="449"/>
    </contour>
  </outline>
</glyph>
<glyph name="o" format="1">
  <advance width="590"/>
  <unicode hex="006F"/>
  <outline>
    <contour>
      <point x="539" y="260" type="curve" smooth="yes"/>
      <point x="539" y="133.183"/>
      <point x="481.866" y="45.0086"/>
      <point x="393" y="6.5" type="curve" smooth="yes"/>
      <point x="363" y="-6.5"/>
      <point x="330.333" y="-13"/>
      <point x="295" y="-13" type="curve" smooth="yes"/>
      <point x="175.085" y="-13"/>
      <point x="101.443" y="57.8812"/>
      <point x="69" y="148" type="curve" smooth="yes"/>
      <point x="57" y="181.333"/>
      <point x="51" y="218.667"/>
      <point x="51" y="260" type="curve" smooth="yes"/>
      <point x="51" y="386.346"/>
      <point x="108.374" y="475.096"/>
      <point x="197" y="513.5" type="curve" smooth="yes"/>
      <point x="227" y="526.5"/>
      <point x="259.667" y="533"/>
      <point x="295" y="533" type="curve" smooth="yes"/>
      <point x="415.115" y="533"/>
      <point x="488.716" y="462.075"/>
      <point x="521" y="371.5" type="curve" smooth="yes"/>
      <point x="533" y="337.833"/>
      <point x="539" y="300.667"/>
    </contour>
    <contour>
      <point x="295" y="69" type="curve" smooth="yes"/>
      <point x="394.613" y="69"/>
      <point x="442" y="154.771"/>
      <point x="442" y="260" type="curve" smooth="yes"/>
      <point x="442" y="365.277"/>
      <point x="394.65" y="451"/>
      <point x="295" y="451" type="curve" smooth="yes"/>
      <point x="195.387" y="451"/>
      <point x="148" y="365.229"/>
      <point x="148" y="260" type="curve" smooth="yes"/>
      <point x="148" y="154.723"/>
      <point x="195.35" y="69"/>
    </contour>
  </outline>
</glyph>
<glyph name="p" format="1">
  <advance width="589"/>
  <unicode hex="0070"/>
  <outline>
    <contour>
      <point x="292" y="70" type="curve" smooth="yes"/>
      <point x="400.267" y="70"/>
      <point x="441" y="150.53"/>
      <point x="441" y="259" type="curve" smooth="yes"/>
      <point x="441" y="371.39"/>
      <point x="383.464" y="448"/>
      <point x="276" y="448" type="curve" smooth="yes"/>
      <point x="231.084" y="448"/>
      <point x="202.458" y="446.417"/>
      <point x="173" y="438" type="curve"/>
      <point x="173" y="110" type="line"/>
      <point x="197.357" y="89.9416"/>
      <point x="245.401" y="70"/>
    </contour>
    <contour>
      <point x="80" y="504" type="line"/>
      <point x="134.501" y="517.212"/>
      <point x="202.014" y="531"/>
      <point x="277" y="531" type="curve" smooth="yes"/>
      <point x="404.726" y="531"/>
      <point x="484.81" y="467.194"/>
      <point x="519.5" y="372.5" type="curve" smooth="yes"/>
      <point x="531.833" y="338.833"/>
      <point x="538" y="301"/>
      <point x="538" y="259" type="curve" smooth="yes"/>
      <point x="538" y="135.326"/>
      <point x="488.772" y="47.2054"/>
      <point x="403.5" y="8" type="curve" smooth="yes"/>
      <point x="374.5" y="-5.33333"/>
      <point x="341.333" y="-12"/>
      <point x="304" y="-12" type="curve" smooth="yes"/>
      <point x="252.734" y="-12"/>
      <point x="201.357" y="4.65139"/>
      <point x="173" y="23" type="curve"/>
      <point x="173" y="-185" type="line"/>
      <point x="80" y="-185" type="line"/>
    </contour>
  </outline>
</glyph>
<glyph name="r" format="1">
  <advance width="386"/>
  <unicode hex="0072"/>
  <outline>
    <contour>
      <point x="80" y="498" type="line"/>
      <point x="130.201" y="516.255"/>
      <point x="198.918" y="531"/>
      <point x="272" y="531" type="curve" smooth="yes"/>
      <point x="301.298" y="531"/>
      <point x="332.689" y="525.462"/>
      <point x="357.5" y="520.5" type="curve" smooth="yes"/>
      <point x="365.833" y="518.833"/>
      <point x="372" y="517.333"/>
      <point x="376" y="516" type="curve"/>
      <point x="360" y="435" type="line"/>
      <point x="334.807" y="444.161"/>
      <point x="299.12" y="450"/>
      <point x="258" y="450" type="curve" smooth="yes"/>
      <point x="232.376" y="450"/>
      <point x="190.575" y="441.394"/>
      <point x="173" y="437" type="curve"/>
      <point x="173" y="0" type="line"/>
      <point x="80" y="0" type="line"/>
    </contour>
  </outline>
</glyph>
<glyph name="s" format="1">
  <advance width="446"/>
  <unicode hex="0073"/>
  <outline>
    <contour>
      <point x="407" y="134" type="curve" smooth="yes"/>
      <point x="407" y="26.399"/>
      <point x="316.663" y="-12"/>
      <point x="201" y="-12" type="curve" smooth="yes"/>
      <point x="130.98" y="-12"/>
      <point x="79.6985" y="-0.0136449"/>
      <point x="40" y="17" type="curve"/>
      <point x="57" y="97" type="line"/>
      <point x="67.6667" y="93"/>
      <point x="84.6667" y="87"/>
      <point x="108" y="79" type="curve" smooth="yes"/>
      <point x="131.333" y="71"/>
      <point x="162.333" y="67"/>
      <point x="201" y="67" type="curve" smooth="yes"/>
      <point x="261.814" y="67"/>
      <point x="313" y="77.0066"/>
      <point x="313" y="130" type="curve" smooth="yes"/>
      <point x="313" y="152.667"/>
      <point x="304" y="170.667"/>
      <point x="286" y="184" type="curve" smooth="yes"/>
      <point x="268" y="197.333"/>
      <point x="238.333" y="212.333"/>
      <point x="197" y="229" type="curve" smooth="yes"/>
      <point x="125.66" y="257.536"/>
      <point x="48" y="284.164"/>
      <point x="48" y="383" type="curve" smooth="yes"/>
      <point x="48" y="483.602"/>
      <point x="132.029" y="533"/>
      <point x="238" y="533" type="curve" smooth="yes"/>
      <point x="289.798" y="533"/>
      <point x="341.257" y="524.153"/>
      <point x="379" y="510" type="curve"/>
      <point x="362" y="430" type="line"/>
      <point x="334.157" y="444.849"/>
      <point x="286.489" y="455"/>
      <point x="238" y="455" type="curve" smooth="yes"/>
      <point x="190.343" y="455"/>
      <point x="141" y="437.493"/>
      <point x="141" y="391" type="curve" smooth="yes"/>
      <point x="141" y="349.121"/>
      <point x="170.455" y="331.745"/>
      <point x="201" y="318" type="curve" smooth="yes"/>
      <point x="291.825" y="277.129"/>
      <point x="407" y="263.682"/>
    </contour>
  </outline>
</glyph>
<glyph name="t" format="1">
  <advance width="402"/>
  <unicode hex="0074"/>
  <outline>
    <contour>
      <point x="384" y="17" type="line"/>
      <point x="356.165" y="3.08254"/>
      <point x="302.623" y="-11"/>
      <point x="255" y="-11" type="curve" smooth="yes"/>
      <point x="154.381" y="-11"/>
      <point x="100.125" y="27.5955"/>
      <point x="82.5" y="109.5" type="curve" smooth="yes"/>
      <point x="76.8333" y="135.833"/>
      <point x="74" y="166.333"/>
      <point x="74" y="201" type="curve" smooth="yes"/>
      <point x="74" y="665" type="line"/>
      <point x="167" y="681" type="line"/>
      <point x="167" y="520" type="line"/>
      <point x="364" y="520" type="line"/>
      <point x="364" y="442" type="line"/>
      <point x="167" y="442" type="line"/>
      <point x="167" y="202" type="line" smooth="yes"/>
      <point x="167" y="121.002"/>
      <point x="184.073" y="71"/>
      <point x="263" y="71" type="curve" smooth="yes"/>
      <point x="291" y="71"/>
      <point x="313.5" y="74.1667"/>
      <point x="330.5" y="80.5" type="curve" smooth="yes"/>
      <point x="347.5" y="86.8333"/>
      <point x="359.333" y="91.3333"/>
      <point x="366" y="94" type="curve"/>
    </contour>
  </outline>
</glyph>
<glyph name="u" format="1">
  <advance width="574"/>
  <unicode hex="0075"/>
  <outline>
    <contour>
      <point x="167" y="248" type="line" smooth="yes"/>
      <point x="167" y="134.579"/>
      <point x="192.74" y="71"/>
      <point x="298" y="71" type="curve" smooth="yes"/>
      <point x="327.806" y="71"/>
      <point x="358.518" y="74.111"/>
      <point x="384.5" y="77.5" type="curve" smooth="yes"/>
      <point x="392.167" y="78.5"/>
      <point x="397.667" y="79.6667"/>
      <point x="401" y="81" type="curve"/>
      <point x="401" y="520" type="line"/>
      <point x="494" y="520" type="line"/>
      <point x="494" y="15" type="line"/>
      <point x="438.837" y="1.20918"/>
      <point x="365.314" y="-11"/>
      <point x="288" y="-11" type="curve" smooth="yes"/>
      <point x="136.391" y="-11"/>
      <point x="74" y="77.5913"/>
      <point x="74" y="228" type="curve" smooth="yes"/>
      <point x="74" y="520" type="line"/>
      <point x="167" y="520" type="line"/>
    </contour>
  </outline>
</glyph>
<glyph name="v" format="1">
  <advance width="502"/>
  <unicode hex="0076"/>
  <outline>
    <contour>
      <point x="253" y="109" type="curve"/>
      <point x="305.785" y="233.2"/>
      <point x="355.343" y="378.483"/>
      <point x="390" y="520" type="curve"/>
      <point x="486" y="520" type="line"/>
      <point x="437.78" y="339.484"/>
      <point x="362.6" y="150.562"/>
      <point x="293" y="0" type="curve"/>
      <point x="209" y="0" type="line"/>
      <point x="139.475" y="150.401"/>
      <point x="64.1675" y="339.681"/>
      <point x="16" y="520" type="curve"/>
      <point x="116" y="520" type="line"/>
      <point x="150.667" y="378.441"/>
      <point x="200.252" y="233.112"/>
    </contour>
  </outline>
</glyph>
<glyph name="w" format="1">
  <advance width="777"/>
  <unicode hex="0077"/>
  <outline>
    <contour>
      <point x="759" y="520" type="line"/>
      <point x="711.665" y="334.302"/>
      <point x="654.284" y="152.897"/>
      <point x="586" y="0" type="curve"/>
      <point x="505" y="0" type="line"/>
      <point x="464.234" y="104.827"/>
      <point x="419.52" y="235.768"/>
      <point x="388" y="357" type="curve"/>
      <point x="356.436" y="235.599"/>
      <point x="312.838" y="105.012"/>
      <point x="272" y="0" type="curve"/>
      <point x="191" y="0" type="line"/>
      <point x="122.826" y="152.651"/>
      <point x="65.272" y="334.548"/>
      <point x="18" y="520" type="curve"/>
      <point x="118" y="520" type="line"/>
      <point x="147.443" y="381.617"/>
      <point x="188.326" y="233.773"/>
      <point x="236" y="113" type="curve"/>
      <point x="281.567" y="238.981"/>
      <point x="322.26" y="381.671"/>
      <point x="353" y="520" type="curve"/>
      <point x="430" y="520" type="line"/>
      <point x="457.977" y="380.113"/>
      <point x="499.742" y="238.124"/>
      <point x="545" y="113" type="curve"/>
      <point x="592.847" y="234.213"/>
      <point x="633.684" y="382.214"/>
      <point x="663" y="520" type="curve"/>
    </contour>
  </outline>
</glyph>
<glyph name="x" format="1">
  <advance width="511"/>
  <unicode hex="0078"/>
  <outline>
    <contour>
      <point x="16" y="0" type="line"/>
      <point x="63.5492" y="92.3813"/>
      <point x="135.024" y="191.699"/>
      <point x="196" y="273" type="curve"/>
      <point x="24" y="520" type="line"/>
      <point x="129" y="520" type="line"/>
      <point x="253" y="338" type="line"/>
      <point x="378" y="520" type="line"/>
      <point x="477" y="520" type="line"/>
      <point x="309" y="279" type="line"/>
      <point x="369.798" y="196.67"/>
      <point x="445.613" y="93.421"/>
      <point x="493" y="0" type="curve"/>
      <point x="391" y="0" type="line"/>
      <point x="353.291" y="75.4186"/>
      <point x="300.399" y="149.001"/>
      <point x="251" y="214" type="curve"/>
      <point x="201.51" y="148.882"/>
      <point x="150.832" y="74.1332"/>
      <point x="112" y="0" type="curve"/>
    </contour>
  </outline>
</glyph>
<glyph name="y" format="1">
  <advance width="497"/>
  <unicode hex="0079"/>
  <outline>
    <contour>
      <point x="264" y="100" type="curve"/>
      <point x="313.774" y="237.533"/>
      <point x="348.564" y="369.86"/>
      <point x="383" y="520" type="curve"/>
      <point x="479" y="520" type="line"/>
      <point x="432.576" y="330.437"/>
      <point x="374.009" y="145.982"/>
      <point x="304" y="-16" type="curve"/>
      <point x="262.536" y="-109.295"/>
      <point x="214.348" y="-188"/>
      <point x="83" y="-188" type="curve" smooth="yes"/>
      <point x="53.9086" y="-188"/>
      <point x="21.9846" y="-181.992"/>
      <point x="2" y="-172" type="curve"/>
      <point x="19" y="-97" type="line"/>
      <point x="33.4941" y="-103.588"/>
      <point x="60.4484" y="-111"/>
      <point x="82" y="-111" type="curve" smooth="yes"/>
      <point x="118.667" y="-111"/>
      <point x="147.333" y="-102.833"/>
      <point x="168" y="-86.5" type="curve" smooth="yes"/>
      <point x="188.667" y="-70.1667"/>
      <point x="207.333" y="-43.6667"/>
      <point x="224" y="-7" type="curve"/>
      <point x="142.279" y="148.66"/>
      <point x="64.6257" y="333.602"/>
      <point x="16" y="520" type="curve"/>
      <point x="116" y="520" type="line"/>
      <point x="152.034" y="372.589"/>
      <point x="204.425" y="226.597"/>
    </contour>
  </outline>
</glyph>
<glyph name="z" format="1">
  <advance width="471"/>
  <unicode hex="007A"/>
  <outline>
    <contour>
      <point x="425" y="450" type="line"/>
      <point x="355.126" y="373.471"/>
      <point x="279.865" y="274.834"/>
      <point x="216.5" y="185" type="curve" smooth="yes"/>
      <point x="190.167" y="147.667"/>
      <point x="167" y="112"/>
      <point x="147" y="78" type="curve"/>
      <point x="433" y="78" type="line"/>
      <point x="433" y="0" type="line"/>
      <point x="36" y="0" type="line"/>
      <point x="36" y="62" type="line"/>
      <point x="92.2389" y="165.105"/>
      <point x="172.517" y="273.07"/>
      <point x="243.5" y="363.5" type="curve" smooth="yes"/>
      <point x="267.833" y="394.5"/>
      <point x="289" y="420.667"/>
      <point x="307" y="442" type="curve"/>
      <point x="50" y="442" type="line"/>
      <point x="50" y="520" type="line"/>
      <point x="425" y="520" type="line"/>
    </contour>
  </outline>
</glyph>
<glyph name="braceleft" format="1">
  <advance width="333"/>
  <unicode hex="007B"/>
  <outline>
    <contour>
      <point x="219" y="-13" type="line" smooth="yes"/>
      <point x="219" y="-90.3021"/>
      <point x="248.269" y="-112"/>
      <point x="325" y="-112" type="curve"/>
      <point x="325" y="-185" type="line"/>
      <point x="321" y="-185" type="line" smooth="yes"/>
      <point x="225.733" y="-185"/>
      <point x="161.382" y="-159.471"/>
      <point x="141" y="-87" type="curve" smooth="yes"/>
      <point x="135" y="-65.6667"/>
      <point x="132" y="-41.3333"/>
      <point x="132" y="-14" type="curve" smooth="yes"/>
      <point x="132" y="166" type="line" smooth="yes"/>
      <point x="132" y="209.787"/>
      <point x="111.017" y="239.491"/>
      <point x="81" y="254.5" type="curve" smooth="yes"/>
      <point x="69.6667" y="260.167"/>
      <point x="56" y="263"/>
      <point x="40" y="263" type="curve"/>
      <point x="40" y="335" type="line"/>
      <point x="97.867" y="335"/>
      <point x="132" y="375.18"/>
      <point x="132" y="432" type="curve" smooth="yes"/>
      <point x="132" y="612" type="line" smooth="yes"/>
      <point x="132" y="736.173"/>
      <point x="195.141" y="783"/>
      <point x="321" y="783" type="curve" smooth="yes"/>
      <point x="325" y="783" type="line"/>
      <point x="325" y="710" type="line"/>
      <point x="248.272" y="710"/>
      <point x="219" y="688.303"/>
      <point x="219" y="611" type="curve" smooth="yes"/>
      <point x="219" y="457" type="line" smooth="yes"/>
      <point x="219" y="375.501"/>
      <point x="199.418" y="328.636"/>
      <point x="152" y="299" type="curve"/>
      <point x="199.389" y="269.382"/>
      <point x="219" y="222.472"/>
      <point x="219" y="141" type="curve" smooth="yes"/>
    </contour>
  </outline>
</glyph>
<glyph name="bar" format="1">
  <advance width="279"/>
  <unicode hex="007C"/>
  <outline>
    <contour>
      <point x="96" y="783" type="line"/>
      <point x="183" y="783" type="line"/>
      <point x="183" y="-185" type="line"/>
      <point x="96" y="-185" type="line"/>
    </contour>
  </outline>
</glyph>
<glyph name="braceright" format="1">
  <advance width="333"/>
  <unicode hex="007D"/>
  <outline>
    <contour>
      <point x="114" y="611" type="line" smooth="yes"/>
      <point x="114" y="688.302"/>
      <point x="84.7306" y="710"/>
      <point x="8" y="710" type="curve"/>
      <point x="8" y="783" type="line"/>
      <point x="12" y="783" type="line" smooth="yes"/>
      <point x="106.279" y="783"/>
      <point x="171.838" y="756.687"/>
      <point x="192" y="685" type="curve" smooth="yes"/>
      <point x="198" y="663.667"/>
      <point x="201" y="639.333"/>
      <point x="201" y="612" type="curve" smooth="yes"/>
      <point x="201" y="432" type="line" smooth="yes"/>
      <point x="201" y="388.213"/>
      <point x="221.983" y="358.509"/>
      <point x="252" y="343.5" type="curve" smooth="yes"/>
      <point x="263.333" y="337.833"/>
      <point x="277" y="335"/>
      <point x="293" y="335" type="curve"/>
      <point x="293" y="263" type="line"/>
      <point x="235.133" y="263"/>
      <point x="201" y="222.82"/>
      <point x="201" y="166" type="curve" smooth="yes"/>
      <point x="201" y="-14" type="line" smooth="yes"/>
      <point x="201" y="-138.745"/>
      <point x="138.609" y="-185"/>
      <point x="12" y="-185" type="curve" smooth="yes"/>
      <point x="8" y="-185" type="line"/>
      <point x="8" y="-112" type="line"/>
      <point x="84.7285" y="-112"/>
      <point x="114" y="-90.3028"/>
      <point x="114" y="-13" type="curve" smooth="yes"/>
      <point x="114" y="141" type="line" smooth="yes"/>
      <point x="114" y="222.499"/>
      <point x="133.582" y="269.364"/>
      <point x="181" y="299" type="curve"/>
      <point x="133.611" y="328.618"/>
      <point x="114" y="375.528"/>
      <point x="114" y="457" type="curve" smooth="yes"/>
    </contour>
  </outline>
</glyph>
<glyph name="asciitilde" format="1">
  <advance width="564"/>
  <unicode hex="007E"/>
  <outline>
    <contour>
      <point x="42" y="242" type="line"/>
      <point x="56.6898" y="311.776"/>
      <point x="93.2251" y="382"/>
      <point x="179" y="382" type="curve" smooth="yes"/>
      <point x="221.759" y="382"/>
      <point x="255.111" y="360.976"/>
      <point x="283" y="344" type="curve" smooth="yes"/>
      <point x="301" y="333.333"/>
      <point x="318.333" y="322.833"/>
      <point x="335" y="312.5" type="curve" smooth="yes"/>
      <point x="351.667" y="302.167"/>
      <point x="369.333" y="297"/>
      <point x="388" y="297" type="curve" smooth="yes"/>
      <point x="432.202" y="297"/>
      <point x="445.58" y="341.134"/>
      <point x="456" y="375" type="curve"/>
      <point x="520" y="357" type="line"/>
      <point x="509.123" y="302.613"/>
      <point x="484.942" y="256.619"/>
      <point x="442.5" y="231.5" type="curve" smooth="yes"/>
      <point x="426.167" y="221.833"/>
      <point x="406.333" y="217"/>
      <point x="383" y="217" type="curve" smooth="yes"/>
      <point x="340.241" y="217"/>
      <point x="306.889" y="238.024"/>
      <point x="279" y="255" type="curve" smooth="yes"/>
      <point x="261" y="265.667"/>
      <point x="243.667" y="276.167"/>
      <point x="227" y="286.5" type="curve" smooth="yes"/>
      <point x="210.333" y="296.833"/>
      <point x="192.667" y="302"/>
      <point x="174" y="302" type="curve" smooth="yes"/>
      <point x="129.798" y="302"/>
      <point x="116.42" y="257.866"/>
      <point x="106" y="224" type="curve"/>
    </contour>
  </outline>
</glyph>
<glyph name="exclamdown" format="1">
  <advance width="276"/>
  <unicode hex="00A1"/>
  <outline>
    <contour>
      <point x="167" y="291" type="line"/>
      <point x="179.616" y="195.679"/>
      <point x="188" y="112.007"/>
      <point x="188" y="2" type="curve" smooth="yes"/>
      <point x="188" y="-185" type="line"/>
      <point x="88" y="-185" type="line"/>
      <point x="88" y="2" type="line" smooth="yes"/>
      <point x="88" y="112.038"/>
      <point x="96.378" y="195.634"/>
      <point x="109" y="291" type="curve"/>
    </contour>
    <contour>
      <point x="138" y="386" type="curve" smooth="yes"/>
      <point x="98.8699" y="386"/>
      <point x="71" y="415.187"/>
      <point x="71" y="453" type="curve" smooth="yes"/>
      <point x="71" y="490.804"/>
      <point x="98.8796" y="520"/>
      <point x="138" y="520" type="curve" smooth="yes"/>
      <point x="177.13" y="520"/>
      <point x="205" y="490.813"/>
      <point x="205" y="453" type="curve" smooth="yes"/>
      <point x="205" y="415.196"/>
      <point x="177.12" y="386"/>
    </contour>
  </outline>
</glyph>
<glyph name="cent" format="1">
  <advance width="564"/>
  <unicode hex="00A2"/>
  <outline>
    <contour>
      <point x="480" y="55" type="line"/>
      <point x="456.705" y="41.6884"/>
      <point x="399.95" y="32.1084"/>
      <point x="362" y="30" type="curve"/>
      <point x="362" y="-109" type="line"/>
      <point x="279" y="-109" type="line"/>
      <point x="279" y="35" type="line"/>
      <point x="183.794" y="52.8512"/>
      <point x="123.889" y="111.662"/>
      <point x="98.5" y="199" type="curve" smooth="yes"/>
      <point x="90.1667" y="227.667"/>
      <point x="86" y="258.333"/>
      <point x="86" y="291" type="curve" smooth="yes"/>
      <point x="86" y="397.477"/>
      <point x="131.849" y="474.737"/>
      <point x="198" y="517" type="curve" smooth="yes"/>
      <point x="222" y="532.333"/>
      <point x="249" y="543"/>
      <point x="279" y="549" type="curve"/>
      <point x="279" y="693" type="line"/>
      <point x="362" y="693" type="line"/>
      <point x="362" y="554" type="line"/>
      <point x="400.667" y="552"/>
      <point x="437.333" y="544.333"/>
      <point x="472" y="531" type="curve"/>
      <point x="451" y="454" type="line"/>
      <point x="422.892" y="466.046"/>
      <point x="384.544" y="475"/>
      <point x="344" y="475" type="curve" smooth="yes"/>
      <point x="234.336" y="475"/>
      <point x="183" y="404.32"/>
      <point x="183" y="291" type="curve" smooth="yes"/>
      <point x="183" y="176.029"/>
      <point x="237.06" y="110"/>
      <point x="353" y="110" type="curve" smooth="yes"/>
      <point x="395.429" y="110"/>
      <point x="439.455" y="119.658"/>
      <point x="467" y="131" type="curve"/>
    </contour>
  </outline>
</glyph>
<glyph name="sterling" format="1">
  <advance width="564"/>
  <unicode hex="00A3"/>
  <outline>
    <contour>
      <point x="365" y="624" type="curve" smooth="yes"/>
      <point x="270.973" y="624"/>
      <point x="246" y="555.12"/>
      <point x="246" y="458" type="curve" smooth="yes"/>
      <point x="246" y="373" type="line"/>
      <point x="435" y="373" type="line"/>
      <point x="435" y="298" type="line"/>
      <point x="246" y="298" type="line"/>
      <point x="246" y="290" type="line" smooth="yes"/>
      <point x="246" y="220.166"/>
      <point x="239.908" y="141.922"/>
      <point x="230" y="80" type="curve"/>
      <point x="519" y="80" type="line"/>
      <point x="519" y="0" type="line"/>
      <point x="125" y="0" type="line"/>
      <point x="138.905" y="89.749"/>
      <point x="153" y="182.769"/>
      <point x="153" y="283" type="curve" smooth="yes"/>
      <point x="153" y="298" type="line"/>
      <point x="60" y="298" type="line"/>
      <point x="60" y="373" type="line"/>
      <point x="153" y="373" type="line"/>
      <point x="153" y="456" type="line" smooth="yes"/>
      <point x="153" y="580.716"/>
      <point x="186.602" y="669.041"/>
      <point x="281" y="695" type="curve" smooth="yes"/>
      <point x="307.667" y="702.333"/>
      <point x="337" y="706"/>
      <point x="369" y="706" type="curve" smooth="yes"/>
      <point x="426.321" y="706"/>
      <point x="460.902" y="694.753"/>
      <point x="501" y="679" type="curve"/>
      <point x="478" y="599" type="line"/>
      <point x="442.667" y="615.667"/>
      <point x="405" y="624"/>
    </contour>
  </outline>
</glyph>
<glyph name="currency" format="1">
  <advance width="564"/>
  <unicode hex="00A4"/>
  <outline>
    <contour>
      <point x="282" y="155" type="curve" smooth="yes"/>
      <point x="239.477" y="155"/>
      <point x="203.865" y="166.038"/>
      <point x="176" y="183" type="curve"/>
      <point x="102" y="109" type="line"/>
      <point x="44" y="167" type="line"/>
      <point x="117" y="240" type="line"/>
      <point x="98.3333" y="270"/>
      <point x="89" y="305.667"/>
      <point x="89" y="347" type="curve" smooth="yes"/>
      <point x="89" y="387.667"/>
      <point x="98.3333" y="423"/>
      <point x="117" y="453" type="curve"/>
      <point x="44" y="527" type="line"/>
      <point x="102" y="585" type="line"/>
      <point x="176" y="510" type="line"/>
      <point x="207.333" y="529.333"/>
      <point x="242.667" y="539"/>
      <point x="282" y="539" type="curve" smooth="yes"/>
      <point x="321.333" y="539"/>
      <point x="356.333" y="529.333"/>
      <point x="387" y="510" type="curve"/>
      <point x="462" y="585" type="line"/>
      <point x="520" y="527" type="line"/>
      <point x="446" y="453" type="line"/>
      <point x="463.592" y="425.355"/>
      <point x="475" y="390.764"/>
      <point x="475" y="347" type="curve" smooth="yes"/>
      <point x="475" y="302.288"/>
      <point x="463.87" y="269.082"/>
      <point x="446" y="241" type="curve"/>
      <point x="520" y="167" type="line"/>
      <point x="462" y="109" type="line"/>
      <point x="387" y="183" type="line"/>
      <point x="355" y="164.333"/>
      <point x="320" y="155"/>
    </contour>
    <contour>
      <point x="400" y="347" type="curve" smooth="yes"/>
      <point x="400" y="404.892"/>
      <point x="369.294" y="445.977"/>
      <point x="327.5" y="462.5" type="curve" smooth="yes"/>
      <point x="313.167" y="468.167"/>
      <point x="298" y="471"/>
      <point x="282" y="471" type="curve" smooth="yes"/>
      <point x="225.647" y="471"/>
      <point x="190.4" y="438.916"/>
      <point x="173.5" y="398" type="curve" smooth="yes"/>
      <point x="167.167" y="382.667"/>
      <point x="164" y="365.667"/>
      <point x="164" y="347" type="curve" smooth="yes"/>
      <point x="164" y="288.627"/>
      <point x="194.459" y="248.121"/>
      <point x="236.5" y="231.5" type="curve" smooth="yes"/>
      <point x="250.833" y="225.833"/>
      <point x="266" y="223"/>
      <point x="282" y="223" type="curve" smooth="yes"/>
      <point x="338.16" y="223"/>
      <point x="373.422" y="255.052"/>
      <point x="390.5" y="295.5" type="curve" smooth="yes"/>
      <point x="396.833" y="310.5"/>
      <point x="400" y="327.667"/>
    </contour>
  </outline>
</glyph>
<glyph name="yen" format="1">
  <advance width="564"/>
  <unicode hex="00A5"/>
  <outline>
    <contour>
      <point x="285" y="387" type="curve"/>
      <point x="343.184" y="482.211"/>
      <point x="397.732" y="589.138"/>
      <point x="447" y="693" type="curve"/>
      <point x="548" y="693" type="line"/>
      <point x="486.908" y="577.759"/>
      <point x="422.058" y="461.26"/>
      <point x="353" y="350" type="curve"/>
      <point x="490" y="350" type="line"/>
      <point x="490" y="279" type="line"/>
      <point x="328" y="279" type="line"/>
      <point x="328" y="177" type="line"/>
      <point x="490" y="177" type="line"/>
      <point x="490" y="106" type="line"/>
      <point x="328" y="106" type="line"/>
      <point x="328" y="0" type="line"/>
      <point x="237" y="0" type="line"/>
      <point x="237" y="106" type="line"/>
      <point x="75" y="106" type="line"/>
      <point x="75" y="177" type="line"/>
      <point x="237" y="177" type="line"/>
      <point x="237" y="279" type="line"/>
      <point x="75" y="279" type="line"/>
      <point x="75" y="350" type="line"/>
      <point x="211" y="350" type="line"/>
      <point x="142.501" y="461.628"/>
      <point x="77.2959" y="578.017"/>
      <point x="17" y="693" type="curve"/>
      <point x="120" y="693" type="line"/>
      <point x="168.205" y="588.556"/>
      <point x="225.981" y="481.43"/>
    </contour>
  </outline>
</glyph>
<glyph name="section" format="1">
  <advance width="492"/>
  <unicode hex="00A7"/>
  <outline>
    <contour>
      <point x="429" y="43" type="curve" smooth="yes"/>
      <point x="429" y="-67.153"/>
      <point x="341.975" y="-109"/>
      <point x="225" y="-109" type="curve" smooth="yes"/>
      <point x="149.215" y="-109"/>
      <point x="90.2463" y="-97.6232"/>
      <point x="45" y="-75" type="curve"/>
      <point x="68" y="-1" type="line"/>
      <point x="113.785" y="-20.8402"/>
      <point x="156.378" y="-32"/>
      <point x="226" y="-32" type="curve" smooth="yes"/>
      <point x="288.186" y="-32"/>
      <point x="339" y="-18.8792"/>
      <point x="339" y="37" type="curve" smooth="yes"/>
      <point x="339" y="60.3333"/>
      <point x="330" y="78.5"/>
      <point x="312" y="91.5" type="curve" smooth="yes"/>
      <point x="294" y="104.5"/>
      <point x="263.667" y="118.333"/>
      <point x="221" y="133" type="curve" smooth="yes"/>
      <point x="134.578" y="161.807"/>
      <point x="43" y="194.934"/>
      <point x="43" y="309" type="curve" smooth="yes"/>
      <point x="43" y="380.111"/>
      <point x="87.4362" y="426.262"/>
      <point x="132" y="453" type="curve"/>
      <point x="102.322" y="476.743"/>
      <point x="78" y="508.875"/>
      <point x="78" y="559" type="curve" smooth="yes"/>
      <point x="78" y="659.735"/>
      <point x="156.683" y="709"/>
      <point x="263" y="709" type="curve" smooth="yes"/>
      <point x="321.873" y="709"/>
      <point x="386.707" y="693.706"/>
      <point x="428" y="681" type="curve"/>
      <point x="407" y="604" type="line"/>
      <point x="366.884" y="619.044"/>
      <point x="323.179" y="633"/>
      <point x="262" y="633" type="curve" smooth="yes"/>
      <point x="214.247" y="633"/>
      <point x="166" y="613.52"/>
      <point x="166" y="567" type="curve" smooth="yes"/>
      <point x="166" y="524.554"/>
      <point x="193.137" y="507.888"/>
      <point x="224" y="494" type="curve" smooth="yes"/>
      <point x="320.821" y="450.43"/>
      <point x="450" y="439.443"/>
      <point x="450" y="300" type="curve" smooth="yes"/>
      <point x="450" y="246.456"/>
      <point x="422.814" y="206.987"/>
      <point x="394.5" y="180.5" type="curve" smooth="yes"/>
      <point x="384.167" y="170.833"/>
      <point x="374" y="163"/>
      <point x="364" y="157" type="curve"/>
      <point x="397.918" y="132.439"/>
      <point x="429" y="97.7044"/>
    </contour>
    <contour>
      <point x="300" y="191" type="curve"/>
      <point x="331.94" y="211.926"/>
      <point x="365" y="243.041"/>
      <point x="365" y="291" type="curve" smooth="yes"/>
      <point x="365" y="348.645"/>
      <point x="318.919" y="371.493"/>
      <point x="276" y="388" type="curve" smooth="yes"/>
      <point x="250.782" y="397.699"/>
      <point x="219.136" y="406.799"/>
      <point x="193" y="418" type="curve"/>
      <point x="161.505" y="397.365"/>
      <point x="128" y="365.023"/>
      <point x="128" y="318" type="curve" smooth="yes"/>
      <point x="128" y="279.886"/>
      <point x="147.014" y="259.625"/>
      <point x="171.5" y="243.5" type="curve" smooth="yes"/>
      <point x="207.037" y="220.097"/>
      <point x="255.815" y="208.674"/>
    </contour>
  </outline>
</glyph>
<glyph name="dieresis" format="1">
  <advance width="376"/>
  <unicode hex="00A8"/>
  <outline>
    <contour>
      <point x="151" y="675" type="curve" smooth="yes"/>
      <point x="151" y="642.1"/>
      <point x="124.957" y="616"/>
      <point x="93" y="616" type="curve" smooth="yes"/>
      <point x="61.0488" y="616"/>
      <point x="35" y="642.108"/>
      <point x="35" y="675" type="curve" smooth="yes"/>
      <point x="35" y="707.9"/>
      <point x="61.0425" y="734"/>
      <point x="93" y="734" type="curve" smooth="yes"/>
      <point x="124.951" y="734"/>
      <point x="151" y="707.892"/>
    </contour>
    <contour>
      <point x="341" y="675" type="curve" smooth="yes"/>
      <point x="341" y="642.1"/>
      <point x="314.957" y="616"/>
      <point x="283" y="616" type="curve" smooth="yes"/>
      <point x="251.049" y="616"/>
      <point x="225" y="642.108"/>
      <point x="225" y="675" type="curve" smooth="yes"/>
      <point x="225" y="707.9"/>
      <point x="251.043" y="734"/>
      <point x="283" y="734" type="curve" smooth="yes"/>
      <point x="314.951" y="734"/>
      <point x="341" y="707.892"/>
    </contour>
  </outline>
</glyph>
<glyph name="copyright" format="1">
  <advance width="814"/>
  <unicode hex="00A9"/>
  <outline>
    <contour>
      <point x="749" y="347" type="curve" smooth="yes"/>
      <point x="749" y="229.921"/>
      <point x="705.948" y="139.81"/>
      <point x="646" y="80.5" type="curve" smooth="yes"/>
      <point x="590.878" y="25.9644"/>
      <point x="509.437" y="-15"/>
      <point x="407" y="-15" type="curve" smooth="yes"/>
      <point x="304.656" y="-15"/>
      <point x="223.059" y="26.0271"/>
      <point x="168" y="80.5" type="curve" smooth="yes"/>
      <point x="108.029" y="139.833"/>
      <point x="65" y="229.894"/>
      <point x="65" y="347" type="curve" smooth="yes"/>
      <point x="65" y="464.079"/>
      <point x="108.052" y="554.19"/>
      <point x="168" y="613.5" type="curve" smooth="yes"/>
      <point x="223.122" y="668.036"/>
      <point x="304.563" y="709"/>
      <point x="407" y="709" type="curve" smooth="yes"/>
      <point x="509.344" y="709"/>
      <point x="590.941" y="667.973"/>
      <point x="646" y="613.5" type="curve" smooth="yes"/>
      <point x="705.971" y="554.167"/>
      <point x="749" y="464.106"/>
    </contour>
    <contour>
      <point x="676" y="347" type="curve" smooth="yes"/>
      <point x="676" y="483.711"/>
      <point x="612.124" y="580.008"/>
      <point x="515.5" y="621" type="curve" smooth="yes"/>
      <point x="482.5" y="635"/>
      <point x="446.333" y="642"/>
      <point x="407" y="642" type="curve" smooth="yes"/>
      <point x="274.573" y="642"/>
      <point x="194.285" y="566.376"/>
      <point x="158" y="467.5" type="curve" smooth="yes"/>
      <point x="144.667" y="431.167"/>
      <point x="138" y="391"/>
      <point x="138" y="347" type="curve" smooth="yes"/>
      <point x="138" y="210.289"/>
      <point x="201.876" y="113.992"/>
      <point x="298.5" y="73" type="curve" smooth="yes"/>
      <point x="331.5" y="59"/>
      <point x="367.667" y="52"/>
      <point x="407" y="52" type="curve" smooth="yes"/>
      <point x="539.427" y="52"/>
      <point x="619.715" y="127.624"/>
      <point x="656" y="226.5" type="curve" smooth="yes"/>
      <point x="669.333" y="262.833"/>
      <point x="676" y="303"/>
    </contour>
    <contour>
      <point x="548" y="170" type="line"/>
      <point x="517.163" y="151.498"/>
      <point x="469.504" y="140"/>
      <point x="419" y="140" type="curve" smooth="yes"/>
      <point x="325.359" y="140"/>
      <point x="266.443" y="188.532"/>
      <point x="241" y="258.5" type="curve" smooth="yes"/>
      <point x="231.667" y="284.167"/>
      <point x="227" y="313.667"/>
      <point x="227" y="347" type="curve" smooth="yes"/>
      <point x="227" y="444.788"/>
      <point x="275.086" y="511.035"/>
      <point x="345" y="539" type="curve" smooth="yes"/>
      <point x="368.333" y="548.333"/>
      <point x="393" y="553"/>
      <point x="419" y="553" type="curve" smooth="yes"/>
      <point x="469.593" y="553"/>
      <point x="516.537" y="541.348"/>
      <point x="545" y="520" type="curve"/>
      <point x="522" y="460" type="line"/>
      <point x="500.354" y="472.627"/>
      <point x="460.592" y="486"/>
      <point x="422" y="486" type="curve" smooth="yes"/>
      <point x="345.93" y="486"/>
      <point x="303" y="428.27"/>
      <point x="303" y="347" type="curve" smooth="yes"/>
      <point x="303" y="265.902"/>
      <point x="344.096" y="206"/>
      <point x="425" y="206" type="curve" smooth="yes"/>
      <point x="468.797" y="206"/>
      <point x="503.321" y="217.161"/>
      <point x="529" y="230" type="curve"/>
    </contour>
  </outline>
</glyph>
<glyph name="ordfeminine" format="1">
  <advance width="389"/>
  <unicode hex="00AA"/>
  <outline>
    <contour>
      <point x="108" y="446" type="curve" smooth="yes"/>
      <point x="108" y="401.618"/>
      <point x="148.457" y="391"/>
      <point x="196" y="391" type="curve" smooth="yes"/>
      <point x="214.913" y="391"/>
      <point x="254.684" y="390.074"/>
      <point x="267" y="395" type="curve"/>
      <point x="267" y="495" type="line"/>
      <point x="251.599" y="497.8"/>
      <point x="224.972" y="499"/>
      <point x="206" y="499" type="curve" smooth="yes"/>
      <point x="160.423" y="499"/>
      <point x="108" y="490.795"/>
    </contour>
    <contour>
      <point x="77" y="691" type="line"/>
      <point x="105.05" y="698.382"/>
      <point x="151.337" y="706"/>
      <point x="189" y="706" type="curve" smooth="yes"/>
      <point x="285.989" y="706"/>
      <point x="336" y="662.818"/>
      <point x="336" y="567" type="curve" smooth="yes"/>
      <point x="336" y="343" type="line"/>
      <point x="299.863" y="335.471"/>
      <point x="235.719" y="329"/>
      <point x="189" y="329" type="curve" smooth="yes"/>
      <point x="102.833" y="329"/>
      <point x="38" y="360.093"/>
      <point x="38" y="446" type="curve" smooth="yes"/>
      <point x="38" y="531.742"/>
      <point x="112.253" y="560"/>
      <point x="198" y="560" type="curve" smooth="yes"/>
      <point x="221.991" y="560"/>
      <point x="243.333" y="558.381"/>
      <point x="267" y="555" type="curve"/>
      <point x="267" y="558" type="line" smooth="yes"/>
      <point x="267" y="612.785"/>
      <point x="241.185" y="641"/>
      <point x="185" y="641" type="curve" smooth="yes"/>
      <point x="153.178" y="641"/>
      <point x="111.036" y="636.413"/>
      <point x="87" y="628" type="curve"/>
    </contour>
  </outline>
</glyph>
<glyph name="registered" format="1">
  <advance width="814"/>
  <unicode hex="00AE"/>
  <outline>
    <contour>
      <point x="749" y="347" type="curve" smooth="yes"/>
      <point x="749" y="229.921"/>
      <point x="705.948" y="139.81"/>
      <point x="646" y="80.5" type="curve" smooth="yes"/>
      <point x="590.878" y="25.9644"/>
      <point x="509.437" y="-15"/>
      <point x="407" y="-15" type="curve" smooth="yes"/>
      <point x="304.656" y="-15"/>
      <point x="223.059" y="26.0271"/>
      <point x="168" y="80.5" type="curve" smooth="yes"/>
      <point x="108.029" y="139.833"/>
      <point x="65" y="229.894"/>
      <point x="65" y="347" type="curve" smooth="yes"/>
      <point x="65" y="464.079"/>
      <point x="108.052" y="554.19"/>
      <point x="168" y="613.5" type="curve" smooth="yes"/>
      <point x="223.122" y="668.036"/>
      <point x="304.563" y="709"/>
      <point x="407" y="709" type="curve" smooth="yes"/>
      <point x="509.344" y="709"/>
      <point x="590.941" y="667.973"/>
      <point x="646" y="613.5" type="curve" smooth="yes"/>
      <point x="705.971" y="554.167"/>
      <point x="749" y="464.106"/>
    </contour>
    <contour>
      <point x="676" y="347" type="curve" smooth="yes"/>
      <point x="676" y="483.711"/>
      <point x="612.124" y="580.008"/>
      <point x="515.5" y="621" type="curve" smooth="yes"/>
      <point x="482.5" y="635"/>
      <point x="446.333" y="642"/>
      <point x="407" y="642" type="curve" smooth="yes"/>
      <point x="274.573" y="642"/>
      <point x="194.285" y="566.376"/>
      <point x="158" y="467.5" type="curve" smooth="yes"/>
      <point x="144.667" y="431.167"/>
      <point x="138" y="391"/>
      <point x="138" y="347" type="curve" smooth="yes"/>
      <point x="138" y="210.289"/>
      <point x="201.876" y="113.992"/>
      <point x="298.5" y="73" type="curve" smooth="yes"/>
      <point x="331.5" y="59"/>
      <point x="367.667" y="52"/>
      <point x="407" y="52" type="curve" smooth="yes"/>
      <point x="539.427" y="52"/>
      <point x="619.715" y="127.624"/>
      <point x="656" y="226.5" type="curve" smooth="yes"/>
      <point x="669.333" y="262.833"/>
      <point x="676" y="303"/>
    </contour>
    <contour>
      <point x="555" y="419" type="curve" smooth="yes"/>
      <point x="555" y="363.486"/>
      <point x="522.028" y="329.512"/>
      <point x="480" y="312" type="curve"/>
      <point x="507.841" y="278.591"/>
      <point x="534.548" y="236.203"/>
      <point x="558" y="196" type="curve" smooth="yes"/>
      <point x="567.333" y="180"/>
      <point x="575.667" y="164"/>
      <point x="583" y="148" type="curve"/>
      <point x="506" y="148" type="line"/>
      <point x="480.075" y="198.723"/>
      <point x="438.098" y="260.173"/>
      <point x="405" y="298" type="curve"/>
      <point x="338" y="298" type="line"/>
      <point x="338" y="148" type="line"/>
      <point x="267" y="148" type="line"/>
      <point x="267" y="536" type="line"/>
      <point x="298.805" y="543.068"/>
      <point x="342.087" y="548"/>
      <point x="379" y="548" type="curve" smooth="yes"/>
      <point x="481.28" y="548"/>
      <point x="555" y="514.889"/>
    </contour>
    <contour>
      <point x="384" y="486" type="curve" smooth="yes"/>
      <point x="369.017" y="486"/>
      <point x="351.963" y="485.269"/>
      <point x="338" y="484" type="curve"/>
      <point x="338" y="356" type="line"/>
      <point x="376" y="356" type="line" smooth="yes"/>
      <point x="431.687" y="356"/>
      <point x="481" y="365.41"/>
      <point x="481" y="420" type="curve" smooth="yes"/>
      <point x="481" y="470.753"/>
      <point x="434.984" y="486"/>
    </contour>
  </outline>
</glyph>
<glyph name="degree" format="1">
  <advance width="332"/>
  <unicode hex="00B0"/>
  <outline>
    <contour>
      <point x="306" y="637" type="curve" smooth="yes"/>
      <point x="306" y="570.24"/>
      <point x="268.552" y="525.774"/>
      <point x="219.5" y="507.5" type="curve" smooth="yes"/>
      <point x="202.5" y="501.167"/>
      <point x="184.667" y="498"/>
      <point x="166" y="498" type="curve" smooth="yes"/>
      <point x="100.884" y="498"/>
      <point x="57.9709" y="532.718"/>
      <point x="37.5" y="579" type="curve" smooth="yes"/>
      <point x="29.8333" y="596.333"/>
      <point x="26" y="615.667"/>
      <point x="26" y="637" type="curve" smooth="yes"/>
      <point x="26" y="703.76"/>
      <point x="63.4476" y="748.226"/>
      <point x="112.5" y="766.5" type="curve" smooth="yes"/>
      <point x="129.5" y="772.833"/>
      <point x="147.333" y="776"/>
      <point x="166" y="776" type="curve" smooth="yes"/>
      <point x="231.116" y="776"/>
      <point x="274.029" y="741.282"/>
      <point x="294.5" y="695" type="curve" smooth="yes"/>
      <point x="302.167" y="677.667"/>
      <point x="306" y="658.333"/>
    </contour>
    <contour>
      <point x="166" y="561" type="curve" smooth="yes"/>
      <point x="208.278" y="561"/>
      <point x="239" y="593.147"/>
      <point x="239" y="637" type="curve" smooth="yes"/>
      <point x="239" y="680.866"/>
      <point x="208.288" y="713"/>
      <point x="166" y="713" type="curve" smooth="yes"/>
      <point x="123.722" y="713"/>
      <point x="93" y="680.853"/>
      <point x="93" y="637" type="curve" smooth="yes"/>
      <point x="93" y="593.134"/>
      <point x="123.712" y="561"/>
    </contour>
  </outline>
</glyph>
<glyph name="twosuperior" format="1">
  <advance width="359"/>
  <unicode hex="00B2"/>
  <outline>
    <contour>
      <point x="161" y="709" type="curve" smooth="yes"/>
      <point x="244.289" y="709"/>
      <point x="296" y="676.149"/>
      <point x="296" y="598" type="curve" smooth="yes"/>
      <point x="296" y="564.109"/>
      <point x="278.328" y="538.619"/>
      <point x="261" y="517.5" type="curve" smooth="yes"/>
      <point x="227.979" y="477.255"/>
      <point x="183.181" y="445.181"/>
      <point x="145.5" y="407.5" type="curve" smooth="yes"/>
      <point x="134.5" y="396.5"/>
      <point x="128" y="386.667"/>
      <point x="126" y="378" type="curve"/>
      <point x="312" y="378" type="line"/>
      <point x="312" y="315" type="line"/>
      <point x="46" y="315" type="line"/>
      <point x="37.4947" y="408.558"/>
      <point x="95.9749" y="451.121"/>
      <point x="146" y="494" type="curve" smooth="yes"/>
      <point x="168.667" y="513.333"/>
      <point x="187.167" y="531.167"/>
      <point x="201.5" y="547.5" type="curve" smooth="yes"/>
      <point x="215.833" y="563.833"/>
      <point x="223" y="580"/>
      <point x="223" y="596" type="curve" smooth="yes"/>
      <point x="223" y="632.081"/>
      <point x="197.837" y="646"/>
      <point x="161" y="646" type="curve" smooth="yes"/>
      <point x="119.636" y="646"/>
      <point x="88.8901" y="625.312"/>
      <point x="66" y="607" type="curve"/>
      <point x="30" y="656" type="line"/>
      <point x="55.2398" y="682.724"/>
      <point x="106.169" y="709"/>
    </contour>
  </outline>
</glyph>
<glyph name="threesuperior" format="1">
  <advance width="359"/>
  <unicode hex="00B3"/>
  <outline>
    <contour>
      <point x="47" y="390" type="line"/>
      <point x="74.5342" y="379.988"/>
      <point x="107.632" y="369"/>
      <point x="144" y="369" type="curve" smooth="yes"/>
      <point x="179.333" y="369"/>
      <point x="203.667" y="374.5"/>
      <point x="217" y="385.5" type="curve" smooth="yes"/>
      <point x="230.333" y="396.5"/>
      <point x="237" y="410.667"/>
      <point x="237" y="428" type="curve" smooth="yes"/>
      <point x="237" y="478.352"/>
      <point x="178.289" y="491"/>
      <point x="127" y="491" type="curve" smooth="yes"/>
      <point x="108" y="491" type="line"/>
      <point x="108" y="548" type="line"/>
      <point x="133" y="548" type="line" smooth="yes"/>
      <point x="174.393" y="548"/>
      <point x="219" y="559.763"/>
      <point x="219" y="601" type="curve" smooth="yes"/>
      <point x="219" y="636.093"/>
      <point x="188.978" y="647"/>
      <point x="153" y="647" type="curve" smooth="yes"/>
      <point x="118.139" y="647"/>
      <point x="86.1509" y="630.895"/>
      <point x="63" y="620" type="curve"/>
      <point x="38" y="675" type="line"/>
      <point x="60.7557" y="690.645"/>
      <point x="114.438" y="709"/>
      <point x="155" y="709" type="curve" smooth="yes"/>
      <point x="203.667" y="709"/>
      <point x="238.167" y="699.167"/>
      <point x="258.5" y="679.5" type="curve" smooth="yes"/>
      <point x="278.833" y="659.833"/>
      <point x="289" y="634.667"/>
      <point x="289" y="604" type="curve" smooth="yes"/>
      <point x="289" y="571.333"/>
      <point x="270.667" y="544.667"/>
      <point x="234" y="524" type="curve"/>
      <point x="275.478" y="510.964"/>
      <point x="310" y="478.53"/>
      <point x="310" y="427" type="curve" smooth="yes"/>
      <point x="310" y="337.575"/>
      <point x="236.963" y="307"/>
      <point x="145" y="307" type="curve" smooth="yes"/>
      <point x="106.979" y="307"/>
      <point x="56.4525" y="317.774"/>
      <point x="32" y="330" type="curve"/>
    </contour>
  </outline>
</glyph>
<glyph name="mu" format="1">
  <advance width="580"/>
  <unicode hex="00B5"/>
  <outline>
    <contour>
      <point x="167" y="34" type="curve"/>
      <point x="171.023" y="-3.54538"/>
      <point x="172" y="-40.4537"/>
      <point x="172" y="-82" type="curve" smooth="yes"/>
      <point x="172" y="-185" type="line"/>
      <point x="80" y="-185" type="line"/>
      <point x="80" y="520" type="line"/>
      <point x="173" y="520" type="line"/>
      <point x="173" y="242" type="line" smooth="yes"/>
      <point x="173" y="129.173"/>
      <point x="200.294" y="71"/>
      <point x="304" y="71" type="curve" smooth="yes"/>
      <point x="333.806" y="71"/>
      <point x="364.518" y="74.111"/>
      <point x="390.5" y="77.5" type="curve" smooth="yes"/>
      <point x="398.167" y="78.5"/>
      <point x="403.667" y="79.6667"/>
      <point x="407" y="81" type="curve"/>
      <point x="407" y="520" type="line"/>
      <point x="500" y="520" type="line"/>
      <point x="500" y="15" type="line"/>
      <point x="449.18" y="2.29499"/>
      <point x="376.276" y="-11"/>
      <point x="307" y="-11" type="curve" smooth="yes"/>
      <point x="239.911" y="-11"/>
      <point x="197.085" y="0.906643"/>
    </contour>
  </outline>
</glyph>
<glyph name="paragraph" format="1">
  <advance width="646"/>
  <unicode hex="00B6"/>
  <outline>
    <contour>
      <point x="467" y="618" type="line"/>
      <point x="444.265" y="621.248"/>
      <point x="414.402" y="623"/>
      <point x="386" y="623" type="curve" smooth="yes"/>
      <point x="376.066" y="623"/>
      <point x="364.275" y="622.379"/>
      <point x="356" y="621" type="curve"/>
      <point x="356" y="-185" type="line"/>
      <point x="278" y="-185" type="line"/>
      <point x="278" y="262" type="line"/>
      <point x="141.004" y="275.576"/>
      <point x="43" y="333.975"/>
      <point x="43" y="479" type="curve" smooth="yes"/>
      <point x="43" y="559.176"/>
      <point x="79.226" y="610.151"/>
      <point x="130" y="644" type="curve" smooth="yes"/>
      <point x="187.052" y="682.035"/>
      <point x="269.718" y="700"/>
      <point x="366" y="700" type="curve" smooth="yes"/>
      <point x="425.642" y="700"/>
      <point x="495.462" y="695.082"/>
      <point x="545" y="683" type="curve"/>
      <point x="545" y="-185" type="line"/>
      <point x="467" y="-185" type="line"/>
    </contour>
  </outline>
</glyph>
<glyph name="cedilla" format="1">
  <advance width="376"/>
  <unicode hex="00B8"/>
  <outline>
    <contour>
      <point x="228" y="20" type="line"/>
      <point x="220.644" y="6.51331"/>
      <point x="205.148" y="-22.2448"/>
      <point x="199" y="-37" type="curve"/>
      <point x="233.686" y="-53.7448"/>
      <point x="254" y="-68.5362"/>
      <point x="254" y="-116" type="curve" smooth="yes"/>
      <point x="254" y="-167.458"/>
      <point x="204.879" y="-189"/>
      <point x="151" y="-189" type="curve" smooth="yes"/>
      <point x="120.734" y="-189"/>
      <point x="89.3136" y="-183.813"/>
      <point x="69" y="-176" type="curve"/>
      <point x="80" y="-119" type="line"/>
      <point x="96.537" y="-124.512"/>
      <point x="113.656" y="-129"/>
      <point x="136" y="-129" type="curve" smooth="yes"/>
      <point x="160" y="-129"/>
      <point x="172" y="-121.333"/>
      <point x="172" y="-106" type="curve" smooth="yes"/>
      <point x="172" y="-84.8253"/>
      <point x="141.771" y="-77.0445"/>
      <point x="123" y="-69" type="curve"/>
      <point x="131.964" y="-39.1197"/>
      <point x="149.239" y="-4.60244"/>
      <point x="164" y="20" type="curve"/>
    </contour>
  </outline>
</glyph>
<glyph name="onesuperior" format="1">
  <advance width="359"/>
  <unicode hex="00B9"/>
  <outline>
    <contour>
      <point x="50" y="621" type="line"/>
      <point x="100.8" y="638.379"/>
      <point x="154.039" y="667.334"/>
      <point x="189" y="701" type="curve"/>
      <point x="238" y="701" type="line"/>
      <point x="238" y="315" type="line"/>
      <point x="168" y="315" type="line"/>
      <point x="168" y="609" type="line"/>
      <point x="142.983" y="593.08"/>
      <point x="98.9177" y="575.975"/>
      <point x="69" y="567" type="curve"/>
    </contour>
  </outline>
</glyph>
<glyph name="ordmasculine" format="1">
  <advance width="446"/>
  <unicode hex="00BA"/>
  <outline>
    <contour>
      <point x="403" y="518" type="curve" smooth="yes"/>
      <point x="403" y="428.431"/>
      <point x="359.046" y="367.701"/>
      <point x="295" y="341.5" type="curve" smooth="yes"/>
      <point x="273" y="332.5"/>
      <point x="249" y="328"/>
      <point x="223" y="328" type="curve" smooth="yes"/>
      <point x="136.082" y="328"/>
      <point x="81.1651" y="376.053"/>
      <point x="56.5" y="440" type="curve" smooth="yes"/>
      <point x="47.5" y="463.333"/>
      <point x="43" y="489.333"/>
      <point x="43" y="518" type="curve" smooth="yes"/>
      <point x="43" y="608.176"/>
      <point x="86.576" y="668.145"/>
      <point x="151" y="694.5" type="curve" smooth="yes"/>
      <point x="173" y="703.5"/>
      <point x="197" y="708"/>
      <point x="223" y="708" type="curve" smooth="yes"/>
      <point x="309.623" y="708"/>
      <point x="365.135" y="660.572"/>
      <point x="389.5" y="596.5" type="curve" smooth="yes"/>
      <point x="398.5" y="572.833"/>
      <point x="403" y="546.667"/>
    </contour>
    <contour>
      <point x="223" y="395" type="curve" smooth="yes"/>
      <point x="292.81" y="395"/>
      <point x="329" y="447.263"/>
      <point x="329" y="518" type="curve" smooth="yes"/>
      <point x="329" y="589.585"/>
      <point x="293.298" y="641"/>
      <point x="223" y="641" type="curve" smooth="yes"/>
      <point x="153.603" y="641"/>
      <point x="117" y="589.011"/>
      <point x="117" y="518" type="curve" smooth="yes"/>
      <point x="117" y="447.251"/>
      <point x="153.184" y="395"/>
    </contour>
  </outline>
</glyph>
<glyph name="questiondown" format="1">
  <advance width="404"/>
  <unicode hex="00BF"/>
  <outline>
    <contour>
      <point x="385" y="-148" type="line"/>
      <point x="341.38" y="-171.093"/>
      <point x="283.684" y="-188"/>
      <point x="218" y="-188" type="curve" smooth="yes"/>
      <point x="150.564" y="-188"/>
      <point x="102.158" y="-169.933"/>
      <point x="69.5" y="-138" type="curve" smooth="yes"/>
      <point x="44.4273" y="-113.484"/>
      <point x="28" y="-78.448"/>
      <point x="28" y="-34" type="curve" smooth="yes"/>
      <point x="28" y="14.0824"/>
      <point x="49.1538" y="46.2428"/>
      <point x="72" y="74.5" type="curve" smooth="yes"/>
      <point x="109.227" y="120.544"/>
      <point x="157.541" y="156.925"/>
      <point x="184.5" y="213" type="curve" smooth="yes"/>
      <point x="192.833" y="230.333"/>
      <point x="197" y="250"/>
      <point x="197" y="272" type="curve" smooth="yes"/>
      <point x="197" y="281.5" type="line" smooth="yes"/>
      <point x="197" y="284.5"/>
      <point x="196.667" y="287.667"/>
      <point x="196" y="291" type="curve"/>
      <point x="274" y="291" type="line"/>
      <point x="276.667" y="277.667"/>
      <point x="278" y="264.667"/>
      <point x="278" y="252" type="curve" smooth="yes"/>
      <point x="278" y="206.314"/>
      <point x="258.714" y="173.064"/>
      <point x="238.5" y="145.5" type="curve" smooth="yes"/>
      <point x="207.066" y="102.636"/>
      <point x="163.461" y="69.4077"/>
      <point x="137.5" y="22" type="curve" smooth="yes"/>
      <point x="129.833" y="8"/>
      <point x="126" y="-7"/>
      <point x="126" y="-23" type="curve" smooth="yes"/>
      <point x="126" y="-78.7951"/>
      <point x="170.994" y="-110"/>
      <point x="230" y="-110" type="curve" smooth="yes"/>
      <point x="274" y="-110"/>
      <point x="317" y="-98.6667"/>
      <point x="359" y="-76" type="curve"/>
    </contour>
    <contour>
      <point x="230" y="386" type="curve" smooth="yes"/>
      <point x="190.87" y="386"/>
      <point x="163" y="415.187"/>
      <point x="163" y="453" type="curve" smooth="yes"/>
      <point x="163" y="490.804"/>
      <point x="190.88" y="520"/>
      <point x="230" y="520" type="curve" smooth="yes"/>
      <point x="269.13" y="520"/>
      <point x="297" y="490.813"/>
      <point x="297" y="453" type="curve" smooth="yes"/>
      <point x="297" y="415.196"/>
      <point x="269.12" y="386"/>
    </contour>
  </outline>
</glyph>
<glyph name="Aring" format="1">
  <advance width="663"/>
  <unicode hex="00C5"/>
  <outline>
    <contour>
      <point x="549" y="0" type="line"/>
      <point x="526.367" y="59.9118"/>
      <point x="507.575" y="117.322"/>
      <point x="486" y="178" type="curve"/>
      <point x="172" y="178" type="line"/>
      <point x="109" y="0" type="line"/>
      <point x="8" y="0" type="line"/>
      <point x="90.9055" y="228.55"/>
      <point x="170.838" y="443.955"/>
      <point x="268" y="653" type="curve"/>
      <point x="244.395" y="670.393"/>
      <point x="227" y="697.395"/>
      <point x="227" y="737" type="curve" smooth="yes"/>
      <point x="227" y="798.077"/>
      <point x="269.423" y="839"/>
      <point x="330" y="839" type="curve" smooth="yes"/>
      <point x="378.061" y="839"/>
      <point x="409.039" y="813.149"/>
      <point x="424.5" y="779.5" type="curve" smooth="yes"/>
      <point x="430.167" y="767.167"/>
      <point x="433" y="753"/>
      <point x="433" y="737" type="curve" smooth="yes"/>
      <point x="433" y="698.806"/>
      <point x="415.245" y="672.302"/>
      <point x="393" y="655" type="curve"/>
      <point x="490.557" y="445.104"/>
      <point x="570.651" y="228.629"/>
      <point x="655" y="0" type="curve"/>
    </contour>
    <contour>
      <point x="458" y="257" type="line"/>
      <point x="416.727" y="369.212"/>
      <point x="375.992" y="478.341"/>
      <point x="329" y="582" type="curve"/>
      <point x="280.754" y="478.616"/>
      <point x="240.17" y="371.031"/>
      <point x="200" y="257" type="curve"/>
    </contour>
    <contour>
      <point x="330" y="682" type="curve" smooth="yes"/>
      <point x="361.193" y="682"/>
      <point x="383" y="704.521"/>
      <point x="383" y="737" type="curve" smooth="yes"/>
      <point x="383" y="769.489"/>
      <point x="361.201" y="792"/>
      <point x="330" y="792" type="curve" smooth="yes"/>
      <point x="298.807" y="792"/>
      <point x="277" y="769.479"/>
      <point x="277" y="737" type="curve" smooth="yes"/>
      <point x="277" y="704.511"/>
      <point x="298.799" y="682"/>
    </contour>
  </outline>
</glyph>
<glyph name="AE" format="1">
  <advance width="935"/>
  <unicode hex="00C6"/>
  <outline>
    <contour>
      <point x="6" y="0" type="line"/>
      <point x="136.258" y="246.805"/>
      <point x="273.869" y="475.554"/>
      <point x="427" y="693" type="curve"/>
      <point x="873" y="693" type="line"/>
      <point x="873" y="612" type="line"/>
      <point x="572" y="612" type="line"/>
      <point x="572" y="403" type="line"/>
      <point x="837" y="403" type="line"/>
      <point x="837" y="324" type="line"/>
      <point x="572" y="324" type="line"/>
      <point x="572" y="81" type="line"/>
      <point x="898" y="81" type="line"/>
      <point x="898" y="0" type="line"/>
      <point x="476" y="0" type="line"/>
      <point x="476" y="178" type="line"/>
      <point x="203" y="178" type="line"/>
      <point x="171.207" y="119.712"/>
      <point x="139.484" y="60.3092"/>
      <point x="110" y="0" type="curve"/>
    </contour>
    <contour>
      <point x="476" y="617" type="line"/>
      <point x="396.002" y="508.324"/>
      <point x="321.24" y="384.269"/>
      <point x="248" y="257" type="curve"/>
      <point x="476" y="257" type="line"/>
    </contour>
  </outline>
</glyph>
<glyph name="Ccedilla" format="1">
  <advance width="620"/>
  <unicode hex="00C7"/>
  <outline>
    <contour>
      <point x="355" y="-106" type="curve" smooth="yes"/>
      <point x="355" y="-84.8253"/>
      <point x="324.771" y="-77.0445"/>
      <point x="306" y="-69" type="curve"/>
      <point x="311.826" y="-51.5218"/>
      <point x="321.846" y="-27.3088"/>
      <point x="330" y="-11" type="curve"/>
      <point x="196.087" y="6.27911"/>
      <point x="113.958" y="88.6486"/>
      <point x="77.5" y="205.5" type="curve" smooth="yes"/>
      <point x="64.5" y="247.167"/>
      <point x="58" y="294.333"/>
      <point x="58" y="347" type="curve" smooth="yes"/>
      <point x="58" y="519.085"/>
      <point x="138.56" y="636.024"/>
      <point x="261" y="685" type="curve" smooth="yes"/>
      <point x="301" y="701"/>
      <point x="343.667" y="709"/>
      <point x="389" y="709" type="curve" smooth="yes"/>
      <point x="470.013" y="709"/>
      <point x="542.387" y="692.742"/>
      <point x="590" y="661" type="curve"/>
      <point x="562" y="581" type="line"/>
      <point x="534.407" y="599.395"/>
      <point x="490.497" y="612.442"/>
      <point x="450.5" y="619.5" type="curve" smooth="yes"/>
      <point x="433.5" y="622.5"/>
      <point x="416.333" y="624"/>
      <point x="399" y="624" type="curve" smooth="yes"/>
      <point x="277.615" y="624"/>
      <point x="207.519" y="556.195"/>
      <point x="177.5" y="462.5" type="curve" smooth="yes"/>
      <point x="166.5" y="428.167"/>
      <point x="161" y="389.667"/>
      <point x="161" y="347" type="curve" smooth="yes"/>
      <point x="161" y="220.72"/>
      <point x="204.782" y="129.87"/>
      <point x="291.5" y="90" type="curve" smooth="yes"/>
      <point x="320.5" y="76.6667"/>
      <point x="354.333" y="70"/>
      <point x="393" y="70" type="curve" smooth="yes"/>
      <point x="466.68" y="70"/>
      <point x="527.102" y="87.5508"/>
      <point x="570" y="109" type="curve"/>
      <point x="595" y="29" type="line"/>
      <point x="585.667" y="21.6667"/>
      <point x="563.167" y="12.8333"/>
      <point x="527.5" y="2.5" type="curve" smooth="yes"/>
      <point x="491.833" y="-7.83333"/>
      <point x="446.667" y="-13.6667"/>
      <point x="392" y="-15" type="curve"/>
      <point x="388.337" y="-22.3265"/>
      <point x="384.974" y="-29.5649"/>
      <point x="382" y="-37" type="curve"/>
      <point x="416.686" y="-53.7448"/>
      <point x="437" y="-68.5362"/>
      <point x="437" y="-116" type="curve" smooth="yes"/>
      <point x="437" y="-167.458"/>
      <point x="387.879" y="-189"/>
      <point x="334" y="-189" type="curve" smooth="yes"/>
      <point x="303.734" y="-189"/>
      <point x="272.314" y="-183.813"/>
      <point x="252" y="-176" type="curve"/>
      <point x="263" y="-119" type="line"/>
      <point x="279.537" y="-124.512"/>
      <point x="296.656" y="-129"/>
      <point x="319" y="-129" type="curve" smooth="yes"/>
      <point x="343" y="-129"/>
      <point x="355" y="-121.333"/>
    </contour>
  </outline>
</glyph>
<glyph name="Eth" format="1">
  <advance width="726"/>
  <unicode hex="00D0"/>
  <outline>
    <contour>
      <point x="99" y="683" type="line"/>
      <point x="148.105" y="694.977"/>
      <point x="223.711" y="700"/>
      <point x="283" y="700" type="curve" smooth="yes"/>
      <point x="462.779" y="700"/>
      <point x="586.218" y="631.233"/>
      <point x="640" y="503.5" type="curve" smooth="yes"/>
      <point x="658.667" y="459.167"/>
      <point x="668" y="407"/>
      <point x="668" y="347" type="curve" smooth="yes"/>
      <point x="668" y="164.513"/>
      <point x="579.354" y="58.0016"/>
      <point x="439" y="15.5" type="curve" smooth="yes"/>
      <point x="391.667" y="1.16667"/>
      <point x="339.667" y="-6"/>
      <point x="283" y="-6" type="curve" smooth="yes"/>
      <point x="223.778" y="-6"/>
      <point x="148.023" y="-0.956785"/>
      <point x="99" y="11" type="curve"/>
      <point x="99" y="324" type="line"/>
      <point x="19" y="324" type="line"/>
      <point x="19" y="399" type="line"/>
      <point x="99" y="399" type="line"/>
    </contour>
    <contour>
      <point x="196" y="82" type="line"/>
      <point x="223.976" y="78.8916"/>
      <point x="250.87" y="79"/>
      <point x="291" y="79" type="curve" smooth="yes"/>
      <point x="469.39" y="79"/>
      <point x="565" y="172.369"/>
      <point x="565" y="347" type="curve" smooth="yes"/>
      <point x="565" y="521.612"/>
      <point x="469.37" y="615"/>
      <point x="291" y="615" type="curve" smooth="yes"/>
      <point x="250.68" y="615"/>
      <point x="224.212" y="615.135"/>
      <point x="196" y="612" type="curve"/>
      <point x="196" y="399" type="line"/>
      <point x="326" y="399" type="line"/>
      <point x="326" y="324" type="line"/>
      <point x="196" y="324" type="line"/>
    </contour>
  </outline>
</glyph>
<glyph name="Oslash" format="1">
  <advance width="778"/>
  <unicode hex="00D8"/>
  <outline>
    <contour>
      <point x="144" y="90" type="line"/>
      <point x="90.9928" y="149.633"/>
      <point x="58" y="234.539"/>
      <point x="58" y="347" type="curve" smooth="yes"/>
      <point x="58" y="521.123"/>
      <point x="137.143" y="638.344"/>
      <point x="262.5" y="686" type="curve" smooth="yes"/>
      <point x="302.833" y="701.333"/>
      <point x="345.667" y="709"/>
      <point x="391" y="709" type="curve" smooth="yes"/>
      <point x="461.667" y="709"/>
      <point x="524.333" y="690.333"/>
      <point x="579" y="653" type="curve"/>
      <point x="638" y="730" type="line"/>
      <point x="700" y="684" type="line"/>
      <point x="636" y="601" type="line"/>
      <point x="687.39" y="541.704"/>
      <point x="720" y="457.23"/>
      <point x="720" y="347" type="curve" smooth="yes"/>
      <point x="720" y="173.843"/>
      <point x="641.462" y="55.9181"/>
      <point x="517.5" y="8" type="curve" smooth="yes"/>
      <point x="477.833" y="-7.33333"/>
      <point x="435.667" y="-15"/>
      <point x="391" y="-15" type="curve" smooth="yes"/>
      <point x="313.049" y="-15"/>
      <point x="251.71" y="6.26422"/>
      <point x="202" y="39" type="curve"/>
      <point x="144" y="-36" type="line"/>
      <point x="82" y="10" type="line"/>
    </contour>
    <contour>
      <point x="160" y="347" type="curve" smooth="yes"/>
      <point x="160" y="274.333"/>
      <point x="174.667" y="214.667"/>
      <point x="204" y="168" type="curve"/>
      <point x="523" y="581" type="line"/>
      <point x="486.333" y="609.667"/>
      <point x="441.667" y="624"/>
      <point x="389" y="624" type="curve" smooth="yes"/>
      <point x="270.717" y="624"/>
      <point x="204.651" y="553.72"/>
      <point x="176" y="461.5" type="curve" smooth="yes"/>
      <point x="165.333" y="427.167"/>
      <point x="160" y="389"/>
    </contour>
    <contour>
      <point x="389" y="70" type="curve" smooth="yes"/>
      <point x="506.853" y="70"/>
      <point x="572.445" y="140.59"/>
      <point x="601" y="232.5" type="curve" smooth="yes"/>
      <point x="611.667" y="266.833"/>
      <point x="617" y="305"/>
      <point x="617" y="347" type="curve" smooth="yes"/>
      <point x="617" y="418.698"/>
      <point x="601.282" y="476.006"/>
      <point x="575" y="522" type="curve"/>
      <point x="257" y="111" type="line"/>
      <point x="292.333" y="83.6667"/>
      <point x="336.333" y="70"/>
    </contour>
  </outline>
</glyph>
<glyph name="Thorn" format="1">
  <advance width="609"/>
  <unicode hex="00DE"/>
  <outline>
    <contour>
      <point x="471" y="363" type="curve" smooth="yes"/>
      <point x="471" y="477.004"/>
      <point x="374.116" y="499"/>
      <point x="259" y="499" type="curve" smooth="yes"/>
      <point x="221.5" y="499" type="line" smooth="yes"/>
      <point x="208.5" y="499"/>
      <point x="195.667" y="498.333"/>
      <point x="183" y="497" type="curve"/>
      <point x="183" y="222" type="line"/>
      <point x="256" y="222" type="line" smooth="yes"/>
      <point x="375.623" y="222"/>
      <point x="471" y="244.501"/>
    </contour>
    <contour>
      <point x="573" y="362" type="curve" smooth="yes"/>
      <point x="573" y="189.079"/>
      <point x="434.981" y="142"/>
      <point x="260" y="142" type="curve" smooth="yes"/>
      <point x="183" y="142" type="line"/>
      <point x="183" y="0" type="line"/>
      <point x="86" y="0" type="line"/>
      <point x="86" y="693" type="line"/>
      <point x="183" y="693" type="line"/>
      <point x="183" y="580" type="line"/>
      <point x="207.067" y="582.533"/>
      <point x="235.894" y="583"/>
      <point x="262" y="583" type="curve" smooth="yes"/>
      <point x="469.333" y="583"/>
      <point x="573" y="509.333"/>
    </contour>
  </outline>
</glyph>
<glyph name="germandbls" format="1">
  <advance width="623"/>
  <unicode hex="00DF"/>
  <outline>
    <contour>
      <point x="294" y="776" type="curve" smooth="yes"/>
      <point x="412.368" y="776"/>
      <point x="498" y="731.087"/>
      <point x="498" y="616" type="curve" smooth="yes"/>
      <point x="498" y="549.759"/>
      <point x="458.831" y="513.725"/>
      <point x="427" y="479" type="curve" smooth="yes"/>
      <point x="411.667" y="462.333"/>
      <point x="398.667" y="448.5"/>
      <point x="388" y="437.5" type="curve" smooth="yes"/>
      <point x="377.333" y="426.5"/>
      <point x="372" y="412.667"/>
      <point x="372" y="396" type="curve" smooth="yes"/>
      <point x="372" y="361.905"/>
      <point x="401.737" y="347.472"/>
      <point x="425.5" y="336" type="curve" smooth="yes"/>
      <point x="503.89" y="298.156"/>
      <point x="583" y="266.03"/>
      <point x="583" y="150" type="curve" smooth="yes"/>
      <point x="583" y="34.8707"/>
      <point x="506.858" y="-12"/>
      <point x="384" y="-12" type="curve" smooth="yes"/>
      <point x="334.006" y="-12"/>
      <point x="285.462" y="-0.731044"/>
      <point x="252" y="16" type="curve"/>
      <point x="268" y="97" type="line"/>
      <point x="299.532" y="81.234"/>
      <point x="343.597" y="67"/>
      <point x="391" y="67" type="curve" smooth="yes"/>
      <point x="450.598" y="67"/>
      <point x="489" y="92.5574"/>
      <point x="489" y="148" type="curve" smooth="yes"/>
      <point x="489" y="174"/>
      <point x="481.333" y="195.333"/>
      <point x="466" y="212" type="curve" smooth="yes"/>
      <point x="450.667" y="228.667"/>
      <point x="424" y="245.667"/>
      <point x="386" y="263" type="curve" smooth="yes"/>
      <point x="349.972" y="279.376"/>
      <point x="319.215" y="294.249"/>
      <point x="298" y="319" type="curve" smooth="yes"/>
      <point x="283.277" y="336.177"/>
      <point x="276" y="353.212"/>
      <point x="276" y="383" type="curve" smooth="yes"/>
      <point x="276" y="409.667"/>
      <point x="283.333" y="432"/>
      <point x="298" y="450" type="curve" smooth="yes"/>
      <point x="325.4" y="483.627"/>
      <point x="359.162" y="513.613"/>
      <point x="385" y="549.5" type="curve" smooth="yes"/>
      <point x="395.145" y="563.59"/>
      <point x="405" y="580.139"/>
      <point x="405" y="602" type="curve" smooth="yes"/>
      <point x="405" y="664.467"/>
      <point x="366.02" y="695"/>
      <point x="301" y="695" type="curve" smooth="yes"/>
      <point x="211.51" y="695"/>
      <point x="173" y="641.098"/>
      <point x="173" y="552" type="curve" smooth="yes"/>
      <point x="173" y="0" type="line"/>
      <point x="80" y="0" type="line"/>
      <point x="80" y="554" type="line" smooth="yes"/>
      <point x="80" y="659.886"/>
      <point x="125.591" y="729.437"/>
      <point x="202" y="760" type="curve" smooth="yes"/>
      <point x="228.667" y="770.667"/>
      <point x="259.333" y="776"/>
    </contour>
  </outline>
</glyph>
<glyph name="ae" format="1">
  <advance width="859"/>
  <unicode hex="00E6"/>
  <outline>
    <contour>
      <point x="769" y="17" type="line"/>
      <point x="736.303" y="-0.310075"/>
      <point x="669.423" y="-12"/>
      <point x="613" y="-12" type="curve" smooth="yes"/>
      <point x="536.289" y="-12"/>
      <point x="481.518" y="6.45421"/>
      <point x="439" y="41" type="curve"/>
      <point x="395.402" y="10.4817"/>
      <point x="334.696" y="-12"/>
      <point x="259" y="-12" type="curve" smooth="yes"/>
      <point x="132.497" y="-12"/>
      <point x="44" y="29.2705"/>
      <point x="44" y="155" type="curve" smooth="yes"/>
      <point x="44" y="273.785"/>
      <point x="144.389" y="316"/>
      <point x="263" y="316" type="curve" smooth="yes"/>
      <point x="296.85" y="316"/>
      <point x="330.097" y="309.726"/>
      <point x="357" y="303" type="curve"/>
      <point x="357" y="329" type="line" smooth="yes"/>
      <point x="357" y="408.205"/>
      <point x="321.138" y="453"/>
      <point x="240" y="453" type="curve" smooth="yes"/>
      <point x="190.491" y="453"/>
      <point x="139.118" y="445.813"/>
      <point x="108" y="433" type="curve"/>
      <point x="97" y="510" type="line"/>
      <point x="128.606" y="524.047"/>
      <point x="195.257" y="533"/>
      <point x="246" y="533" type="curve" smooth="yes"/>
      <point x="334.739" y="533"/>
      <point x="388.109" y="502.572"/>
      <point x="416" y="444" type="curve"/>
      <point x="452.802" y="494.185"/>
      <point x="509.548" y="533"/>
      <point x="588" y="533" type="curve" smooth="yes"/>
      <point x="740.13" y="533"/>
      <point x="805" y="429.247"/>
      <point x="805" y="268" type="curve" smooth="yes"/>
      <point x="805" y="258.547"/>
      <point x="804" y="252.351"/>
      <point x="804" y="244" type="curve" smooth="yes"/>
      <point x="804" y="235" type="line"/>
      <point x="448" y="235" type="line"/>
      <point x="455.993" y="128.433"/>
      <point x="508.104" y="70"/>
      <point x="623" y="70" type="curve" smooth="yes"/>
      <point x="676.619" y="70"/>
      <point x="723.846" y="79.8686"/>
      <point x="756" y="95" type="curve"/>
    </contour>
    <contour>
      <point x="138" y="156" type="curve" smooth="yes"/>
      <point x="138" y="84.7407"/>
      <point x="188.059" y="67"/>
      <point x="261" y="67" type="curve" smooth="yes"/>
      <point x="319.175" y="67"/>
      <point x="358.764" y="80.2126"/>
      <point x="389" y="101" type="curve"/>
      <point x="370.141" y="136.203"/>
      <point x="357.413" y="178.126"/>
      <point x="356" y="229" type="curve"/>
      <point x="335.24" y="238.436"/>
      <point x="305.329" y="241"/>
      <point x="271" y="241" type="curve" smooth="yes"/>
      <point x="217.962" y="241"/>
      <point x="174.793" y="229.698"/>
      <point x="151" y="199.5" type="curve" smooth="yes"/>
      <point x="142.333" y="188.5"/>
      <point x="138" y="174"/>
    </contour>
    <contour>
      <point x="708" y="310" type="line"/>
      <point x="709.275" y="390.316"/>
      <point x="665.519" y="454"/>
      <point x="587" y="454" type="curve" smooth="yes"/>
      <point x="501.49" y="454"/>
      <point x="458.505" y="386.542"/>
      <point x="450" y="310" type="curve"/>
    </contour>
  </outline>
</glyph>
<glyph name="ccedilla" format="1">
  <advance width="465"/>
  <unicode hex="00E7"/>
  <outline>
    <contour>
      <point x="318" y="70" type="curve" smooth="yes"/>
      <point x="360.817" y="70"/>
      <point x="405.07" y="79.3272"/>
      <point x="432" y="92" type="curve"/>
      <point x="445" y="14" type="line"/>
      <point x="412.705" y="-2.14758"/>
      <point x="364.043" y="-9.5767"/>
      <point x="318" y="-12" type="curve"/>
      <point x="307" y="-37" type="line"/>
      <point x="341.686" y="-53.7448"/>
      <point x="362" y="-68.5362"/>
      <point x="362" y="-116" type="curve" smooth="yes"/>
      <point x="362" y="-167.458"/>
      <point x="312.879" y="-189"/>
      <point x="259" y="-189" type="curve" smooth="yes"/>
      <point x="228.734" y="-189"/>
      <point x="197.314" y="-183.813"/>
      <point x="177" y="-176" type="curve"/>
      <point x="188" y="-119" type="line"/>
      <point x="204.537" y="-124.512"/>
      <point x="221.656" y="-129"/>
      <point x="244" y="-129" type="curve" smooth="yes"/>
      <point x="268" y="-129"/>
      <point x="280" y="-121.333"/>
      <point x="280" y="-106" type="curve" smooth="yes"/>
      <point x="280" y="-84.8253"/>
      <point x="249.771" y="-77.0445"/>
      <point x="231" y="-69" type="curve"/>
      <point x="237.085" y="-50.7461"/>
      <point x="247.975" y="-24.9213"/>
      <point x="257" y="-8" type="curve"/>
      <point x="123.969" y="10.2591"/>
      <point x="51" y="108.485"/>
      <point x="51" y="259" type="curve" smooth="yes"/>
      <point x="51" y="385.335"/>
      <point x="107.884" y="473.433"/>
      <point x="196.5" y="512.5" type="curve" smooth="yes"/>
      <point x="227.5" y="526.167"/>
      <point x="262" y="533"/>
      <point x="300" y="533" type="curve" smooth="yes"/>
      <point x="351.6" y="533"/>
      <point x="398.297" y="523.723"/>
      <point x="437" y="508" type="curve"/>
      <point x="416" y="429" type="line"/>
      <point x="388.245" y="442.216"/>
      <point x="350.069" y="451"/>
      <point x="309" y="451" type="curve" smooth="yes"/>
      <point x="197.568" y="451"/>
      <point x="148" y="375.299"/>
      <point x="148" y="259" type="curve" smooth="yes"/>
      <point x="148" y="141.262"/>
      <point x="199.59" y="70"/>
    </contour>
  </outline>
</glyph>
<glyph name="eth" format="1">
  <advance width="589"/>
  <unicode hex="00F0"/>
  <outline>
    <contour>
      <point x="309" y="776" type="line"/>
      <point x="347.557" y="751.464"/>
      <point x="385.214" y="716.459"/>
      <point x="417" y="677" type="curve"/>
      <point x="541" y="720" type="line"/>
      <point x="564" y="657" type="line"/>
      <point x="457" y="620" type="line"/>
      <point x="501.313" y="545.221"/>
      <point x="533" y="449.583"/>
      <point x="533" y="328" type="curve" smooth="yes"/>
      <point x="533" y="184.052"/>
      <point x="497.426" y="70.0557"/>
      <point x="406.5" y="15.5" type="curve" smooth="yes"/>
      <point x="374.833" y="-3.5"/>
      <point x="335" y="-13"/>
      <point x="287" y="-13" type="curve" smooth="yes"/>
      <point x="205.447" y="-13"/>
      <point x="146.985" y="21.2561"/>
      <point x="109.5" y="67" type="curve" smooth="yes"/>
      <point x="73.9134" y="110.428"/>
      <point x="51" y="173.015"/>
      <point x="51" y="248" type="curve" smooth="yes"/>
      <point x="51" y="363.532"/>
      <point x="103.172" y="441.514"/>
      <point x="187.5" y="473.5" type="curve" smooth="yes"/>
      <point x="216.5" y="484.5"/>
      <point x="249" y="490"/>
      <point x="285" y="490" type="curve" smooth="yes"/>
      <point x="343.535" y="490"/>
      <point x="399.96" y="467.364"/>
      <point x="430" y="444" type="curve"/>
      <point x="422" y="497.333"/>
      <point x="403.667" y="546.667"/>
      <point x="375" y="592" type="curve"/>
      <point x="255" y="551" type="line"/>
      <point x="232" y="614" type="line"/>
      <point x="334" y="649" type="line"/>
      <point x="312" y="675"/>
      <point x="284" y="700.333"/>
      <point x="250" y="725" type="curve"/>
    </contour>
    <contour>
      <point x="297" y="409" type="curve" smooth="yes"/>
      <point x="196.047" y="409"/>
      <point x="146" y="347.709"/>
      <point x="146" y="248" type="curve" smooth="yes"/>
      <point x="146" y="170.589"/>
      <point x="174.893" y="111.19"/>
      <point x="225.5" y="83.5" type="curve" smooth="yes"/>
      <point x="243.167" y="73.8333"/>
      <point x="263.667" y="69"/>
      <point x="287" y="69" type="curve" smooth="yes"/>
      <point x="413.646" y="69"/>
      <point x="438" y="198.468"/>
      <point x="438" y="325" type="curve" smooth="yes"/>
      <point x="438" y="335.667"/>
      <point x="437" y="346.333"/>
      <point x="437" y="357" type="curve"/>
      <point x="400.774" y="388.965"/>
      <point x="355.45" y="409"/>
    </contour>
  </outline>
</glyph>
<glyph name="divide" format="1">
  <advance width="564"/>
  <unicode hex="00F7"/>
  <outline>
    <contour>
      <point x="342" y="106" type="curve" smooth="yes"/>
      <point x="342" y="70.368"/>
      <point x="316.662" y="45"/>
      <point x="282" y="45" type="curve" smooth="yes"/>
      <point x="247.344" y="45"/>
      <point x="222" y="70.3755"/>
      <point x="222" y="106" type="curve" smooth="yes"/>
      <point x="222" y="141.632"/>
      <point x="247.338" y="167"/>
      <point x="282" y="167" type="curve" smooth="yes"/>
      <point x="316.656" y="167"/>
      <point x="342" y="141.625"/>
    </contour>
    <contour>
      <point x="342" y="492" type="curve" smooth="yes"/>
      <point x="342" y="456.368"/>
      <point x="316.662" y="431"/>
      <point x="282" y="431" type="curve" smooth="yes"/>
      <point x="247.344" y="431"/>
      <point x="222" y="456.375"/>
      <point x="222" y="492" type="curve" smooth="yes"/>
      <point x="222" y="527.632"/>
      <point x="247.338" y="553"/>
      <point x="282" y="553" type="curve" smooth="yes"/>
      <point x="316.656" y="553"/>
      <point x="342" y="527.625"/>
    </contour>
    <contour>
      <point x="53" y="339" type="line"/>
      <point x="511" y="339" type="line"/>
      <point x="511" y="260" type="line"/>
      <point x="53" y="260" type="line"/>
    </contour>
  </outline>
</glyph>
<glyph name="oslash" format="1">
  <advance width="590"/>
  <unicode hex="00F8"/>
  <outline>
    <contour>
      <point x="295" y="533" type="curve" smooth="yes"/>
      <point x="351.687" y="533"/>
      <point x="396.71" y="515.338"/>
      <point x="432" y="491" type="curve"/>
      <point x="481" y="555" type="line"/>
      <point x="534" y="515" type="line"/>
      <point x="480" y="445" type="line"/>
      <point x="515.783" y="400.271"/>
      <point x="539" y="338.836"/>
      <point x="539" y="260" type="curve" smooth="yes"/>
      <point x="539" y="133.183"/>
      <point x="481.866" y="45.0086"/>
      <point x="393" y="6.5" type="curve" smooth="yes"/>
      <point x="363" y="-6.5"/>
      <point x="330.333" y="-13"/>
      <point x="295" y="-13" type="curve" smooth="yes"/>
      <point x="242.333" y="-13"/>
      <point x="196.667" y="0.666667"/>
      <point x="158" y="28" type="curve"/>
      <point x="109" y="-36" type="line"/>
      <point x="56" y="4" type="line"/>
      <point x="110" y="74" type="line"/>
      <point x="74.2505" y="118.687"/>
      <point x="51" y="181.209"/>
      <point x="51" y="260" type="curve" smooth="yes"/>
      <point x="51" y="386.346"/>
      <point x="108.374" y="475.096"/>
      <point x="197" y="513.5" type="curve" smooth="yes"/>
      <point x="227" y="526.5"/>
      <point x="259.667" y="533"/>
    </contour>
    <contour>
      <point x="295" y="452" type="curve" smooth="yes"/>
      <point x="194.043" y="452"/>
      <point x="147" y="366.615"/>
      <point x="147" y="260" type="curve" smooth="yes"/>
      <point x="147" y="216.667"/>
      <point x="154" y="180"/>
      <point x="168" y="150" type="curve"/>
      <point x="380" y="424" type="line"/>
      <point x="356" y="442.667"/>
      <point x="327.667" y="452"/>
    </contour>
    <contour>
      <point x="295" y="68" type="curve" smooth="yes"/>
      <point x="395.957" y="68"/>
      <point x="443" y="153.385"/>
      <point x="443" y="260" type="curve" smooth="yes"/>
      <point x="443" y="301.333"/>
      <point x="435.667" y="337.667"/>
      <point x="421" y="369" type="curve"/>
      <point x="210" y="95" type="line"/>
      <point x="232.667" y="77"/>
      <point x="261" y="68"/>
    </contour>
  </outline>
</glyph>
<glyph name="Aogonek" format="1">
  <advance width="663"/>
  <unicode hex="0104"/>
  <outline>
    <contour>
      <point x="592" y="-187" type="curve" smooth="yes"/>
      <point x="529.644" y="-187"/>
      <point x="482" y="-166.677"/>
      <point x="482" y="-111" type="curve" smooth="yes"/>
      <point x="482" y="-60.2114"/>
      <point x="523.727" y="-28.2732"/>
      <point x="550" y="-2" type="curve"/>
      <point x="527.415" y="57.7844"/>
      <point x="507.529" y="116.449"/>
      <point x="486" y="177" type="curve"/>
      <point x="172" y="177" type="line"/>
      <point x="109" y="0" type="line"/>
      <point x="8" y="0" type="line"/>
      <point x="96.6372" y="243.752"/>
      <point x="181.009" y="472.186"/>
      <point x="287" y="693" type="curve"/>
      <point x="376" y="693" type="line"/>
      <point x="481.626" y="472.945"/>
      <point x="565.072" y="244.329"/>
      <point x="654" y="2" type="curve"/>
      <point x="635.976" y="-8.01348"/>
      <point x="615.729" y="-22.2222"/>
      <point x="600" y="-39" type="curve" smooth="yes"/>
      <point x="590.667" y="-49.6667"/>
      <point x="583.333" y="-59"/>
      <point x="578" y="-67" type="curve" smooth="yes"/>
      <point x="572.667" y="-75"/>
      <point x="570" y="-83.6667"/>
      <point x="570" y="-93" type="curve" smooth="yes"/>
      <point x="570" y="-112.333"/>
      <point x="583.333" y="-122"/>
      <point x="610" y="-122" type="curve" smooth="yes"/>
      <point x="623.37" y="-122"/>
      <point x="639.775" y="-119.082"/>
      <point x="651" y="-115" type="curve"/>
      <point x="658" y="-176" type="line"/>
      <point x="642.096" y="-183.229"/>
      <point x="616.21" y="-187"/>
    </contour>
    <contour>
      <point x="458" y="257" type="line"/>
      <point x="416.727" y="369.212"/>
      <point x="375.992" y="478.341"/>
      <point x="329" y="582" type="curve"/>
      <point x="280.997" y="479.137"/>
      <point x="240.229" y="369.902"/>
      <point x="200" y="257" type="curve"/>
    </contour>
  </outline>
</glyph>
<glyph name="aogonek" format="1">
  <advance width="522"/>
  <unicode hex="0105"/>
  <outline>
    <contour>
      <point x="137" y="156" type="curve" smooth="yes"/>
      <point x="137" y="86.9126"/>
      <point x="185.883" y="67"/>
      <point x="256" y="67" type="curve" smooth="yes"/>
      <point x="293.592" y="67"/>
      <point x="329.02" y="67.4165"/>
      <point x="357" y="74" type="curve"/>
      <point x="357" y="229" type="line"/>
      <point x="337.579" y="238.711"/>
      <point x="303.117" y="241"/>
      <point x="270" y="241" type="curve" smooth="yes"/>
      <point x="216.962" y="241"/>
      <point x="173.793" y="229.698"/>
      <point x="150" y="199.5" type="curve" smooth="yes"/>
      <point x="141.333" y="188.5"/>
      <point x="137" y="174"/>
    </contour>
    <contour>
      <point x="97" y="510" type="line"/>
      <point x="128.997" y="524.221"/>
      <point x="196.49" y="533"/>
      <point x="248" y="533" type="curve" smooth="yes"/>
      <point x="382.997" y="533"/>
      <point x="448" y="467.244"/>
      <point x="448" y="334" type="curve" smooth="yes"/>
      <point x="448" y="9" type="line"/>
      <point x="428.894" y="-5.32917"/>
      <point x="409.572" y="-20.2561"/>
      <point x="392" y="-39" type="curve" smooth="yes"/>
      <point x="382.667" y="-49.6667"/>
      <point x="375" y="-59"/>
      <point x="369" y="-67" type="curve" smooth="yes"/>
      <point x="363" y="-75"/>
      <point x="360" y="-83.6667"/>
      <point x="360" y="-93" type="curve" smooth="yes"/>
      <point x="360" y="-112.333"/>
      <point x="373.333" y="-122"/>
      <point x="400" y="-122" type="curve" smooth="yes"/>
      <point x="413.37" y="-122"/>
      <point x="429.775" y="-119.082"/>
      <point x="441" y="-115" type="curve"/>
      <point x="448" y="-176" type="line"/>
      <point x="432.096" y="-183.229"/>
      <point x="406.21" y="-187"/>
      <point x="382" y="-187" type="curve" smooth="yes"/>
      <point x="319.644" y="-187"/>
      <point x="272" y="-166.677"/>
      <point x="272" y="-111" type="curve" smooth="yes"/>
      <point x="272" y="-76.2417"/>
      <point x="298.538" y="-46.5475"/>
      <point x="317" y="-27" type="curve" smooth="yes"/>
      <point x="323.255" y="-19.4937"/>
      <point x="334.252" y="-11.7482"/>
      <point x="341" y="-5" type="curve"/>
      <point x="311.031" y="-7.60599"/>
      <point x="277.296" y="-11"/>
      <point x="245" y="-11" type="curve" smooth="yes"/>
      <point x="125.037" y="-11"/>
      <point x="43" y="34.8067"/>
      <point x="43" y="155" type="curve" smooth="yes"/>
      <point x="43" y="273.785"/>
      <point x="143.389" y="316"/>
      <point x="262" y="316" type="curve" smooth="yes"/>
      <point x="295.908" y="316"/>
      <point x="329.986" y="309.753"/>
      <point x="357" y="303" type="curve"/>
      <point x="357" y="329" type="line" smooth="yes"/>
      <point x="357" y="408.205"/>
      <point x="321.138" y="453"/>
      <point x="240" y="453" type="curve" smooth="yes"/>
      <point x="190.491" y="453"/>
      <point x="139.118" y="445.813"/>
      <point x="108" y="433" type="curve"/>
    </contour>
  </outline>
</glyph>
<glyph name="Eogonek" format="1">
  <advance width="571"/>
  <unicode hex="0118"/>
  <outline>
    <contour>
      <point x="472" y="-187" type="curve" smooth="yes"/>
      <point x="409.644" y="-187"/>
      <point x="362" y="-166.677"/>
      <point x="362" y="-111" type="curve" smooth="yes"/>
      <point x="362" y="-75.8894"/>
      <point x="385.325" y="-46.7734"/>
      <point x="404" y="-27" type="curve" smooth="yes"/>
      <point x="418.5" y="-12.5" type="line" smooth="yes"/>
      <point x="422.833" y="-8.16667"/>
      <point x="427.667" y="-4"/>
      <point x="433" y="0" type="curve"/>
      <point x="86" y="0" type="line"/>
      <point x="86" y="693" type="line"/>
      <point x="509" y="693" type="line"/>
      <point x="509" y="610" type="line"/>
      <point x="183" y="610" type="line"/>
      <point x="183" y="404" type="line"/>
      <point x="473" y="404" type="line"/>
      <point x="473" y="323" type="line"/>
      <point x="183" y="323" type="line"/>
      <point x="183" y="83" type="line"/>
      <point x="534" y="83" type="line"/>
      <point x="534" y="2" type="line"/>
      <point x="515.976" y="-8.01348"/>
      <point x="495.729" y="-22.2222"/>
      <point x="480" y="-39" type="curve" smooth="yes"/>
      <point x="470.667" y="-49.6667"/>
      <point x="463.333" y="-59"/>
      <point x="458" y="-67" type="curve" smooth="yes"/>
      <point x="452.667" y="-75"/>
      <point x="450" y="-83.6667"/>
      <point x="450" y="-93" type="curve" smooth="yes"/>
      <point x="450" y="-112.333"/>
      <point x="463.333" y="-122"/>
      <point x="490" y="-122" type="curve" smooth="yes"/>
      <point x="503.37" y="-122"/>
      <point x="519.775" y="-119.082"/>
      <point x="531" y="-115" type="curve"/>
      <point x="538" y="-176" type="line"/>
      <point x="522.096" y="-183.229"/>
      <point x="496.21" y="-187"/>
    </contour>
  </outline>
</glyph>
<glyph name="eogonek" format="1">
  <advance width="559"/>
  <unicode hex="0119"/>
  <outline>
    <contour>
      <point x="346" y="-10" type="curve"/>
      <point x="335.905" y="-11.2618"/>
      <point x="324.091" y="-12"/>
      <point x="313" y="-12" type="curve" smooth="yes"/>
      <point x="141.292" y="-12"/>
      <point x="51" y="88.7238"/>
      <point x="51" y="259" type="curve" smooth="yes"/>
      <point x="51" y="389.254"/>
      <point x="107.845" y="479.567"/>
      <point x="200" y="516" type="curve" smooth="yes"/>
      <point x="228.667" y="527.333"/>
      <point x="258" y="533"/>
      <point x="288" y="533" type="curve" smooth="yes"/>
      <point x="441.472" y="533"/>
      <point x="505" y="430.67"/>
      <point x="505" y="268" type="curve" smooth="yes"/>
      <point x="505" y="252.5" type="line" smooth="yes"/>
      <point x="505" y="246.167"/>
      <point x="504.667" y="240.333"/>
      <point x="504" y="235" type="curve"/>
      <point x="148" y="235" type="line"/>
      <point x="155.997" y="127.041"/>
      <point x="206.715" y="70"/>
      <point x="323" y="70" type="curve" smooth="yes"/>
      <point x="376.619" y="70"/>
      <point x="423.846" y="79.8686"/>
      <point x="456" y="95" type="curve"/>
      <point x="469" y="17" type="line"/>
      <point x="435" y="-9" type="line" smooth="yes"/>
      <point x="416.423" y="-23.2063"/>
      <point x="388.812" y="-49.6471"/>
      <point x="377.5" y="-68.5" type="curve" smooth="yes"/>
      <point x="372.5" y="-76.8333"/>
      <point x="370" y="-85"/>
      <point x="370" y="-93" type="curve" smooth="yes"/>
      <point x="370" y="-115.797"/>
      <point x="387.49" y="-122"/>
      <point x="410" y="-122" type="curve" smooth="yes"/>
      <point x="424.293" y="-122"/>
      <point x="440.581" y="-117.977"/>
      <point x="451" y="-115" type="curve"/>
      <point x="458" y="-176" type="line"/>
      <point x="443.372" y="-183.314"/>
      <point x="413.738" y="-187"/>
      <point x="392" y="-187" type="curve" smooth="yes"/>
      <point x="330.912" y="-187"/>
      <point x="282" y="-169.01"/>
      <point x="282" y="-111" type="curve" smooth="yes"/>
      <point x="282" y="-95.6667"/>
      <point x="287.5" y="-79.3333"/>
      <point x="298.5" y="-62" type="curve" smooth="yes"/>
      <point x="309.5" y="-44.6667"/>
      <point x="325.333" y="-27.3333"/>
    </contour>
    <contour>
      <point x="408" y="310" type="line"/>
      <point x="409.275" y="390.316"/>
      <point x="365.519" y="454"/>
      <point x="287" y="454" type="curve" smooth="yes"/>
      <point x="200.921" y="454"/>
      <point x="158.581" y="387.225"/>
      <point x="150" y="310" type="curve"/>
    </contour>
  </outline>
</glyph>
<glyph name="hbar" format="1">
  <advance width="571"/>
  <unicode hex="0127"/>
  <outline>
    <contour>
      <point x="287" y="527" type="curve" smooth="yes"/>
      <point x="441.388" y="527"/>
      <point x="500" y="441.118"/>
      <point x="500" y="288" type="curve" smooth="yes"/>
      <point x="500" y="0" type="line"/>
      <point x="407" y="0" type="line"/>
      <point x="407" y="268" type="line" smooth="yes"/>
      <point x="407" y="349.334"/>
      <point x="396.229" y="413.753"/>
      <point x="339" y="435.5" type="curve" smooth="yes"/>
      <point x="322.333" y="441.833"/>
      <point x="301.667" y="445"/>
      <point x="277" y="445" type="curve" smooth="yes"/>
      <point x="240.493" y="445"/>
      <point x="199.893" y="438.757"/>
      <point x="173" y="428" type="curve"/>
      <point x="173" y="0" type="line"/>
      <point x="80" y="0" type="line"/>
      <point x="80" y="614" type="line"/>
      <point x="6" y="614" type="line"/>
      <point x="6" y="683" type="line"/>
      <point x="80" y="683" type="line"/>
      <point x="80" y="760" type="line"/>
      <point x="173" y="776" type="line"/>
      <point x="173" y="683" type="line"/>
      <point x="350" y="683" type="line"/>
      <point x="350" y="614" type="line"/>
      <point x="173" y="614" type="line"/>
      <point x="173" y="506" type="line"/>
      <point x="204.65" y="518.173"/>
      <point x="245.077" y="527"/>
    </contour>
  </outline>
</glyph>
<glyph name="Iogonek" format="1">
  <advance width="269"/>
  <unicode hex="012E"/>
  <outline>
    <contour>
      <point x="127" y="-187" type="curve" smooth="yes"/>
      <point x="63.7762" y="-187"/>
      <point x="17" y="-167.117"/>
      <point x="17" y="-111" type="curve" smooth="yes"/>
      <point x="17" y="-76.0084"/>
      <point x="41.397" y="-46.6973"/>
      <point x="60" y="-27" type="curve" smooth="yes"/>
      <point x="74.5" y="-12.5" type="line" smooth="yes"/>
      <point x="78.8333" y="-8.16667"/>
      <point x="82.6667" y="-4.66667"/>
      <point x="86" y="-2" type="curve"/>
      <point x="86" y="693" type="line"/>
      <point x="183" y="693" type="line"/>
      <point x="183" y="0" type="line"/>
      <point x="166.308" y="-12.1399"/>
      <point x="151.718" y="-23.055"/>
      <point x="137" y="-39" type="curve" smooth="yes"/>
      <point x="127.667" y="-49.6667"/>
      <point x="120" y="-59"/>
      <point x="114" y="-67" type="curve" smooth="yes"/>
      <point x="108" y="-75"/>
      <point x="105" y="-83.6667"/>
      <point x="105" y="-93" type="curve" smooth="yes"/>
      <point x="105" y="-112.333"/>
      <point x="118.333" y="-122"/>
      <point x="145" y="-122" type="curve" smooth="yes"/>
      <point x="158.37" y="-122"/>
      <point x="174.775" y="-119.082"/>
      <point x="186" y="-115" type="curve"/>
      <point x="193" y="-176" type="line"/>
      <point x="177" y="-183.333"/>
      <point x="155" y="-187"/>
    </contour>
  </outline>
</glyph>
<glyph name="iogonek" format="1">
  <advance width="253"/>
  <unicode hex="012F"/>
  <outline>
    <contour>
      <point x="119" y="-187" type="curve" smooth="yes"/>
      <point x="55.7762" y="-187"/>
      <point x="9" y="-167.117"/>
      <point x="9" y="-111" type="curve" smooth="yes"/>
      <point x="9" y="-75.7143"/>
      <point x="33.5419" y="-47.6297"/>
      <point x="52" y="-27" type="curve" smooth="yes"/>
      <point x="61.3085" y="-16.5279"/>
      <point x="70.1841" y="-8.17994"/>
      <point x="80" y="0" type="curve"/>
      <point x="80" y="520" type="line"/>
      <point x="173" y="520" type="line"/>
      <point x="173" y="0" type="line"/>
      <point x="148.167" y="-18.6247"/>
      <point x="123.736" y="-43.3516"/>
      <point x="106" y="-67" type="curve" smooth="yes"/>
      <point x="100" y="-75"/>
      <point x="97" y="-83.6667"/>
      <point x="97" y="-93" type="curve" smooth="yes"/>
      <point x="97" y="-112.333"/>
      <point x="110.333" y="-122"/>
      <point x="137" y="-122" type="curve" smooth="yes"/>
      <point x="150.37" y="-122"/>
      <point x="166.775" y="-119.082"/>
      <point x="178" y="-115" type="curve"/>
      <point x="185" y="-176" type="line"/>
      <point x="169" y="-183.333"/>
      <point x="147" y="-187"/>
    </contour>
    <contour>
      <point x="186" y="675" type="curve" smooth="yes"/>
      <point x="186" y="639.368"/>
      <point x="160.662" y="614"/>
      <point x="126" y="614" type="curve" smooth="yes"/>
      <point x="91.3436" y="614"/>
      <point x="66" y="639.375"/>
      <point x="66" y="675" type="curve" smooth="yes"/>
      <point x="66" y="710.632"/>
      <point x="91.3376" y="736"/>
      <point x="126" y="736" type="curve" smooth="yes"/>
      <point x="160.656" y="736"/>
      <point x="186" y="710.625"/>
    </contour>
  </outline>
</glyph>
<glyph name="kgreenlandic" format="1">
  <advance width="537"/>
  <unicode hex="0138"/>
  <outline>
    <contour>
      <point x="173" y="297" type="line"/>
      <point x="244.515" y="365.535"/>
      <point x="327.364" y="446.642"/>
      <point x="393" y="520" type="curve"/>
      <point x="501" y="520" type="line"/>
      <point x="429.436" y="441.93"/>
      <point x="344.887" y="357.887"/>
      <point x="270" y="283" type="curve"/>
      <point x="345.045" y="229.742"/>
      <point x="416.432" y="150.517"/>
      <point x="472" y="75.5" type="curve" smooth="yes"/>
      <point x="492" y="48.5"/>
      <point x="509" y="23.3333"/>
      <point x="523" y="0" type="curve"/>
      <point x="413" y="0" type="line"/>
      <point x="365.809" y="72.9318"/>
      <point x="300.329" y="143.569"/>
      <point x="235" y="199" type="curve" smooth="yes"/>
      <point x="213" y="217.667"/>
      <point x="192.333" y="233.333"/>
      <point x="173" y="246" type="curve"/>
      <point x="173" y="0" type="line"/>
      <point x="80" y="0" type="line"/>
      <point x="80" y="520" type="line"/>
      <point x="173" y="520" type="line"/>
    </contour>
  </outline>
</glyph>
<glyph name="lslash" format="1">
  <advance width="287"/>
  <unicode hex="0142"/>
  <outline>
    <contour>
      <point x="250" y="-10" type="line"/>
      <point x="142.206" y="-7.49316"/>
      <point x="92" y="30.4613"/>
      <point x="92" y="136" type="curve" smooth="yes"/>
      <point x="92" y="340" type="line"/>
      <point x="35" y="311" type="line"/>
      <point x="3" y="373" type="line"/>
      <point x="92" y="418" type="line"/>
      <point x="92" y="760" type="line"/>
      <point x="185" y="776" type="line"/>
      <point x="185" y="466" type="line"/>
      <point x="258" y="504" type="line"/>
      <point x="289" y="442" type="line"/>
      <point x="185" y="388" type="line"/>
      <point x="185" y="151" type="line" smooth="yes"/>
      <point x="185" y="109.052"/>
      <point x="194.226" y="85.0323"/>
      <point x="226" y="75.5" type="curve" smooth="yes"/>
      <point x="236" y="72.5"/>
      <point x="248.333" y="70"/>
      <point x="263" y="68" type="curve"/>
    </contour>
  </outline>
</glyph>
<glyph name="Eng" format="1">
  <advance width="728"/>
  <unicode hex="014A"/>
  <outline>
    <contour>
      <point x="485" y="-111" type="curve" smooth="yes"/>
      <point x="537.692" y="-111"/>
      <point x="547" y="-71.9456"/>
      <point x="547" y="-17" type="curve" smooth="yes"/>
      <point x="547" y="24" type="line"/>
      <point x="464.635" y="158.137"/>
      <point x="363.758" y="305.171"/>
      <point x="270" y="430.5" type="curve" smooth="yes"/>
      <point x="237.333" y="474.167"/>
      <point x="207.667" y="511"/>
      <point x="181" y="541" type="curve"/>
      <point x="181" y="0" type="line"/>
      <point x="86" y="0" type="line"/>
      <point x="86" y="693" type="line"/>
      <point x="163" y="693" type="line"/>
      <point x="231.498" y="620.129"/>
      <point x="306.206" y="524.495"/>
      <point x="369.5" y="439.5" type="curve" smooth="yes"/>
      <point x="430.25" y="357.921"/>
      <point x="497.241" y="262.414"/>
      <point x="547" y="180" type="curve"/>
      <point x="547" y="693" type="line"/>
      <point x="642" y="693" type="line"/>
      <point x="642" y="0" type="line" smooth="yes"/>
      <point x="642" y="-86.2937"/>
      <point x="629.502" y="-149.965"/>
      <point x="569" y="-175" type="curve" smooth="yes"/>
      <point x="549.667" y="-183"/>
      <point x="525" y="-187"/>
      <point x="495" y="-187" type="curve" smooth="yes"/>
      <point x="477.482" y="-187"/>
      <point x="446.552" y="-182.696"/>
      <point x="433" y="-179" type="curve"/>
      <point x="442" y="-106" type="line"/>
      <point x="450.618" y="-109.232"/>
      <point x="473.349" y="-111"/>
    </contour>
  </outline>
</glyph>
<glyph name="eng" format="1">
  <advance width="574"/>
  <unicode hex="014B"/>
  <outline>
    <contour>
      <point x="277" y="449" type="curve" smooth="yes"/>
      <point x="240.682" y="449"/>
      <point x="202.644" y="444.929"/>
      <point x="173" y="439" type="curve"/>
      <point x="173" y="0" type="line"/>
      <point x="80" y="0" type="line"/>
      <point x="80" y="505" type="line"/>
      <point x="135.107" y="518.777"/>
      <point x="209.813" y="531"/>
      <point x="287" y="531" type="curve" smooth="yes"/>
      <point x="441.388" y="531"/>
      <point x="500" y="445.118"/>
      <point x="500" y="292" type="curve" smooth="yes"/>
      <point x="500" y="0" type="line" smooth="yes"/>
      <point x="500" y="-86.5118"/>
      <point x="485.639" y="-149.908"/>
      <point x="425" y="-175" type="curve" smooth="yes"/>
      <point x="405.667" y="-183"/>
      <point x="381" y="-187"/>
      <point x="351" y="-187" type="curve" smooth="yes"/>
      <point x="333.482" y="-187"/>
      <point x="302.552" y="-182.696"/>
      <point x="289" y="-179" type="curve"/>
      <point x="298" y="-106" type="line"/>
      <point x="306.618" y="-109.232"/>
      <point x="329.349" y="-111"/>
      <point x="341" y="-111" type="curve" smooth="yes"/>
      <point x="393.85" y="-111"/>
      <point x="407" y="-72.0497"/>
      <point x="407" y="-17" type="curve" smooth="yes"/>
      <point x="407" y="272" type="line" smooth="yes"/>
      <point x="407" y="353.334"/>
      <point x="396.229" y="417.753"/>
      <point x="339" y="439.5" type="curve" smooth="yes"/>
      <point x="322.333" y="445.833"/>
      <point x="301.667" y="449"/>
    </contour>
  </outline>
</glyph>
<glyph name="OE" format="1">
  <advance width="993"/>
  <unicode hex="0152"/>
  <outline>
    <contour>
      <point x="523" y="611" type="line"/>
      <point x="495.038" y="614.813"/>
      <point x="465.923" y="616"/>
      <point x="435" y="616" type="curve" smooth="yes"/>
      <point x="303.063" y="616"/>
      <point x="216.631" y="556.398"/>
      <point x="180" y="460" type="curve" smooth="yes"/>
      <point x="167.333" y="426.667"/>
      <point x="161" y="389"/>
      <point x="161" y="347" type="curve" smooth="yes"/>
      <point x="161" y="213.895"/>
      <point x="222.595" y="131.196"/>
      <point x="321" y="95.5" type="curve" smooth="yes"/>
      <point x="355" y="83.1667"/>
      <point x="393" y="77"/>
      <point x="435" y="77" type="curve" smooth="yes"/>
      <point x="468.08" y="77"/>
      <point x="497.576" y="76.3501"/>
      <point x="523" y="82" type="curve"/>
    </contour>
    <contour>
      <point x="540" y="0" type="line"/>
      <point x="510" y="-3.60003"/>
      <point x="467.4" y="-7"/>
      <point x="435" y="-7" type="curve" smooth="yes"/>
      <point x="259.154" y="-7"/>
      <point x="140.011" y="66.6412"/>
      <point x="86.5" y="191.5" type="curve" smooth="yes"/>
      <point x="67.5" y="235.833"/>
      <point x="58" y="287.667"/>
      <point x="58" y="347" type="curve" smooth="yes"/>
      <point x="58" y="468.252"/>
      <point x="100.938" y="554.877"/>
      <point x="166.5" y="612" type="curve" smooth="yes"/>
      <point x="229.673" y="667.042"/>
      <point x="321.555" y="700"/>
      <point x="436" y="700" type="curve" smooth="yes"/>
      <point x="468.453" y="700"/>
      <point x="509.937" y="696.608"/>
      <point x="540" y="693" type="curve"/>
      <point x="931" y="693" type="line"/>
      <point x="931" y="612" type="line"/>
      <point x="620" y="612" type="line"/>
      <point x="620" y="403" type="line"/>
      <point x="895" y="403" type="line"/>
      <point x="895" y="324" type="line"/>
      <point x="620" y="324" type="line"/>
      <point x="620" y="81" type="line"/>
      <point x="956" y="81" type="line"/>
      <point x="956" y="0" type="line"/>
    </contour>
  </outline>
</glyph>
<glyph name="oe" format="1">
  <advance width="947"/>
  <unicode hex="0153"/>
  <outline>
    <contour>
      <point x="857" y="17" type="line"/>
      <point x="824.303" y="-0.310075"/>
      <point x="757.423" y="-12"/>
      <point x="701" y="-12" type="curve" smooth="yes"/>
      <point x="595.143" y="-12"/>
      <point x="526.413" y="29.4459"/>
      <point x="488" y="97" type="curve"/>
      <point x="450.32" y="33.4144"/>
      <point x="389.463" y="-13"/>
      <point x="295" y="-13" type="curve" smooth="yes"/>
      <point x="175.085" y="-13"/>
      <point x="101.443" y="57.8812"/>
      <point x="69" y="148" type="curve" smooth="yes"/>
      <point x="57" y="181.333"/>
      <point x="51" y="218.667"/>
      <point x="51" y="260" type="curve" smooth="yes"/>
      <point x="51" y="386.346"/>
      <point x="108.374" y="475.096"/>
      <point x="197" y="513.5" type="curve" smooth="yes"/>
      <point x="227" y="526.5"/>
      <point x="259.667" y="533"/>
      <point x="295" y="533" type="curve" smooth="yes"/>
      <point x="387.344" y="533"/>
      <point x="451.11" y="483.69"/>
      <point x="488" y="423" type="curve"/>
      <point x="524.355" y="484.694"/>
      <point x="588.101" y="533"/>
      <point x="676" y="533" type="curve" smooth="yes"/>
      <point x="828.13" y="533"/>
      <point x="893" y="429.247"/>
      <point x="893" y="268" type="curve" smooth="yes"/>
      <point x="893" y="258.547"/>
      <point x="892" y="252.351"/>
      <point x="892" y="244" type="curve" smooth="yes"/>
      <point x="892" y="235" type="line"/>
      <point x="536" y="235" type="line"/>
      <point x="543.993" y="128.433"/>
      <point x="596.104" y="70"/>
      <point x="711" y="70" type="curve" smooth="yes"/>
      <point x="764.619" y="70"/>
      <point x="811.846" y="79.8686"/>
      <point x="844" y="95" type="curve"/>
    </contour>
    <contour>
      <point x="295" y="69" type="curve" smooth="yes"/>
      <point x="394.613" y="69"/>
      <point x="442" y="154.771"/>
      <point x="442" y="260" type="curve" smooth="yes"/>
      <point x="442" y="365.277"/>
      <point x="394.65" y="451"/>
      <point x="295" y="451" type="curve" smooth="yes"/>
      <point x="195.387" y="451"/>
      <point x="148" y="365.229"/>
      <point x="148" y="260" type="curve" smooth="yes"/>
      <point x="148" y="154.723"/>
      <point x="195.35" y="69"/>
    </contour>
    <contour>
      <point x="796" y="310" type="line"/>
      <point x="797.275" y="390.316"/>
      <point x="753.519" y="454"/>
      <point x="675" y="454" type="curve" smooth="yes"/>
      <point x="589.49" y="454"/>
      <point x="546.505" y="386.542"/>
      <point x="538" y="310" type="curve"/>
    </contour>
  </outline>
</glyph>
<glyph name="Scedilla" format="1">
  <advance width="532"/>
  <unicode hex="015E"/>
  <outline>
    <contour>
      <point x="256" y="-106" type="curve" smooth="yes"/>
      <point x="256" y="-84.8253"/>
      <point x="225.771" y="-77.0445"/>
      <point x="207" y="-69" type="curve"/>
      <point x="213.074" y="-52.2977"/>
      <point x="221.905" y="-31.1903"/>
      <point x="230" y="-15" type="curve"/>
      <point x="151.351" y="-12.9303"/>
      <point x="82.7318" y="4.16094"/>
      <point x="33" y="34" type="curve"/>
      <point x="62" y="114" type="line"/>
      <point x="77.3333" y="105.333"/>
      <point x="100.667" y="95.6667"/>
      <point x="132" y="85" type="curve" smooth="yes"/>
      <point x="163.333" y="74.3333"/>
      <point x="201.667" y="69"/>
      <point x="247" y="69" type="curve" smooth="yes"/>
      <point x="348.333" y="69"/>
      <point x="399" y="103.667"/>
      <point x="399" y="173" type="curve" smooth="yes"/>
      <point x="399" y="242.922"/>
      <point x="347.41" y="274.291"/>
      <point x="296.5" y="295" type="curve" smooth="yes"/>
      <point x="206.492" y="331.613"/>
      <point x="103.664" y="355.132"/>
      <point x="63.5" y="441" type="curve" smooth="yes"/>
      <point x="53.8333" y="461.667"/>
      <point x="49" y="486.667"/>
      <point x="49" y="516" type="curve" smooth="yes"/>
      <point x="49" y="645.542"/>
      <point x="147.271" y="709"/>
      <point x="282" y="709" type="curve" smooth="yes"/>
      <point x="352.699" y="709"/>
      <point x="433.013" y="691.991"/>
      <point x="472" y="666" type="curve"/>
      <point x="441" y="587" type="line"/>
      <point x="406.044" y="608.639"/>
      <point x="344.213" y="625"/>
      <point x="282" y="625" type="curve" smooth="yes"/>
      <point x="224.818" y="625"/>
      <point x="180.287" y="607.124"/>
      <point x="159.5" y="570.5" type="curve" smooth="yes"/>
      <point x="152.5" y="558.167"/>
      <point x="149" y="543.667"/>
      <point x="149" y="527" type="curve" smooth="yes"/>
      <point x="149" y="464.844"/>
      <point x="193.377" y="439.98"/>
      <point x="237.5" y="420" type="curve" smooth="yes"/>
      <point x="355" y="366.792"/>
      <point x="501" y="342.692"/>
      <point x="501" y="174" type="curve" smooth="yes"/>
      <point x="501" y="53.2378"/>
      <point x="411.59" y="-1.24095"/>
      <point x="294" y="-13" type="curve"/>
      <point x="283" y="-37" type="line"/>
      <point x="317.686" y="-53.7448"/>
      <point x="338" y="-68.5362"/>
      <point x="338" y="-116" type="curve" smooth="yes"/>
      <point x="338" y="-167.458"/>
      <point x="288.879" y="-189"/>
      <point x="235" y="-189" type="curve" smooth="yes"/>
      <point x="204.734" y="-189"/>
      <point x="173.314" y="-183.813"/>
      <point x="153" y="-176" type="curve"/>
      <point x="164" y="-119" type="line"/>
      <point x="180.537" y="-124.512"/>
      <point x="197.656" y="-129"/>
      <point x="220" y="-129" type="curve" smooth="yes"/>
      <point x="244" y="-129"/>
      <point x="256" y="-121.333"/>
    </contour>
  </outline>
</glyph>
